SplineFontDB: 1.0
FontName: Loma-Bold
FullName: Loma Bold
FamilyName: Loma
Weight: Bold
Copyright: Copyright (c) NECTEC, 2003. All rights reserved.\nModified under GNU General Public License by TLWG.
Version: 0.9.8: 2007-04-17
ItalicAngle: 0
UnderlinePosition: -170
UnderlineWidth: 10
Ascent: 1638
Descent: 410
NeedsXUIDChange: 1
FSType: 0
OS2Version: 0
OS2_WeightWidthSlopeOnly: 0
OS2_UseTypoMetrics: 0
CreationTime: 1153662462
ModificationTime: 1176794026
PfmFamily: 33
TTFWeight: 700
TTFWidth: 5
LineGap: 0
VLineGap: 0
Panose: 2 11 6 4 2 2 2 2 2 4
OS2TypoAscent: 0
OS2TypoAOffset: 1
OS2TypoDescent: 0
OS2TypoDOffset: 1
OS2TypoLinegap: 0
OS2WinAscent: 0
OS2WinAOffset: 1
OS2WinDescent: 0
OS2WinDOffset: 1
HheadAscent: 0
HheadAOffset: 1
HheadDescent: 0
HheadDOffset: 1
OS2Vendor: 'PfEd'
ScriptLang: 3
 1 latn 1 dflt 
 1 thai 4 KUY  PAL  THA  dflt 
 1 thai 1 PAL  
ContextSub: glyph 0 2 ' RQD' 0 0 0 1
 String: 15 uni0E0D uni0E10
 BString: 0 
 FString: 0 
 1
  SeqLookup: 0 'ndsc'
EndFPST
ChainSub: class 0 1 'ccmp' 7 7 1 5
  Class: 414 uni0E01 uni0E02 uni0E03 uni0E04 uni0E05 uni0E06 uni0E07 uni0E08 uni0E09 uni0E0A uni0E0B uni0E0C uni0E0D uni0E0E uni0E0F uni0E10 uni0E11 uni0E12 uni0E13 uni0E14 uni0E15 uni0E16 uni0E17 uni0E18 uni0E19 uni0E1A uni0E1B uni0E1C uni0E1D uni0E1E uni0E1F uni0E20 uni0E21 uni0E22 uni0E23 uni0E24 uni0E25 uni0E26 uni0E27 uni0E28 uni0E29 uni0E2A uni0E2B uni0E2C uni0E2D uni0E2E uni0E10.descless uni0E0D.descless dottedcircle
  Class: 7 uni0E33
  Class: 39 uni0E48 uni0E49 uni0E4A uni0E4B uni0E4C
  Class: 23 uni0E38 uni0E39 uni0E3A
  Class: 39 uni0E31 uni0E34 uni0E35 uni0E36 uni0E37
  Class: 7 uni0E4D

StartChar: .notdef
Encoding: 0 -1 0
Width: 1536
Flags: W
HStem: 0 32<288 1248> 1248 32<288 1248>
VStem: 256 32<32 1248> 1248 32<32 1248>
Fore
256 0 m 1
 256 1280 l 1
 1280 1280 l 1
 1280 0 l 1
 256 0 l 1
288 32 m 1
 1248 32 l 1
 1248 1248 l 1
 288 1248 l 1
 288 32 l 1
EndSplineSet
EndChar
StartChar: uni0E4D.high
Encoding: 271 63262 2
Width: 0
VWidth: 2561
Flags: W
TeX: 0 0 0 0
HStem: 1719 104<-290.472 -226.873> 1928 107<-295.127 -230.228>
VStem: -419 104<1842.05 1898> -207 102<1846.83 1908.06>
AnchorPoint: "AboveMark" -261 1740 mark 0
Fore
-261 2035 m 0
 -218 2035 -181 2020 -150 1989 c 1
 -120 1957 -105 1919 -105 1875 c 0
 -105 1832 -120 1796 -150 1765 c 0
 -181 1734 -218 1719 -261 1719 c 0
 -304 1719 -341 1734 -372 1765 c 0
 -403 1796 -419 1832 -419 1875 c 0
 -419 1919 -403 1957 -372 1989 c 0
 -341 2020 -304 2035 -261 2035 c 0
-261 1823 m 0
 -238 1823 -222 1833 -212 1853 c 0
 -209 1860 -207 1867 -207 1875 c 0
 -207 1897 -217 1913 -237 1923 c 0
 -244 1926 -252 1928 -261 1928 c 0
 -284 1928 -300 1918 -310 1898 c 1
 -315 1879 l 1
 -315 1875 l 2
 -315 1853 -305 1837 -284 1828 c 0
 -277 1825 -269 1823 -261 1823 c 0
EndSplineSet
EndChar
StartChar: exclam
Encoding: 3 33 5
Width: 569
Flags: W
HStem: 0 194<177 400> 1430 20G<169 408>
VStem: 169 239<910.471 1450> 177 223<0 194>
Fore
169 999 m 1xe0
 169 1450 l 1
 408 1450 l 1
 408 999 l 1
 365 365 l 1
 213 365 l 1
 169 999 l 1xe0
177 194 m 1xd0
 400 194 l 1
 400 0 l 1
 177 0 l 1
 177 194 l 1xd0
EndSplineSet
EndChar
StartChar: quotedbl
Encoding: 4 34 6
Width: 727
Flags: W
HStem: 1430 20G<106 336 389 619>
VStem: 106 230<1183.82 1450> 389 230<1182.44 1450>
Fore
156 947 m 1
 106 1217 l 1
 106 1450 l 1
 336 1450 l 1
 336 1217 l 1
 291 947 l 1
 156 947 l 1
437 947 m 1
 389 1217 l 1
 389 1450 l 1
 619 1450 l 1
 619 1217 l 1
 572 947 l 1
 437 947 l 1
EndSplineSet
EndChar
StartChar: numbersign
Encoding: 5 35 7
Width: 1139
Flags: W
HStem: -10 21G<57 297 516 763> 355 240<21 144 414 602 872 1113> 865 240<21 248 518 698 977 1113> 1450 20G<365 605 824 1064>
Fore
57 -10 m 1
 144 355 l 1
 21 355 l 1
 21 595 l 1
 183 595 l 1
 248 865 l 1
 21 865 l 1
 21 1105 l 1
 278 1105 l 1
 365 1470 l 1
 605 1470 l 1
 518 1105 l 1
 737 1105 l 1
 824 1470 l 1
 1064 1470 l 1
 977 1105 l 1
 1113 1105 l 1
 1113 865 l 1
 938 864 l 1
 872 595 l 1
 1113 595 l 1
 1113 355 l 1
 842 355 l 1
 763 -10 l 1
 516 -10 l 1
 602 355 l 1
 384 355 l 1
 297 -10 l 1
 57 -10 l 1
414 595 m 1
 632 595 l 1
 698 865 l 1
 479 865 l 1
 414 595 l 1
EndSplineSet
EndChar
StartChar: dollar
Encoding: 6 36 8
Width: 1139
Flags: W
VStem: 106 210<986.354 1093.15> 462 202<-118 -37 153 599 840 1239 1429 1488> 830 212<262.5 467.851>
Fore
462 -37 m 1
 414 -31 370 -21 330 -6 c 0
 179 51 95 167 79 344 c 1
 76 417 l 1
 285 417 l 1
 285 409 285 409 285 400 c 0
 285 355 291 316 304 284 c 0
 328 225 381 181 462 153 c 1
 462 621 l 1
 386 636 319 666 262 710 c 0
 158 789 106 896 106 1031 c 0
 106 1122 127 1199 169 1264 c 0
 232 1361 329 1416 462 1429 c 1
 462 1488 l 1
 664 1488 l 1
 664 1429 l 1
 878 1405 993 1279 1008 1050 c 1
 805 1050 l 1
 803 1072 797 1094 788 1116 c 0
 763 1179 721 1220 664 1239 c 1
 664 820 l 1
 733 807 794 786 846 755 c 0
 977 679 1042 560 1042 397 c 0
 1042 282 1010 184 946 105 c 0
 875 18 781 -28 664 -35 c 1
 664 -118 l 1
 462 -118 l 1
 462 -37 l 1
462 1241 m 1
 452 1239 442 1237 433 1234 c 0
 369 1212 331 1164 319 1091 c 1
 316 1044 l 1
 316 1028 317 1013 320 999 c 0
 332 925 379 872 462 840 c 1
 462 1241 l 1
704 167 m 1
 741 186 l 1
 800 224 830 291 830 386 c 0
 830 413 827 437 822 458 c 1
 810 495 l 1
 787 546 738 580 664 599 c 1
 664 153 l 1
 704 167 l 1
EndSplineSet
EndChar
StartChar: percent
Encoding: 7 37 9
Width: 1821
Flags: W
HStem: -53 177<1335.5 1429.1> 546 175<1330.3 1427.8> 717 169<388.1 476.5> 1317 174<382.9 476.5>
VStem: 119 191<987.779 1209.53> 554 191<990.647 1214.66> 1067 190<224.802 443.612> 1507 189<226.729 444.668>
Fore
119 1114 m 0xbf
 119 1219 145 1308 197 1380 c 0
 250 1454 326 1491 426 1491 c 0
 521 1491 598 1458 655 1392 c 0
 715 1323 745 1227 745 1104 c 1
 744 986 713 890 654 817 c 1
 597 750 521 717 428 717 c 0
 337 717 264 750 208 815 c 0
 149 884 119 984 119 1114 c 0xbf
431 1317 m 0
 394 1317 366 1301 345 1270 c 0
 322 1235 310 1177 310 1096 c 0
 310 1018 322 964 346 933 c 0
 369 902 398 886 431 886 c 0
 466 886 496 902 519 933 c 0
 542 965 554 1023 554 1107 c 0
 554 1184 542 1239 519 1270 c 0
 496 1301 466 1317 431 1317 c 0
1170 1491 m 1
 1447 1491 l 1
 688 -10 l 1
 411 -10 l 1
 1170 1491 l 1
1067 344 m 0
 1067 449 1093 538 1145 610 c 0
 1198 684 1275 721 1376 721 c 0xdf
 1471 721 1547 688 1604 622 c 0
 1665 552 1696 456 1696 334 c 0
 1696 213 1665 117 1604 47 c 0
 1545 -20 1469 -53 1376 -53 c 0
 1283 -53 1209 -20 1155 46 c 0
 1096 117 1067 217 1067 344 c 0
1381 546 m 0
 1342 546 1312 530 1291 499 c 0
 1268 465 1257 408 1257 329 c 0
 1257 254 1269 202 1293 171 c 0
 1317 140 1346 124 1381 124 c 0
 1418 124 1448 140 1472 171 c 0
 1495 202 1507 258 1507 340 c 0
 1507 415 1495 468 1471 499 c 0
 1447 530 1417 546 1381 546 c 0
EndSplineSet
EndChar
StartChar: ampersand
Encoding: 8 38 10
Width: 1366
Flags: W
HStem: -21 206<467.802 617.565>
VStem: 88 239<336.9 511.1>
Fore
948 140 m 1
 929 119 907 100 883 83 c 0
 794 19 692 -16 576 -22 c 1
 509 -21 l 1
 378 -12 274 37 195 127 c 1
 124 210 88 302 88 403 c 0
 88 602 194 752 407 852 c 1
 384 879 366 902 352 921 c 0
 299 996 272 1076 272 1163 c 0
 272 1256 307 1334 377 1397 c 0
 448 1460 534 1491 637 1491 c 0
 714 1491 783 1471 842 1431 c 1
 877 1403 l 1
 944 1343 977 1268 977 1178 c 0
 977 1171 977 1163 976 1156 c 0
 969 1020 883 908 720 821 c 1
 926 522 l 1
 956 579 979 648 995 727 c 1
 1221 649 l 1
 1192 540 1150 442 1095 357 c 1
 1162 270 1238 195 1324 132 c 1
 1173 -67 l 1
 1101 -19 1026 50 948 140 c 1
609 983 m 1
 642 1000 668 1018 685 1035 c 0
 717 1066 734 1112 737 1171 c 0
 738 1172 738 1174 737 1176 c 0
 737 1196 732 1215 721 1232 c 0
 700 1267 668 1285 627 1286 c 0
 602 1286 579 1278 560 1263 c 0
 531 1240 515 1212 512 1177 c 0
 512 1167 l 0
 512 1114 544 1052 609 983 c 1
530 671 m 1
 503 655 481 640 462 626 c 0
 372 559 327 488 327 411 c 0
 327 354 346 301 384 253 c 0
 402 230 425 212 454 201 c 0
 480 190 509 185 540 185 c 0
 577 185 615 192 653 207 c 0
 721 233 770 273 800 326 c 1
 530 671 l 1
EndSplineSet
EndChar
StartChar: quotesingle
Encoding: 9 39 11
Width: 391
Flags: W
HStem: 1446 20G<61 324>
VStem: 61 263<1185.93 1466>
Fore
107 947 m 1
 61 1221 l 1
 61 1466 l 1
 324 1466 l 1
 324 1221 l 1
 276 947 l 1
 107 947 l 1
EndSplineSet
EndChar
StartChar: parenleft
Encoding: 10 40 12
Width: 682
Flags: W
VStem: 81 276<360.7 768>
Fore
436 -431 m 1
 301 -260 202 -71 141 135 c 0
 101 268 81 400 81 531 c 0
 81 773 138 999 252 1209 c 0
 298 1294 359 1388 436 1491 c 1
 656 1491 l 1
 563 1332 500 1211 466 1130 c 0
 395 961 359 768 357 549 c 0
 357 539 357 539 357 530 c 0
 357 209 457 -111 656 -431 c 1
 436 -431 l 1
EndSplineSet
EndChar
StartChar: parenright
Encoding: 11 41 13
Width: 682
Flags: W
VStem: 378 278<208.6 759.8>
Fore
301 -431 m 1
 79 -431 l 1
 278 -111 378 209 378 530 c 0
 378 742 346 931 281 1097 c 0
 255 1164 188 1296 79 1491 c 1
 301 1491 l 1
 428 1321 518 1165 571 1022 c 0
 628 871 656 707 656 531 c 0
 656 283 587 36 449 -209 c 0
 404 -288 355 -362 301 -431 c 1
EndSplineSet
EndChar
StartChar: asterisk
Encoding: 12 42 14
Width: 797
Flags: W
HStem: 858 633<306 510>
VStem: 303 185<1263.3 1491>
Fore
65 1176 m 1
 107 1357 l 1
 274 1301 l 1
 287 1296 299 1290 310 1284 c 1
 305 1327 303 1365 303 1399 c 1
 306 1491 l 1
 483 1491 l 1
 488 1349 l 1
 487 1328 485 1305 482 1282 c 1
 521 1302 583 1326 667 1353 c 0
 679 1357 679 1357 688 1360 c 1
 721 1179 l 1
 643 1153 582 1137 537 1131 c 2
 513 1128 l 1
 544 1101 592 1048 658 967 c 2
 662 962 l 1
 510 858 l 1
 473 909 433 970 392 1041 c 1
 361 982 324 924 283 869 c 2
 277 862 l 1
 126 968 l 1
 200 1059 248 1115 271 1136 c 1
 102 1167 l 2
 90 1170 78 1173 65 1176 c 1
EndSplineSet
EndChar
StartChar: plus
Encoding: 13 43 15
Width: 1196
Flags: W
HStem: 611 226<114 483 713 1082>
VStem: 483 230<237 611 837 1206>
Fore
483 237 m 1
 483 611 l 1
 114 611 l 1
 114 837 l 1
 483 837 l 1
 483 1206 l 1
 713 1206 l 1
 713 837 l 1
 1082 837 l 1
 1082 611 l 1
 713 611 l 1
 713 237 l 1
 483 237 l 1
EndSplineSet
EndChar
StartChar: comma
Encoding: 14 44 16
Width: 569
Flags: W
VStem: 122 297<-22 231>
Fore
122 -22 m 1
 122 231 l 1
 419 231 l 1
 419 -22 l 2
 419 -127 396 -201 349 -246 c 0
 330 -265 303 -283 268 -300 c 1
 111 -207 l 1
 167 -182 206 -143 229 -88 c 0
 238 -67 243 -45 244 -22 c 1
 122 -22 l 1
EndSplineSet
EndChar
StartChar: hyphen
Encoding: 15 45 17
Width: 682
Flags: W
HStem: 388 266<65 618>
Fore
65 388 m 1
 65 654 l 1
 618 654 l 1
 618 388 l 1
 65 388 l 1
EndSplineSet
EndChar
StartChar: period
Encoding: 16 46 18
Width: 569
Flags: W
HStem: 0 220<154 430>
VStem: 154 276<0 220>
Fore
154 0 m 1
 154 220 l 1
 430 220 l 1
 430 0 l 1
 154 0 l 1
EndSplineSet
EndChar
StartChar: slash
Encoding: 17 47 19
Width: 595
Flags: W
HStem: -10 21G<-110 130> 1450 20G<477 716>
VStem: -110 826<-10 1470>
Fore
-110 -10 m 1
 477 1470 l 1
 716 1470 l 1
 130 -10 l 1
 -110 -10 l 1
EndSplineSet
EndChar
StartChar: zero
Encoding: 18 48 20
Width: 1139
Flags: W
VStem: 86 254<320.3 950.311> 781 259<526.7 981.358>
Fore
86 736 m 0
 86 886 99 1012 126 1115 c 0
 190 1360 336 1482 563 1482 c 0
 598 1482 630 1479 661 1473 c 0
 914 1424 1040 1178 1040 736 c 0
 1040 575 1024 442 993 337 c 0
 926 114 782 -1 563 -10 c 0
 550 -10 538 -10 526 -9 c 0
 233 10 86 259 86 736 c 0
340 735 m 0
 340 416 413 257 560 257 c 0
 574 258 588 259 601 262 c 0
 721 291 781 449 781 735 c 0
 781 765 780 794 779 821 c 0
 766 1082 692 1213 559 1213 c 0
 513 1213 475 1199 444 1171 c 0
 375 1108 340 962 340 735 c 0
EndSplineSet
EndChar
StartChar: one
Encoding: 19 49 21
Width: 1139
Flags: W
HStem: 0 21G<525 763> 1452 20G<525 763>
VStem: 525 238<0 1045>
Fore
763 0 m 1
 525 0 l 1
 525 1045 l 1
 454 964 376 904 289 867 c 0
 266 857 244 849 223 844 c 1
 223 1104 l 1
 314 1147 381 1196 425 1253 c 0
 468 1308 501 1381 525 1472 c 1
 763 1472 l 1
 763 0 l 1
EndSplineSet
KernsSLIFO: 21 -152 0 0
EndChar
StartChar: two
Encoding: 20 50 22
Width: 1139
Flags: W
HStem: 0 223<382 1031> 1273 209<524.992 629.928>
VStem: 794 235<995.618 1146>
Fore
1031 223 m 1
 1031 0 l 1
 62 0 l 1
 71 112 112 223 185 332 c 0
 213 375 245 415 280 450 c 0
 312 482 399 559 540 682 c 0
 585 721 613 746 625 759 c 0
 715 850 769 932 786 1004 c 0
 791 1027 794 1050 794 1074 c 0
 794 1076 794 1076 794 1079 c 0
 793 1146 759 1198 693 1237 c 0
 652 1260 611 1272 568 1273 c 1
 526 1269 l 1
 456 1257 404 1225 369 1172 c 1
 351 1139 l 1
 338 1110 332 1076 331 1039 c 1
 96 1039 l 1
 96 1176 142 1285 234 1367 c 0
 321 1444 433 1482 572 1482 c 0
 713 1482 826 1443 910 1365 c 0
 989 1292 1029 1195 1029 1075 c 0
 1029 972 986 861 901 742 c 0
 888 724 888 724 873 705 c 0
 836 658 769 592 671 509 c 0
 570 423 501 361 464 323 c 0
 431 288 403 255 382 223 c 1
 1031 223 l 1
EndSplineSet
EndChar
StartChar: three
Encoding: 21 51 23
Width: 1139
Flags: W
HStem: -10 216<485.4 670> 1070 21G<104 333> 1268 214<491.253 607.302>
VStem: 740 234<1019.93 1163.5> 805 241<370.9 533.4>
Fore
86 427 m 1xe8
 316 427 l 1
 325 356 357 299 411 256 c 0
 454 223 501 206 553 206 c 0
 643 206 711 237 758 298 c 0
 789 339 805 388 805 445 c 0xe8
 805 513 775 569 715 613 c 0
 664 650 605 668 537 668 c 0
 504 668 472 663 441 654 c 1
 441 882 l 1
 516 883 l 1
 632 891 703 935 728 1016 c 0
 736 1041 740 1071 740 1105 c 0
 740 1150 717 1189 671 1224 c 0
 632 1253 591 1268 549 1268 c 0
 474 1268 416 1242 376 1189 c 1
 357 1158 l 1
 344 1133 336 1103 333 1070 c 1
 104 1070 l 1
 104 1177 141 1270 216 1348 c 0
 292 1427 388 1471 503 1480 c 0
 517 1481 531 1482 545 1482 c 0
 664 1482 764 1448 845 1381 c 0
 931 1310 974 1216 974 1101 c 0xf0
 974 984 950 901 901 850 c 1
 874 827 l 1
 856 814 835 803 812 794 c 1
 926 775 998 712 1028 606 c 1
 1040 548 l 1
 1044 518 1046 485 1046 449 c 0
 1046 321 1002 214 915 129 c 0
 830 46 723 0 592 -9 c 0
 579 -10 565 -10 552 -10 c 0
 432 -10 328 26 240 98 c 0
 151 171 101 265 88 379 c 0
 87 395 86 411 86 427 c 1xe8
EndSplineSet
EndChar
StartChar: four
Encoding: 22 52 24
Width: 1139
Flags: W
HStem: 0 21G<662 892> 327 225<321 662 892 1070> 1452 20G<662 892>
VStem: 662 230<0 327 552 1077>
Fore
662 0 m 1
 662 327 l 1
 56 327 l 1
 56 552 l 1
 662 1472 l 1
 892 1472 l 1
 892 552 l 1
 1070 552 l 1
 1070 327 l 1
 892 327 l 1
 892 0 l 1
 662 0 l 1
662 552 m 1
 662 1077 l 1
 321 552 l 1
 662 552 l 1
EndSplineSet
EndChar
StartChar: five
Encoding: 23 53 25
Width: 1139
Flags: W
HStem: -10 214<478.609 663.9> 777 230<514.099 640.497> 1244 228<473 988>
VStem: 85 245<277.889 415> 817 240<386.8 579.223>
Fore
85 415 m 1
 330 415 l 1
 336 315 380 250 463 220 c 0
 492 209 523 204 556 204 c 0
 639 204 704 234 751 294 c 0
 792 345 814 412 817 496 c 1
 815 550 l 1
 806 645 764 711 690 748 c 0
 651 767 606 777 553 777 c 1
 503 774 l 1
 446 765 396 736 355 686 c 1
 117 708 l 1
 259 1472 l 1
 988 1472 l 1
 988 1244 l 1
 473 1244 l 1
 404 940 l 1
 454 973 496 994 531 1001 c 0
 549 1005 569 1007 591 1007 c 0
 733 1005 847 957 932 863 c 0
 1015 772 1057 655 1057 512 c 0
 1057 365 1015 243 930 147 c 0
 841 47 723 -5 575 -10 c 0
 566 -10 566 -10 556 -10 c 0
 392 -10 268 44 183 152 c 0
 128 222 96 310 85 415 c 1
EndSplineSet
EndChar
StartChar: six
Encoding: 24 54 26
Width: 1139
Flags: W
HStem: -10 210<505.7 698.1> 764 213<465.9 653.117> 1257 225<489.79 673.071>
VStem: 77 239<701 1001.52> 819 227<384.881 581.356>
Fore
1019 1103 m 1
 807 1104 l 1
 786 1175 743 1221 680 1244 c 0
 655 1253 629 1257 600 1257 c 0
 427 1257 333 1133 316 885 c 0
 316 876 316 867 315 858 c 1
 380 937 471 977 589 977 c 0
 591 977 591 977 594 977 c 0
 717 976 820 932 905 846 c 1
 940 806 l 1
 995 735 1029 652 1041 559 c 0
 1044 532 1046 506 1046 479 c 0
 1045 342 1005 228 926 137 c 0
 844 43 736 -6 602 -10 c 0
 586 -10 l 0
 357 -10 204 103 129 329 c 0
 94 432 77 556 77 701 c 0
 77 1108 186 1356 403 1446 c 0
 462 1470 528 1482 603 1482 c 0
 717 1482 813 1449 892 1383 c 0
 908 1370 923 1355 936 1339 c 0
 991 1273 1019 1194 1019 1103 c 1
351 489 m 0
 351 388 379 310 434 257 c 0
 474 219 524 200 585 200 c 0
 672 200 737 237 779 310 c 0
 806 357 819 414 819 481 c 0
 819 584 789 661 729 712 c 1
 700 733 l 1
 665 754 625 764 579 764 c 0
 492 764 428 727 388 653 c 0
 363 608 351 553 351 489 c 0
EndSplineSet
EndChar
StartChar: seven
Encoding: 25 55 27
Width: 1139
Flags: W
HStem: 0 21G<253 511> 1233 239<97 755>
Fore
97 1233 m 1
 97 1472 l 1
 1046 1472 l 1
 1046 1233 l 1
 986 1170 917 1083 839 973 c 0
 757 858 702 764 675 692 c 0
 588 460 536 272 519 129 c 0
 514 84 511 41 511 0 c 1
 253 0 l 1
 254 243 319 502 446 776 c 0
 496 884 590 1025 727 1198 c 0
 742 1217 742 1217 755 1233 c 1
 97 1233 l 1
EndSplineSet
EndChar
StartChar: eight
Encoding: 26 56 28
Width: 1139
Flags: W
HStem: -10 209<487.4 620.987> 1284 198<480.5 635.373>
VStem: 83 239<334.3 511.661> 142 227<1006.9 1166.6> 761 228<1033.96 1186.1> 812 237<360.745 535.4>
Fore
362 805 m 1xe4
 215 859 142 959 142 1104 c 0
 142 1223 185 1318 270 1388 c 0
 347 1451 444 1482 563 1482 c 0
 690 1482 793 1446 873 1374 c 1
 904 1342 l 1
 961 1275 989 1194 989 1099 c 0xd8
 989 988 940 902 841 841 c 0
 821 828 798 816 773 805 c 1
 886 768 964 710 1005 629 c 0
 1031 577 1046 512 1049 434 c 1
 1047 380 l 1
 1036 279 988 191 903 116 c 0
 819 43 721 1 609 -8 c 0
 594 -9 580 -10 566 -10 c 0
 423 -10 307 31 218 113 c 0
 129 194 84 301 83 434 c 1
 83 439 l 2
 83 584 137 689 244 756 c 0
 279 777 318 794 362 805 c 1xe4
369 1107 m 0
 370 1030 400 975 459 943 c 0
 490 926 526 918 567 918 c 0
 638 918 691 942 727 990 c 0
 750 1021 761 1057 761 1099 c 0
 761 1166 735 1217 683 1251 c 0
 650 1273 610 1284 565 1284 c 0
 500 1284 448 1262 410 1218 c 0
 383 1187 369 1150 369 1107 c 0
322 437 m 0xe4
 322 358 351 295 409 250 c 0
 453 216 506 199 568 199 c 0
 656 199 722 228 767 287 c 0
 797 326 812 375 812 433 c 0
 812 523 775 586 702 623 c 0
 663 642 617 651 563 651 c 0
 464 651 395 620 354 557 c 1
 338 525 l 1
 327 499 322 470 322 437 c 0xe4
EndSplineSet
EndChar
StartChar: nine
Encoding: 27 57 29
Width: 1139
Flags: W
HStem: -10 229<477.964 668.21> 495 227<512.5 691.9> 1257 224<471.1 647.039>
VStem: 113 244<920.815 1081.18> 825 256<432.1 771>
Fore
139 369 m 1
 354 369 l 1
 362 294 405 247 484 228 c 0
 509 222 536 219 566 219 c 0
 671 219 742 257 779 332 c 0
 805 383 820 466 825 579 c 1
 787 541 743 517 693 506 c 0
 659 499 616 495 564 495 c 0
 443 495 340 536 256 619 c 0
 172 701 125 806 115 934 c 0
 114 949 113 965 113 981 c 0
 113 1120 152 1236 230 1329 c 0
 311 1424 416 1475 547 1481 c 0
 555 1482 563 1482 572 1482 c 0
 795 1482 945 1375 1023 1160 c 0
 1062 1054 1081 924 1081 771 c 0
 1081 364 972 116 755 26 c 0
 696 2 630 -10 555 -10 c 0
 441 -10 345 23 266 89 c 0
 182 160 140 254 139 369 c 1
800 982 m 0
 800 1081 773 1155 718 1205 c 1
 691 1226 l 1
 658 1247 621 1257 579 1257 c 0
 496 1257 435 1222 395 1152 c 0
 370 1107 357 1054 357 991 c 0
 357 892 386 818 445 769 c 0
 482 738 529 722 584 722 c 0
 667 722 728 757 765 828 c 0
 788 871 800 922 800 982 c 0
EndSplineSet
EndChar
StartChar: colon
Encoding: 28 58 30
Width: 569
Flags: W
HStem: 0 230<160 415> 832 230<160 415>
VStem: 160 255<0 230 832 1062>
Fore
160 832 m 1
 160 1062 l 1
 415 1062 l 1
 415 832 l 1
 160 832 l 1
160 0 m 1
 160 230 l 1
 415 230 l 1
 415 0 l 1
 160 0 l 1
EndSplineSet
EndChar
StartChar: semicolon
Encoding: 29 59 31
Width: 569
Flags: W
HStem: -20 20G<157 259> 832 230<157 412>
VStem: 157 255<0 205 832 1062> 259 153<-77.9798 0>
Fore
157 832 m 1xe0
 157 1062 l 1
 412 1062 l 1
 412 832 l 1
 157 832 l 1xe0
157 0 m 1
 157 205 l 1
 412 205 l 1
 412 0 l 2xe0
 412 -163 365 -262 270 -297 c 1
 145 -213 l 1
 202 -188 238 -140 251 -71 c 0
 255 -50 258 -27 259 0 c 1xd0
 157 0 l 1
EndSplineSet
EndChar
StartChar: less
Encoding: 30 60 32
Width: 1196
Flags: W
HStem: 226 993<1083 1083>
VStem: 112 971<641 1219>
Fore
112 641 m 1
 112 809 l 1
 1083 1219 l 1
 1083 990 l 1
 423 724 l 1
 1083 455 l 1
 1083 226 l 1
 112 641 l 1
EndSplineSet
EndChar
StartChar: equal
Encoding: 31 61 33
Width: 1196
Flags: W
HStem: 417 218<114 1082> 812 218<114 1082>
Fore
1082 812 m 1
 114 812 l 1
 114 1030 l 1
 1082 1030 l 1
 1082 812 l 1
1082 417 m 1
 114 417 l 1
 114 635 l 1
 1082 635 l 1
 1082 417 l 1
EndSplineSet
EndChar
StartChar: greater
Encoding: 32 62 34
Width: 1196
Flags: W
HStem: 226 993<112 112>
VStem: 112 971<226 641>
Fore
1083 641 m 1
 112 226 l 1
 112 455 l 1
 750 724 l 1
 112 990 l 1
 112 1219 l 1
 1083 809 l 1
 1083 641 l 1
EndSplineSet
EndChar
StartChar: question
Encoding: 33 63 35
Width: 1139
Flags: W
HStem: 0 235<421 695> 1291 213<482.2 651.083>
VStem: 421 274<0 235> 432 242<361 513.1> 813 223<1024.31 1194.6>
Fore
432 361 m 1xd8
 435 478 455 569 490 635 c 0
 505 664 525 692 549 719 c 0
 555 726 585 754 639 803 c 0
 723 881 776 950 798 1009 c 0
 808 1036 813 1062 813 1088 c 0
 813 1170 775 1229 698 1264 c 0
 659 1282 615 1291 568 1291 c 0
 502 1291 445 1264 398 1211 c 1
 373 1177 l 1
 351 1138 l 1
 338 1110 329 1079 324 1046 c 1
 90 1046 l 1
 98 1183 145 1293 232 1377 c 0
 319 1462 430 1504 565 1504 c 0
 696 1504 805 1469 892 1398 c 0
 987 1321 1035 1216 1036 1084 c 0
 1036 1066 1035 1048 1032 1030 c 0
 1019 953 974 870 895 782 c 1
 795 676 l 1
 722 597 682 506 675 401 c 0
 674 388 674 374 674 361 c 1
 432 361 l 1xd8
421 0 m 1xe8
 421 235 l 1
 695 235 l 1
 695 0 l 1
 421 0 l 1xe8
EndSplineSet
EndChar
StartChar: at
Encoding: 34 64 36
Width: 2079
Flags: W
HStem: -431 200<943.615 1312.4> -3 241<850.156 1011.3> 849 235<925.346 1077.68> 1279 214<944.985 1244.57>
VStem: 111 221<305.675 751.5> 502 239<358.3 569.989> 1737 219<577.778 885>
Fore
1161 121 m 1
 1090 38 987 -3 854 -3 c 0
 746 -3 659 44 594 138 c 0
 533 225 502 332 502 461 c 0
 502 599 540 726 615 842 c 0
 684 948 770 1020 872 1058 c 0
 917 1075 964 1084 1011 1084 c 0
 1107 1084 1182 1057 1236 1002 c 0
 1252 986 1265 968 1274 949 c 0
 1275 945 1277 941 1278 938 c 1
 1312 1079 l 1
 1526 1079 l 1
 1380 379 l 1
 1352 285 l 1
 1353 268 l 1
 1356 258 1362 248 1372 238 c 0
 1386 225 1403 219 1422 219 c 0
 1505 219 1577 268 1640 367 c 0
 1693 450 1725 543 1737 647 c 1
 1740 711 l 1
 1740 714 1740 714 1740 716 c 0
 1737 885 1672 1020 1546 1122 c 0
 1430 1217 1281 1269 1100 1279 c 0
 1097 1279 1097 1279 1093 1279 c 2
 1015 1279 l 1
 828 1268 675 1194 555 1056 c 0
 552 1053 550 1051 548 1048 c 0
 404 877 332 690 332 485 c 0
 332 292 386 132 494 7 c 0
 518 -21 544 -46 572 -68 c 0
 678 -151 804 -202 950 -221 c 0
 1001 -228 1058 -231 1120 -231 c 0
 1268 -231 1385 -213 1471 -177 c 0
 1546 -146 1631 -87 1727 0 c 0
 1737 9 1737 9 1748 19 c 1
 2005 19 l 1
 1941 -113 1835 -219 1686 -300 c 0
 1525 -387 1337 -431 1123 -431 c 0
 831 -431 596 -361 418 -222 c 0
 258 -97 161 68 126 273 c 0
 116 334 111 399 111 469 c 0
 111 705 171 911 291 1087 c 0
 424 1280 604 1405 831 1462 c 0
 916 1483 1007 1493 1102 1493 c 0
 1308 1493 1487 1441 1638 1336 c 0
 1713 1283 1776 1220 1827 1147 c 0
 1913 1022 1956 877 1956 713 c 0
 1956 574 1919 438 1844 305 c 0
 1773 178 1683 86 1576 27 c 0
 1504 -13 1430 -33 1354 -33 c 0
 1308 -33 1271 -26 1242 -12 c 0
 1214 2 1193 22 1180 48 c 0
 1170 67 1164 91 1161 121 c 1
906 238 m 0
 987 238 1055 279 1110 361 c 0
 1153 426 1178 500 1186 583 c 1
 1188 643 l 1
 1186 738 1155 801 1094 831 c 0
 1071 843 1044 849 1013 849 c 0
 926 849 856 801 802 704 c 0
 786 675 772 642 761 607 c 0
 748 564 741 520 741 474 c 0
 741 385 763 319 807 276 c 0
 834 251 867 238 906 238 c 0
EndSplineSet
EndChar
StartChar: A
Encoding: 35 65 37
Width: 1366
Flags: W
HStem: 0 21G<-2 273 1079 1368> 433 240<505 833> 1430 20G<559 768>
Fore
559 1450 m 1
 768 1450 l 1
 1368 0 l 1
 1079 0 l 1
 878 433 l 1
 462 433 l 1
 273 0 l 1
 -2 0 l 1
 559 1450 l 1
833 673 m 1
 659 1109 l 1
 505 673 l 1
 833 673 l 1
EndSplineSet
KernsSLIFO: 93 -37 0 0 91 -37 0 0 90 -37 0 0 61 -152 0 0 59 -76 0 0 58 -152 0 0 56 -152 0 0
EndChar
StartChar: B
Encoding: 36 66 38
Width: 1366
Flags: W
HStem: 0 220<384 864.776> 629 213<384 769.92> 1231 219<384 833.906>
VStem: 164 220<220 629 842 1231> 955 231<972.002 1149.6> 1016 241<336.361 510.7>
Fore
164 0 m 1xf4
 164 633 l 1
 164 1450 l 1
 700 1450 l 2
 812 1450 902 1435 970 1406 c 0
 1049 1371 1107 1317 1146 1243 c 0
 1173 1192 1186 1138 1186 1079 c 0xf8
 1186 934 1135 834 1032 778 c 0
 1028 776 1024 774 1021 772 c 1
 1178 726 1257 609 1257 421 c 0
 1257 326 1229 240 1172 164 c 0
 1125 101 1056 56 966 29 c 0
 959 28 953 26 946 24 c 0
 881 8 802 0 709 0 c 2
 164 0 l 1xf4
384 842 m 1
 661 842 l 2
 752 842 819 852 862 871 c 0
 871 875 877 879 882 884 c 0
 913 913 934 943 944 972 c 0
 951 995 955 1023 955 1056 c 0
 954 1128 930 1177 882 1204 c 0
 849 1222 768 1231 637 1231 c 2
 384 1231 l 1
 384 842 l 1
384 220 m 1
 709 220 l 2
 822 220 899 232 939 257 c 0
 953 267 l 0
 983 292 1002 321 1010 355 c 0
 1014 374 1016 396 1016 421 c 0xf4
 1016 490 1000 538 968 567 c 1
 953 579 l 1
 912 608 853 624 776 627 c 1
 683 629 l 1
 384 629 l 1
 384 220 l 1
EndSplineSet
EndChar
StartChar: C
Encoding: 37 67 39
Width: 1479
Flags: W
HStem: -10 220<725.275 916.7> 1257 220<664.939 902.554>
VStem: 102 238<553.6 934.5>
Fore
1168 480 m 1
 1398 480 l 1
 1344 269 1237 126 1077 49 c 0
 994 10 898 -10 791 -10 c 0
 561 -10 385 67 262 221 c 0
 158 352 105 522 102 731 c 0
 102 745 l 0
 102 944 156 1110 264 1241 c 0
 368 1368 506 1444 679 1469 c 0
 716 1474 755 1477 794 1477 c 0
 994 1477 1149 1409 1259 1274 c 1
 1294 1226 l 1
 1328 1174 1354 1115 1373 1050 c 1
 1143 1050 l 1
 1116 1134 1058 1193 968 1228 c 0
 917 1247 857 1257 790 1257 c 0
 643 1257 529 1205 448 1101 c 0
 376 1009 340 891 340 746 c 0
 340 598 380 474 459 373 c 0
 533 280 626 226 739 213 c 0
 755 211 771 210 788 210 c 0
 887 210 975 239 1051 296 c 0
 1120 348 1159 409 1168 480 c 1
EndSplineSet
EndChar
StartChar: D
Encoding: 38 68 40
Width: 1479
Flags: W
HStem: 0 213<390 864.8> 1237 213<390 787>
VStem: 168 222<213 1237> 1143 237<530.6 812.946>
Fore
168 0 m 1
 168 1450 l 1
 673 1450 l 2
 999 1450 1211 1340 1310 1120 c 0
 1357 1017 1380 888 1380 733 c 0
 1380 410 1277 193 1071 82 c 0
 970 27 845 0 697 0 c 2
 168 0 l 1
390 213 m 1
 675 213 l 2
 821 213 936 262 1021 359 c 0
 1102 452 1142 578 1143 736 c 1
 1139 816 l 1
 1122 999 1044 1124 906 1189 c 0
 839 1221 760 1237 670 1237 c 2
 390 1237 l 1
 390 213 l 1
EndSplineSet
EndChar
StartChar: E
Encoding: 39 69 41
Width: 1366
Flags: W
HStem: 0 229<401 1222> 621 230<401 1021> 1218 232<401 1222>
VStem: 162 239<229 621 851 1218>
Fore
162 0 m 1
 162 1450 l 1
 1222 1450 l 1
 1222 1218 l 1
 401 1218 l 1
 401 851 l 1
 1021 851 l 1
 1021 621 l 1
 401 621 l 1
 401 229 l 1
 1222 229 l 1
 1222 0 l 1
 162 0 l 1
EndSplineSet
EndChar
StartChar: F
Encoding: 40 70 42
Width: 1251
Flags: W
HStem: 0 21G<167 406> 621 230<406 1008> 1218 232<406 1158>
VStem: 167 239<0 621 851 1218>
Fore
167 0 m 1
 167 1450 l 1
 1158 1450 l 1
 1158 1218 l 1
 406 1218 l 1
 406 851 l 1
 1008 851 l 1
 1008 621 l 1
 406 621 l 1
 406 0 l 1
 167 0 l 1
EndSplineSet
KernsSLIFO: 37 -113 0 0 18 -227 0 0 16 -227 0 0
EndChar
StartChar: G
Encoding: 41 71 43
Width: 1479
Flags: W
HStem: -10 220<617.7 903.7> 464 220<905 1164> 1236 241<736.253 929.1>
VStem: 102 237<548.397 887.822>
Fore
1404 684 m 1
 1405 671 1405 657 1405 644 c 1
 1404 546 l 1
 1383 175 1179 -10 791 -10 c 0
 779 -10 767 -10 756 -9 c 0
 538 -1 371 80 254 233 c 0
 153 367 102 538 102 745 c 0
 102 785 104 824 109 862 c 0
 132 1045 202 1191 320 1302 c 0
 445 1419 603 1477 794 1477 c 0
 910 1477 1012 1454 1099 1407 c 0
 1234 1335 1325 1216 1373 1050 c 1
 1115 1050 l 1
 1106 1074 1093 1097 1076 1118 c 1
 1049 1146 l 1
 983 1206 897 1236 790 1236 c 0
 776 1236 762 1235 748 1234 c 0
 635 1224 541 1177 465 1093 c 0
 381 1001 339 885 339 746 c 0
 339 733 339 720 340 707 c 0
 347 568 390 452 467 360 c 0
 550 260 657 210 788 210 c 0
 877 210 955 226 1021 259 c 0
 1100 299 1147 354 1160 425 c 1
 1164 464 l 1
 905 464 l 1
 905 684 l 1
 1404 684 l 1
EndSplineSet
EndChar
StartChar: H
Encoding: 42 72 44
Width: 1479
Flags: W
HStem: 0 21G<164 404 1074 1314> 619 244<404 1074> 1430 20G<164 404 1074 1314>
VStem: 164 240<0 619 863 1450> 1074 240<0 619 863 1450>
Fore
164 0 m 1
 164 1450 l 1
 404 1450 l 1
 404 863 l 1
 1074 863 l 1
 1074 1450 l 1
 1314 1450 l 1
 1314 0 l 1
 1074 0 l 1
 1074 619 l 1
 404 619 l 1
 404 0 l 1
 164 0 l 1
EndSplineSet
EndChar
StartChar: I
Encoding: 43 73 45
Width: 650
Flags: W
HStem: 0 210<25 205 445 625> 1250 200<25 205 445 625>
VStem: 205 240<210 1250>
Fore
625 210 m 1
 625 0 l 1
 25 0 l 1
 25 210 l 1
 205 210 l 1
 205 1250 l 1
 25 1250 l 1
 25 1450 l 1
 625 1450 l 1
 625 1250 l 1
 445 1250 l 1
 445 210 l 1
 625 210 l 1
EndSplineSet
EndChar
StartChar: J
Encoding: 44 74 46
Width: 1024
Flags: W
HStem: -10 225<414.622 547.3> 1235 215<408 645>
VStem: 64 237<330.85 455> 645 220<374.452 1235>
Fore
865 1450 m 1
 865 456 l 2
 865 329 846 233 809 168 c 0
 801 155 792 142 783 129 c 0
 712 36 605 -10 463 -10 c 0
 335 -10 238 24 173 92 c 0
 118 149 84 237 70 358 c 0
 66 390 64 422 64 455 c 1
 301 455 l 1
 305 352 333 280 386 241 c 0
 410 224 437 215 468 215 c 0
 529 215 576 245 609 306 c 0
 633 351 645 406 645 471 c 2
 645 1235 l 1
 408 1235 l 1
 408 1450 l 1
 865 1450 l 1
EndSplineSet
EndChar
StartChar: K
Encoding: 45 75 47
Width: 1366
Flags: W
HStem: 0 21G<150 376> 1430 20G<150 376 1022 1316>
VStem: 150 226<0 499 825 1450>
Fore
150 0 m 1
 150 1450 l 1
 376 1450 l 1
 376 825 l 1
 1022 1450 l 1
 1316 1450 l 1
 659 806 l 1
 1346 0 l 1
 1053 -1 l 1
 479 610 l 1
 376 499 l 1
 376 0 l 1
 150 0 l 1
EndSplineSet
EndChar
StartChar: L
Encoding: 46 76 48
Width: 1139
Flags: W
HStem: 0 219<380 1060> 1430 20G<150 380>
VStem: 150 230<219 1450>
Fore
150 0 m 1
 150 1450 l 1
 380 1450 l 1
 380 219 l 1
 1060 219 l 1
 1060 0 l 1
 150 0 l 1
EndSplineSet
KernsSLIFO: 93 -76 0 0 61 -152 0 0 59 -152 0 0 58 -152 0 0 56 -152 0 0
EndChar
StartChar: M
Encoding: 47 77 49
Width: 1706
Flags: W
HStem: 0 21G<152 372 676 1026 1330 1550> 1430 20G<152 360 1340 1550>
VStem: 152 220<0 762> 1330 220<0 762>
Fore
152 0 m 1
 152 1450 l 1
 360 1450 l 1
 851 202 l 1
 1340 1450 l 1
 1550 1450 l 1
 1550 0 l 1
 1330 0 l 1
 1330 762 l 1
 1026 0 l 1
 676 0 l 1
 372 762 l 1
 372 0 l 1
 152 0 l 1
EndSplineSet
EndChar
StartChar: N
Encoding: 48 78 50
Width: 1479
Flags: W
HStem: 0 21G<156 395 1071 1311> 1430 20G<156 395 1071 1311>
VStem: 156 239<0 975> 1071 240<471 1450>
Fore
156 0 m 1
 156 1450 l 1
 395 1450 l 1
 1071 471 l 1
 1071 1450 l 1
 1311 1450 l 1
 1311 0 l 1
 1071 0 l 1
 395 975 l 1
 395 0 l 1
 156 0 l 1
EndSplineSet
EndChar
StartChar: O
Encoding: 49 79 51
Width: 1593
Flags: W
HStem: -8 228<636.2 970.899> 1246 232<521.5 962.9>
VStem: 104 246<576.119 861.888> 1252 243<564.6 941.209>
Fore
104 714 m 0
 104 955 168 1144 295 1280 c 0
 418 1410 586 1476 801 1478 c 1
 1006 1478 1170 1415 1294 1290 c 0
 1417 1166 1484 999 1495 788 c 0
 1496 769 1496 750 1496 731 c 0
 1496 522 1441 351 1332 218 c 0
 1219 82 1063 7 866 -8 c 0
 844 -9 822 -10 800 -10 c 0
 610 -10 453 46 328 159 c 0
 205 269 133 416 111 601 c 0
 106 638 104 675 104 714 c 0
350 712 m 0
 350 541 398 412 495 325 c 0
 572 255 674 220 800 220 c 0
 975 220 1100 284 1177 413 c 0
 1227 497 1252 603 1252 731 c 0
 1252 914 1202 1051 1103 1142 c 0
 1026 1211 926 1246 803 1246 c 0
 578 1246 436 1145 378 942 c 0
 359 875 350 799 350 712 c 0
EndSplineSet
EndChar
StartChar: P
Encoding: 50 80 52
Width: 1366
Flags: W
HStem: 0 21G<158 402> 580 212<402 881.075> 1236 214<402 825.711>
VStem: 158 244<0 580 792 1236> 1023 254<943.112 1135.7>
Fore
158 0 m 1
 158 1450 l 1
 711 1450 l 2
 956 1450 1121 1395 1204 1285 c 0
 1221 1263 1234 1239 1245 1212 c 0
 1266 1160 1277 1098 1277 1026 c 0
 1277 799 1168 658 950 604 c 0
 885 588 811 580 728 580 c 2
 402 580 l 1
 402 0 l 1
 158 0 l 1
402 792 m 1
 677 792 l 2
 843 792 948 828 993 900 c 0
 1013 931 1023 971 1023 1020 c 0
 1023 1109 985 1170 909 1202 c 0
 855 1225 776 1236 673 1236 c 2
 402 1236 l 1
 402 792 l 1
EndSplineSet
KernsSLIFO: 37 -152 0 0 18 -264 0 0 16 -264 0 0
EndChar
StartChar: Q
Encoding: 51 81 53
Width: 1659
Flags: W
HStem: -14 189<1341.67 1446.99> -10 174<734.308 923.444> 298 205<865.392 980.3> 1251 227<521.5 967.1>
VStem: 104 233<576.119 857.87> 1262 234<523.5 826.977>
Fore
1167 392 m 1x3c
 1224 461 1256 564 1262 699 c 0
 1262 717 1262 717 1262 736 c 0
 1262 919 1211 1055 1110 1146 c 0
 1032 1216 929 1251 802 1251 c 0
 571 1251 426 1150 367 947 c 0
 347 881 337 804 337 717 c 0
 337 541 390 409 497 322 c 0
 516 306 537 292 560 280 c 1
 580 355 627 413 701 454 c 0
 738 475 777 489 820 496 c 0
 845 501 869 503 894 503 c 0
 984 503 1063 477 1130 425 c 1
 1144 415 1156 404 1167 392 c 1x3c
1317 204 m 1
 1334 185 1359 176 1392 175 c 0
 1406 175 1420 177 1435 181 c 0
 1474 190 1506 206 1533 228 c 1
 1659 90 l 1
 1585 21 1498 -14 1399 -14 c 0xbc
 1320 -14 1252 7 1195 50 c 0
 1180 62 1167 75 1156 88 c 1
 1077 36 993 5 904 -5 c 0
 873 -8 839 -10 800 -10 c 0x7c
 610 -10 453 46 328 159 c 0
 205 269 133 416 111 601 c 0
 106 638 104 675 104 714 c 0
 104 955 168 1144 295 1280 c 0
 418 1410 586 1476 801 1478 c 1
 1003 1478 1166 1416 1290 1292 c 0
 1411 1171 1479 1009 1493 806 c 0
 1495 781 1496 756 1496 731 c 0
 1496 474 1436 299 1317 204 c 1
1050 226 m 1
 1010 273 965 297 914 298 c 0
 902 298 889 297 876 294 c 0
 806 281 760 241 738 174 c 1
 762 167 790 164 821 164 c 0x7c
 894 164 959 178 1017 206 c 0
 1030 213 1041 219 1050 226 c 1
EndSplineSet
EndChar
StartChar: R
Encoding: 52 82 54
Width: 1400
Flags: W
HStem: 0 21G<158 384 1072 1387> 580 206<384 663> 1239 211<384 807.555>
VStem: 158 226<0 580 786 1239> 1011 266<939.585 1147.4>
Fore
663 580 m 1
 384 580 l 1
 384 0 l 1
 158 0 l 1
 158 1450 l 1
 711 1450 l 2
 970 1450 1139 1387 1218 1262 c 0
 1257 1201 1277 1122 1277 1026 c 0
 1277 879 1228 766 1130 687 c 0
 1074 642 1005 611 924 596 c 1
 1387 0 l 1
 1072 0 l 1
 663 580 l 1
384 786 m 1
 665 786 l 2
 839 786 947 828 989 912 c 0
 1004 942 1011 978 1011 1020 c 0
 1011 1118 965 1182 872 1213 c 0
 820 1230 750 1239 661 1239 c 2
 384 1239 l 1
 384 786 l 1
EndSplineSet
KernsSLIFO: 61 -37 0 0 59 -37 0 0 58 -37 0 0 56 -37 0 0
EndChar
StartChar: S
Encoding: 53 83 55
Width: 1366
Flags: W
HStem: -10 224<593.674 857.5> 1250 221<527.7 714.23>
VStem: 1022 237<353.2 484.5>
Fore
92 502 m 1
 325 502 l 1
 340 385 397 302 497 255 c 0
 555 228 625 214 708 214 c 0
 823 214 910 241 968 295 c 0
 1004 328 1022 367 1022 413 c 0
 1021 468 1000 510 957 539 c 0
 941 550 921 561 896 572 c 0
 846 593 747 625 598 667 c 0
 455 708 359 742 310 771 c 0
 219 825 166 906 152 1013 c 0
 149 1030 148 1048 148 1067 c 0
 148 1195 200 1296 304 1370 c 0
 399 1437 519 1471 664 1471 c 0
 912 1471 1079 1379 1164 1195 c 0
 1188 1143 1205 1084 1215 1019 c 1
 981 1019 l 1
 953 1163 861 1240 705 1249 c 0
 694 1250 683 1250 672 1250 c 0
 561 1250 480 1226 429 1179 c 1
 409 1157 l 1
 393 1134 385 1109 385 1080 c 0
 386 1033 404 997 439 971 c 0
 452 962 468 953 489 943 c 0
 530 923 658 881 873 816 c 0
 945 795 990 780 1009 773 c 0
 1120 730 1194 669 1229 590 c 0
 1249 545 1259 491 1259 429 c 0
 1259 302 1209 198 1109 116 c 0
 1016 40 898 -2 755 -9 c 0
 742 -10 730 -10 717 -10 c 0
 474 -10 300 56 195 188 c 0
 130 270 95 375 92 502 c 1
EndSplineSet
EndChar
StartChar: T
Encoding: 54 84 56
Width: 1251
Flags: W
HStem: 0 21G<508 748> 1231 219<48 508 748 1210>
VStem: 508 240<0 1231>
Fore
508 0 m 1
 508 1231 l 1
 48 1231 l 1
 48 1450 l 1
 1210 1450 l 1
 1210 1231 l 1
 748 1231 l 1
 748 0 l 1
 508 0 l 1
EndSplineSet
KernsSLIFO: 93 -113 0 0 91 -113 0 0 89 -76 0 0 87 -227 0 0 86 -76 0 0 83 -227 0 0 77 -76 0 0 73 -227 0 0 71 -227 0 0 69 -227 0 0 51 -37 0 0 37 -152 0 0 31 -227 0 0 30 -227 0 0 18 -227 0 0 17 -113 0 0 16 -227 0 0
EndChar
StartChar: U
Encoding: 55 85 57
Width: 1479
Flags: W
HStem: -10 250<633 911.2> 1430 20G<161 411 1065 1314>
VStem: 161 250<419.59 1450> 1065 249<491.79 1450>
Fore
1065 1450 m 1
 1314 1450 l 1
 1314 567 l 2
 1314 182 1123 -10 741 -10 c 0
 437 -10 253 107 188 341 c 0
 170 406 161 482 161 567 c 2
 161 1450 l 1
 411 1450 l 1
 411 568 l 2
 411 442 453 351 537 294 c 0
 590 258 657 240 737 240 c 0
 871 240 965 286 1020 379 c 0
 1050 430 1065 493 1065 568 c 2
 1065 1450 l 1
EndSplineSet
EndChar
StartChar: V
Encoding: 56 86 58
Width: 1366
Flags: W
HStem: 0 21G<577 776> 1430 20G<9 344 1023 1350>
Fore
577 0 m 1
 9 1450 l 1
 344 1450 l 1
 677 471 l 1
 1023 1450 l 1
 1350 1450 l 1
 776 0 l 1
 577 0 l 1
EndSplineSet
KernsSLIFO: 93 -76 0 0 89 -76 0 0 86 -76 0 0 83 -113 0 0 77 -37 0 0 73 -113 0 0 69 -152 0 0 37 -152 0 0 31 -76 0 0 30 -76 0 0 18 -188 0 0 17 -113 0 0 16 -188 0 0
EndChar
StartChar: W
Encoding: 57 87 59
Width: 1933
Flags: W
HStem: 0 21G<366 618 1299 1566> 1430 20G<25 279 822 1092 1626 1897>
Fore
366 0 m 1
 25 1450 l 1
 279 1450 l 1
 513 519 l 1
 822 1450 l 1
 1092 1450 l 1
 1409 519 l 1
 1626 1450 l 1
 1897 1450 l 1
 1566 0 l 1
 1299 0 l 1
 961 999 l 1
 618 0 l 1
 366 0 l 1
EndSplineSet
KernsSLIFO: 93 -18 0 0 89 -37 0 0 86 -37 0 0 83 -37 0 0 73 -37 0 0 69 -76 0 0 37 -76 0 0 31 -37 0 0 30 -37 0 0 18 -113 0 0 17 -37 0 0 16 -113 0 0
EndChar
StartChar: X
Encoding: 58 88 60
Width: 1366
Flags: W
HStem: 0 21G<9 319 1043 1353> 1430 20G<76 386 1003 1313>
Fore
9 0 m 1
 494 756 l 1
 76 1450 l 1
 386 1450 l 1
 681 972 l 1
 1003 1450 l 1
 1313 1450 l 1
 868 756 l 1
 1353 0 l 1
 1043 0 l 1
 681 544 l 1
 319 0 l 1
 9 0 l 1
EndSplineSet
EndChar
StartChar: Y
Encoding: 59 89 61
Width: 1366
Flags: W
HStem: 0 21G<526 810> 1431 20G<6 326 1030 1350>
VStem: 526 284<0 621>
Fore
526 0 m 1
 526 621 l 1
 6 1451 l 1
 326 1451 l 1
 668 887 l 1
 1030 1451 l 1
 1350 1451 l 1
 810 621 l 1
 810 0 l 1
 526 0 l 1
EndSplineSet
KernsSLIFO: 90 -113 0 0 89 -113 0 0 85 -188 0 0 84 -152 0 0 83 -188 0 0 77 -76 0 0 73 -188 0 0 69 -152 0 0 37 -152 0 0 31 -133 0 0 30 -113 0 0 18 -264 0 0 17 -188 0 0 16 -264 0 0
EndChar
StartChar: Z
Encoding: 60 90 62
Width: 1251
Flags: W
HStem: 0 230<375 1200> 1220 230<45 885>
Fore
41 0 m 1
 41 237 l 1
 885 1220 l 1
 45 1220 l 1
 45 1450 l 1
 1213 1450 l 1
 1213 1220 l 1
 375 230 l 1
 1200 230 l 1
 1200 0 l 1
 41 0 l 1
EndSplineSet
EndChar
StartChar: bracketleft
Encoding: 61 91 63
Width: 569
Flags: W
HStem: -407 188<359 536> 1278 188<359 536>
VStem: 139 220<-219 1278> 139 397<-407 -219 1278 1466>
Fore
139 -407 m 1xd0
 139 1466 l 1
 536 1466 l 1
 536 1278 l 1xd0
 359 1278 l 1
 359 -219 l 1xe0
 536 -219 l 1
 536 -407 l 1
 139 -407 l 1xd0
EndSplineSet
EndChar
StartChar: backslash
Encoding: 62 92 64
Width: 569
Flags: W
VStem: -39 648<-25 1491>
Fore
386 -25 m 1
 -39 1491 l 1
 185 1491 l 1
 609 -25 l 1
 386 -25 l 1
EndSplineSet
EndChar
StartChar: bracketright
Encoding: 63 93 65
Width: 569
Flags: W
HStem: -407 188<39 218> 1277 189<39 218>
VStem: 39 397<-407 -219 1277 1466> 218 218<-219 1277>
Fore
436 -407 m 1xe0
 39 -407 l 1
 39 -219 l 1xe0
 218 -219 l 1
 218 1277 l 1xd0
 39 1277 l 1
 39 1466 l 1
 436 1466 l 1
 436 -407 l 1xe0
EndSplineSet
EndChar
StartChar: asciicircum
Encoding: 64 94 66
Width: 961
Flags: W
HStem: 690 801<288 387>
VStem: 54 853<690 690>
Fore
288 690 m 1
 54 690 l 1
 387 1491 l 1
 572 1491 l 1
 907 690 l 1
 676 690 l 1
 479 1209 l 1
 288 690 l 1
EndSplineSet
EndChar
StartChar: underscore
Encoding: 65 95 67
Width: 1139
Flags: W
HStem: -427 190<-31 1162>
Fore
-31 -427 m 1
 -31 -237 l 1
 1162 -237 l 1
 1162 -427 l 1
 -31 -427 l 1
EndSplineSet
EndChar
StartChar: grave
Encoding: 66 96 68
Width: 682
Flags: W
HStem: 1454 20G<60 360>
VStem: 60 435<1194 1474>
Fore
495 1194 m 1
 291 1194 l 1
 60 1474 l 1
 360 1474 l 1
 495 1194 l 1
EndSplineSet
EndChar
StartChar: a
Encoding: 67 97 69
Width: 1139
Flags: W
HStem: -24 179<407.781 566.716> 876 210<457.9 645.119>
VStem: 74 228<213.6 342.473> 776 219<325.938 487 674 740.56>
Fore
792 96 m 1
 719 35 639 -3 551 -16 c 0
 518 -21 480 -24 437 -24 c 0
 320 -24 231 5 168 62 c 0
 105 119 74 191 74 280 c 0
 74 424 152 522 308 573 c 0
 359 590 421 603 492 612 c 0
 600 625 695 645 776 674 c 1
 774 721 l 1
 764 804 715 854 626 870 c 0
 605 874 583 876 558 876 c 0
 481 876 419 855 372 814 c 0
 346 791 328 762 318 729 c 1
 105 759 l 1
 140 926 240 1028 403 1067 c 0
 456 1080 516 1086 584 1086 c 0
 768 1086 889 1039 948 946 c 1
 968 908 l 1
 975 891 981 872 986 851 c 0
 992 820 995 765 995 685 c 2
 995 445 l 2
 995 278 999 172 1006 128 c 0
 1014 83 1029 41 1052 0 c 1
 814 0 l 1
 803 31 795 63 792 96 c 1
775 487 m 1
 718 466 634 448 521 433 c 0
 428 420 367 401 338 376 c 0
 314 355 302 326 302 289 c 0
 302 231 333 191 394 170 c 0
 421 160 452 155 487 155 c 0
 583 155 658 183 713 240 c 0
 728 255 740 272 750 291 c 0
 767 323 775 371 775 434 c 2
 775 487 l 1
EndSplineSet
EndChar
StartChar: b
Encoding: 68 98 70
Width: 1139
Flags: W
HStem: -10 208<505.3 715.9> 870 216<491.9 614.633> 1446 20G<134 358>
VStem: 134 224<990 1466> 134 211<0 84 372.9 648.5> 848 207<423.506 705.2>
Fore
345 0 m 1xec
 134 0 l 1xec
 134 1466 l 1
 358 1466 l 1
 358 990 l 1xf4
 436 1054 518 1086 605 1086 c 0
 747 1086 859 1033 942 926 c 1
 972 881 l 1
 1027 789 1055 678 1055 547 c 0
 1055 374 1012 237 927 136 c 0
 845 39 735 -10 596 -10 c 0
 506 -10 430 15 367 66 c 0
 360 71 352 77 345 84 c 1
 345 0 l 1xec
346 538 m 0
 346 411 376 317 435 257 c 0
 474 218 523 198 582 198 c 0
 685 199 760 244 806 333 c 0
 834 387 848 453 848 531 c 0
 848 665 813 761 743 819 c 0
 718 840 688 854 655 863 c 1
 609 869 l 2
 603 870 596 870 589 870 c 0
 513 870 452 833 405 759 c 0
 366 696 346 623 346 538 c 0
EndSplineSet
EndChar
StartChar: c
Encoding: 69 99 71
Width: 1024
Flags: W
HStem: -10 210<466.1 677.496> 879 207<434.5 643.36>
VStem: 80 225<387.7 589.586> 788 217<332.599 403 696 775.3>
Fore
788 403 m 1
 1005 403 l 1
 1000 244 942 130 832 59 c 0
 789 31 738 12 681 1 c 0
 644 -6 605 -10 563 -10 c 0
 420 -10 305 38 216 135 c 0
 127 232 82 360 80 518 c 0
 80 523 80 523 80 527 c 0
 80 719 131 864 232 963 c 0
 315 1045 426 1086 564 1086 c 0
 701 1086 810 1046 892 967 c 0
 966 896 1003 805 1003 696 c 1
 788 696 l 1
 787 757 758 806 701 842 c 0
 662 867 618 879 571 879 c 0
 466 879 391 831 345 734 c 0
 324 689 311 637 307 577 c 0
 306 562 305 547 305 532 c 0
 305 421 332 336 385 275 c 0
 429 225 488 200 561 200 c 0
 660 200 727 232 763 297 c 0
 779 326 787 362 788 403 c 1
EndSplineSet
EndChar
StartChar: d
Encoding: 70 100 72
Width: 1139
Flags: W
HStem: -10 208<407.1 617.7> 870 216<454.7 631.1> 1446 20G<765 989>
VStem: 68 207<423.506 705.2> 765 224<990 1466> 778 211<0 84 372.9 648.5>
Fore
778 84 m 1xf4
 771 77 763 71 756 66 c 0
 693 15 617 -10 527 -10 c 0
 388 -10 278 39 196 136 c 0
 111 237 68 374 68 547 c 0
 68 702 106 828 181 926 c 0
 264 1033 376 1086 518 1086 c 0
 605 1086 687 1054 765 990 c 1
 765 1466 l 1
 989 1466 l 1xf8
 989 0 l 1
 778 0 l 1
 778 84 l 1xf4
777 538 m 0
 777 623 757 696 718 759 c 0
 671 833 610 870 534 870 c 0
 473 870 421 853 380 819 c 0
 310 761 275 665 275 531 c 0
 275 453 289 387 317 333 c 0
 363 244 438 199 541 198 c 0
 600 198 649 218 688 257 c 0
 747 317 777 411 777 538 c 0
EndSplineSet
EndChar
StartChar: e
Encoding: 71 101 73
Width: 1139
Flags: W
HStem: -10 214<498.8 705.5> 485 190<318 816> 875 211<460.2 615.53>
VStem: 75 243<522 691.656>
Fore
807 333 m 1
 1048 333 l 1
 1023 206 957 113 850 53 c 0
 775 11 685 -10 581 -10 c 0
 388 -10 249 55 163 185 c 0
 104 272 75 385 75 522 c 0
 75 707 124 850 222 951 c 0
 309 1041 426 1086 571 1086 c 0
 731 1086 855 1029 942 916 c 0
 1017 819 1054 693 1055 539 c 0
 1055 521 1054 503 1053 485 c 1
 312 485 l 1
 319 386 355 311 418 260 c 0
 463 223 518 204 582 204 c 0
 677 204 744 232 784 287 c 0
 795 302 802 317 807 333 c 1
318 675 m 1
 816 675 l 1
 803 797 733 863 606 874 c 0
 595 875 584 875 572 875 c 0
 486 875 419 849 371 797 c 1
 349 769 l 1
 333 744 323 717 319 688 c 0
 318 684 318 680 318 675 c 1
EndSplineSet
EndChar
StartChar: f
Encoding: 72 102 74
Width: 569
Flags: W
HStem: 0 21G<153 380> 757 198<19 153 380 536> 1304 211<462 578.218>
VStem: 153 227<0 757 955 1215>
Fore
153 0 m 1
 153 757 l 1
 19 757 l 1
 19 955 l 1
 153 955 l 1
 153 1175 l 2
 153 1318 201 1418 297 1474 c 0
 344 1501 399 1515 462 1515 c 0
 529 1515 589 1506 640 1488 c 1
 640 1277 l 1
 589 1294 555 1303 536 1304 c 0
 524 1304 l 0
 501 1305 481 1302 464 1295 c 0
 408 1273 380 1215 380 1121 c 2
 380 955 l 1
 536 955 l 1
 536 757 l 1
 380 757 l 1
 380 0 l 1
 153 0 l 1
EndSplineSet
KernsSLIFO: 74 -37 0 0
EndChar
StartChar: g
Encoding: 73 103 75
Width: 1139
Flags: W
HStem: -435 219<439.1 697> 0 247<345 658.9> 839 247<414.5 610.617>
VStem: 66 249<335.5 649.937> 773 229<-96.5469 75> 836 166<974 1062>
Fore
102 -74 m 1xf4
 315 -74 l 1
 315 -109 332 -141 367 -169 c 0
 406 -200 458 -216 521 -216 c 0
 678 -216 762 -139 773 16 c 1xf8
 774 75 l 1
 711 25 628 0 525 0 c 0
 380 0 265 53 182 159 c 0
 105 256 66 382 66 537 c 0
 66 702 107 834 190 934 c 0
 273 1035 385 1086 526 1086 c 0
 667 1086 770 1049 836 974 c 1
 836 1062 l 1
 1002 1062 l 1
 1002 144 l 2
 1002 -107 950 -274 846 -356 c 0
 786 -404 697 -430 578 -434 c 2
 522 -435 l 2
 349 -435 228 -388 160 -293 c 0
 121 -240 102 -173 102 -92 c 0
 102 -74 l 1xf4
315 546 m 0
 315 347 390 247 540 247 c 0
 685 247 757 345 757 541 c 0
 757 688 715 781 632 820 c 0
 605 833 573 839 538 839 c 0
 443 839 377 794 341 703 c 0
 324 659 315 607 315 546 c 0
EndSplineSet
EndChar
StartChar: h
Encoding: 74 104 76
Width: 1139
Flags: W
HStem: 0 21G<135 365 770 1000> 1446 20G<135 365>
VStem: 135 230<0 601 1008 1466> 770 230<0 757.9>
Fore
135 0 m 1
 135 1466 l 1
 365 1466 l 1
 365 1008 l 1
 416 1066 495 1095 600 1095 c 0
 749 1095 859 1044 928 941 c 0
 976 870 1000 781 1000 673 c 2
 1000 0 l 1
 770 0 l 1
 770 624 l 2
 770 727 741 791 682 817 c 0
 659 827 630 832 596 832 c 0
 519 832 459 794 415 719 c 0
 382 663 365 601 365 532 c 2
 365 0 l 1
 135 0 l 1
EndSplineSet
EndChar
StartChar: i
Encoding: 75 105 77
Width: 455
Flags: W
HStem: 0 21G<106 346> 1042 20G<106 346> 1218 248<111 342>
VStem: 111 231<0 1062 1218 1466>
Fore
111 1218 m 1
 111 1466 l 1
 342 1466 l 1
 342 1218 l 1
 111 1218 l 1
106 0 m 1
 106 1062 l 1
 346 1062 l 1
 346 0 l 1
 106 0 l 1
EndSplineSet
EndChar
StartChar: j
Encoding: 76 106 78
Width: 455
Flags: W
HStem: -428 215<-67.8438 65> 1042 20G<112 340> 1220 246<112 340>
VStem: 112 228<-117.5 1062 1220 1466>
Fore
112 1220 m 1
 112 1466 l 1
 340 1466 l 1
 340 1220 l 1
 112 1220 l 1
-94 -412 m 1
 -94 -205 l 1
 -59 -210 -38 -213 -29 -213 c 0
 30 -213 70 -193 89 -152 c 0
 104 -120 112 -76 112 -20 c 2
 112 1062 l 1
 340 1062 l 1
 340 -58 l 2
 340 -246 289 -362 186 -406 c 0
 151 -421 111 -428 65 -428 c 0
 8 -428 -45 -423 -94 -412 c 1
EndSplineSet
EndChar
StartChar: k
Encoding: 77 107 79
Width: 1024
Flags: W
HStem: 0 21G<136 356 740 1016> 1042 20G<696 975> 1446 20G<136 356>
VStem: 136 220<0 390 684 1466>
Fore
136 0 m 1
 136 1466 l 1
 356 1466 l 1
 356 684 l 1
 696 1062 l 1
 975 1062 l 1
 592 636 l 1
 1016 0 l 1
 740 0 l 1
 443 484 l 1
 356 390 l 1
 356 0 l 1
 136 0 l 1
EndSplineSet
EndChar
StartChar: l
Encoding: 78 108 80
Width: 455
Flags: W
HStem: 0 21G<104 340> 1446 20G<104 340>
VStem: 104 236<0 1466>
Fore
104 0 m 1
 104 1466 l 1
 340 1466 l 1
 340 0 l 1
 104 0 l 1
EndSplineSet
EndChar
StartChar: m
Encoding: 79 109 81
Width: 1706
Flags: W
HStem: 0 21G<135 362 742 986 1356 1574> 842 244<468.5 643.723 1139.37 1329.5>
VStem: 135 227<0 634.78> 742 244<0 682.324> 1356 218<0 815.9>
Fore
135 0 m 1
 135 1062 l 1
 343 1062 l 1
 343 978 l 1
 411 1050 503 1086 618 1086 c 0
 731 1086 818 1057 879 999 c 0
 896 984 909 967 918 948 c 1
 953 1005 1016 1045 1109 1069 c 0
 1154 1080 1199 1086 1246 1086 c 0
 1440 1086 1548 992 1570 803 c 0
 1573 780 1574 755 1574 729 c 2
 1574 0 l 1
 1356 0 l 1
 1356 669 l 1
 1351 782 1301 839 1206 842 c 1
 1078 842 1006 784 989 668 c 0
 987 652 986 635 986 617 c 2
 986 0 l 1
 742 0 l 1
 742 690 l 2
 742 761 711 807 648 830 c 0
 627 838 603 842 578 842 c 0
 457 842 387 773 368 636 c 0
 364 610 362 582 362 551 c 2
 362 0 l 1
 135 0 l 1
EndSplineSet
EndChar
StartChar: n
Encoding: 80 110 82
Width: 1139
Flags: W
HStem: 0 21G<135 368 776 1000> 828 267<495.647 674.201>
VStem: 135 233<0 613.705 1012 1064> 776 224<0 770.9>
Fore
135 0 m 1
 135 1064 l 1
 368 1064 l 1
 368 1012 l 1
 409 1050 453 1074 500 1085 c 0
 529 1092 563 1095 600 1095 c 0
 749 1095 859 1044 928 941 c 0
 976 870 1000 781 1000 673 c 2
 1000 0 l 1
 776 0 l 1
 776 624 l 2
 776 737 736 803 657 822 c 0
 639 826 619 828 596 828 c 0
 501 828 435 786 398 701 c 0
 378 655 368 599 368 532 c 2
 368 0 l 1
 135 0 l 1
EndSplineSet
EndChar
StartChar: o
Encoding: 81 111 83
Width: 1139
Flags: W
HStem: -11 217<483.124 707.7> 864 222<421.7 642.7>
VStem: 68 241<349 643.608> 821 242<417.813 704.3>
Fore
68 531 m 0
 68 722 120 866 224 964 c 0
 310 1045 424 1086 566 1086 c 0
 728 1086 854 1032 944 924 c 0
 1023 828 1063 702 1063 546 c 0
 1063 306 990 143 843 56 c 0
 768 11 675 -11 566 -11 c 0
 377 -11 240 55 155 187 c 0
 97 276 68 391 68 531 c 0
309 529 m 0
 309 372 357 271 453 228 c 0
 486 213 523 206 566 206 c 0
 689 206 768 266 803 387 c 0
 815 430 821 479 821 534 c 0
 821 665 786 759 716 815 c 0
 675 848 625 864 566 864 c 0
 455 864 379 812 338 708 c 0
 319 658 309 598 309 529 c 0
EndSplineSet
EndChar
StartChar: p
Encoding: 82 112 84
Width: 1139
Flags: W
HStem: -10 216<477.9 655.3> 878 208<492.3 702.9>
VStem: 120 224<-390 86> 120 211<427.5 703.1 992 1076> 834 207<370.8 652.494>
Fore
331 992 m 1xd8
 343 1002 343 1002 353 1010 c 0
 416 1061 492 1086 582 1086 c 0
 721 1086 832 1037 913 940 c 0
 998 839 1041 702 1041 529 c 0
 1041 374 1003 248 928 150 c 0
 846 43 734 -10 591 -10 c 0
 504 -10 422 22 344 86 c 1
 344 -390 l 1
 120 -390 l 1xe8
 120 1076 l 1
 331 1076 l 1
 331 992 l 1xd8
332 538 m 0
 332 453 352 380 391 317 c 0
 438 243 499 206 576 206 c 0
 637 206 688 223 729 257 c 0
 799 315 834 411 834 545 c 0
 834 623 820 689 792 743 c 0
 746 832 672 877 569 878 c 0
 510 878 461 858 422 819 c 0
 362 759 332 665 332 538 c 0
EndSplineSet
EndChar
StartChar: q
Encoding: 83 113 85
Width: 1139
Flags: W
HStem: -10 216<473.7 650.1> 878 208<426.1 636.7>
VStem: 87 207<370.8 652.494> 784 224<-390 86> 797 211<427.5 703.1 992 1076>
Fore
797 1076 m 1xe8
 1008 1076 l 1xe8
 1008 -390 l 1
 784 -390 l 1
 784 86 l 1xf0
 706 22 624 -10 537 -10 c 0
 395 -10 283 43 200 150 c 0
 125 248 87 374 87 529 c 0
 87 702 130 839 215 940 c 0
 297 1037 407 1086 546 1086 c 0
 636 1086 712 1061 775 1010 c 0
 782 1005 790 999 797 992 c 1
 797 1076 l 1xe8
796 538 m 0
 796 665 766 759 707 819 c 0
 668 858 619 878 560 878 c 0
 457 877 382 832 336 743 c 0
 308 689 294 623 294 545 c 0
 294 411 329 315 399 257 c 0
 440 223 492 206 553 206 c 0
 629 206 690 243 737 317 c 0
 776 380 796 453 796 538 c 0
EndSplineSet
EndChar
StartChar: r
Encoding: 84 114 86
Width: 682
Flags: W
HStem: 0 21G<133 380> 1042 20G<133 362>
VStem: 133 229<947 1062> 133 247<0 602.494>
Fore
133 0 m 1xd0
 133 1062 l 1
 362 1062 l 1
 362 947 l 1xe0
 383 986 403 1014 424 1030 c 0
 435 1038 448 1045 463 1052 c 0
 470 1055 479 1058 488 1062 c 0
 514 1072 545 1077 580 1077 c 0
 614 1077 643 1070 668 1055 c 2
 710 1028 l 1
 648 789 l 1
 598 823 l 1
 578 828 l 1
 565 828 l 2
 542 828 521 824 501 817 c 0
 486 811 471 803 457 792 c 0
 416 761 391 699 384 604 c 0
 381 572 380 532 380 484 c 2
 380 0 l 1
 133 0 l 1xd0
EndSplineSet
KernsSLIFO: 18 -113 0 0 16 -113 0 0
EndChar
StartChar: s
Encoding: 85 115 87
Width: 1024
Flags: W
HStem: -11 212<426.138 608.3> 875 211<399.5 588.552>
Fore
63 358 m 1
 291 358 l 1
 299 297 332 253 389 226 c 0
 424 209 466 201 516 201 c 0
 587 201 643 219 682 255 c 0
 701 272 710 289 710 306 c 0
 710 356 693 390 659 408 c 0
 639 419 594 430 523 443 c 0
 382 469 283 498 226 531 c 0
 147 576 103 646 95 739 c 0
 94 752 93 766 93 780 c 0
 94 884 138 964 227 1020 c 0
 296 1064 382 1086 484 1086 c 0
 655 1086 775 1042 845 953 c 0
 884 902 904 839 905 764 c 1
 679 764 l 1
 674 817 640 852 577 867 c 0
 555 872 528 875 497 875 c 0
 422 874 370 856 343 821 c 0
 334 810 329 797 329 783 c 0
 329 781 329 781 329 778 c 0
 332 733 352 702 390 685 c 0
 407 677 450 667 517 654 c 0
 652 629 748 601 805 570 c 0
 858 541 896 503 919 456 c 0
 936 419 945 376 945 325 c 0
 945 218 900 133 810 71 c 0
 731 16 634 -11 517 -11 c 0
 340 -11 213 41 136 145 c 0
 93 202 69 273 63 358 c 1
EndSplineSet
EndChar
StartChar: t
Encoding: 86 116 88
Width: 569
Flags: W
HStem: -13 204<411 526.316> 892 196<18 140 372 497>
VStem: 140 232<227.921 892 1088 1433>
Fore
528 199 m 1
 554 2 l 1
 506 -8 458 -13 411 -13 c 0
 331 -13 275 -4 242 15 c 0
 238 17 l 0
 197 44 169 82 156 130 c 0
 145 170 140 230 140 311 c 2
 140 892 l 1
 18 892 l 1
 18 1088 l 1
 140 1088 l 1
 140 1433 l 1
 372 1433 l 1
 372 1088 l 1
 497 1088 l 1
 497 892 l 1
 372 892 l 1
 372 301 l 2
 372 269 375 248 381 238 c 0
 383 234 383 234 384 232 c 0
 390 222 400 213 413 205 c 0
 428 196 448 191 474 191 c 0
 475 191 493 194 528 199 c 1
EndSplineSet
EndChar
StartChar: u
Encoding: 87 117 89
Width: 1139
Flags: W
HStem: -10 253<461.502 632.977> 1065 20G<104 330 726 969>
VStem: 104 226<331 1085> 726 243<390.939 1085>
Fore
969 1085 m 1
 969 0 l 1
 789 0 l 1
 789 64 l 1
 757 29 698 6 612 -5 c 0
 587 -8 562 -10 537 -10 c 0
 368 -10 247 42 175 147 c 0
 128 215 104 303 104 412 c 2
 104 1085 l 1
 330 1085 l 1
 330 461 l 2
 330 361 367 294 442 261 c 0
 469 249 500 243 534 243 c 0
 641 243 704 292 721 390 c 0
 724 410 726 432 726 456 c 2
 726 1085 l 1
 969 1085 l 1
EndSplineSet
EndChar
StartChar: v
Encoding: 88 118 90
Width: 1024
Flags: W
HStem: 0 21G<429 599> 1042 20G<26 268 760 1000>
VStem: 26 974<1062 1062>
Fore
429 0 m 1
 26 1062 l 1
 268 1062 l 1
 520 360 l 1
 760 1062 l 1
 1000 1062 l 1
 599 0 l 1
 429 0 l 1
EndSplineSet
KernsSLIFO: 18 -152 0 0 16 -152 0 0
EndChar
StartChar: w
Encoding: 89 119 91
Width: 1479
Flags: W
HStem: 0 21G<296 544 956 1200> 1042 20G<6 256 648 832 1236 1463>
Fore
296 0 m 1
 6 1062 l 1
 256 1062 l 1
 424 364 l 1
 648 1062 l 1
 832 1062 l 1
 1069 364 l 1
 1236 1062 l 1
 1463 1062 l 1
 1200 0 l 1
 956 0 l 1
 915 149 843 374 740 676 c 1
 544 0 l 1
 296 0 l 1
EndSplineSet
KernsSLIFO: 18 -113 0 0 16 -113 0 0
EndChar
StartChar: x
Encoding: 90 120 92
Width: 1024
Flags: W
HStem: 0 21G<15 284 732 1009> 1042 20G<44 324 700 981>
VStem: 15 994<0 0>
Fore
15 0 m 1
 346 552 l 1
 44 1062 l 1
 324 1062 l 1
 499 744 l 1
 700 1062 l 1
 981 1062 l 1
 657 562 l 1
 1009 0 l 1
 732 0 l 1
 505 369 l 1
 284 0 l 1
 15 0 l 1
EndSplineSet
EndChar
StartChar: y
Encoding: 91 121 93
Width: 1024
Flags: W
HStem: -422 216<159.564 296.712> 1042 20G<33 292 744 1006>
VStem: 33 973<1062 1062>
Fore
127 -409 m 1
 107 -192 l 1
 141 -201 177 -206 214 -206 c 0
 261 -206 299 -198 327 -183 c 1
 387 -153 417 -110 417 -54 c 0
 417 -37 414 -19 408 0 c 1
 33 1062 l 1
 292 1062 l 1
 525 372 l 1
 744 1062 l 1
 1006 1062 l 1
 624 0 l 1
 611 -123 573 -223 511 -302 c 0
 488 -331 458 -355 420 -375 c 0
 367 -402 307 -418 239 -422 c 1
 185 -421 l 1
 164 -419 144 -415 127 -409 c 1
EndSplineSet
KernsSLIFO: 18 -152 0 0 16 -152 0 0
EndChar
StartChar: z
Encoding: 92 122 94
Width: 1024
Flags: W
HStem: 0 212<344 980> 864 198<60 664>
Fore
40 0 m 1
 40 212 l 1
 664 864 l 1
 60 864 l 1
 60 1062 l 1
 948 1062 l 1
 948 864 l 1
 344 212 l 1
 980 212 l 1
 980 0 l 1
 40 0 l 1
EndSplineSet
EndChar
StartChar: braceleft
Encoding: 93 123 95
Width: 684
Flags: W
VStem: 264 220<-127.625 271.056 795.1 1212.14> 277 211.343<1031.07 1270>
Fore
57 612 m 1x80
 108 613 150 627 183 654 c 0
 215 681 236 717 247 762 c 0
 258 808 263 891 264 1011 c 0x80
 265 1131 269 1217 277 1270 c 0x40
 286 1323 304 1366 332 1401 c 0
 360 1436 395 1460 438 1475 c 0
 467 1486 515 1491 580 1491 c 2
 636 1491 l 1
 636 1280 l 1
 605 1280 l 2
 577 1280 559 1278 550 1273 c 1
 528 1254 l 2
 507 1236 494 1205 489 1160 c 0
 486 1135 484 1075 484 981 c 0
 484 838 468 736 437 676 c 0
 415 634 415 634 409 623 c 0
 384 582 351 551 308 530 c 1
 333 519 354 505 370 486 c 1
 411 426 l 1
 443 382 464 323 475 249 c 0
 481 204 484 119 484 -6 c 0
 484 -93 495 -149 518 -174 c 1
 536 -196 l 1
 546 -207 569 -212 605 -212 c 2
 636 -212 l 1
 636 -431 l 1
 580 -431 l 2
 523 -431 481 -427 456 -420 c 0
 419 -409 388 -394 364 -374 c 0
 340 -353 320 -326 303 -292 c 0
 287 -259 276 -214 270 -157 c 0
 267 -121 265 -48 264 63 c 0
 263 174 258 253 247 298 c 0
 236 344 215 380 183 407 c 0
 150 434 108 448 57 449 c 1
 57 612 l 1x80
EndSplineSet
EndChar
StartChar: bar
Encoding: 94 124 96
Width: 532
Flags: W
VStem: 140 250<-431 1491>
Fore
140 -431 m 1
 140 1491 l 1
 390 1491 l 1
 390 -431 l 1
 140 -431 l 1
EndSplineSet
EndChar
StartChar: braceright
Encoding: 95 125 97
Width: 684
Flags: W
VStem: 199 220<-127.625 271.056 795.1 1212.14>
Fore
626 612 m 1
 626 449 l 1
 575 448 533 434 500 407 c 0
 468 380 447 344 436 298 c 0
 425 253 420 174 419 63 c 0
 418 -48 416 -122 413 -157 c 0
 407 -214 396 -259 380 -292 c 0
 363 -326 343 -353 319 -374 c 0
 295 -394 264 -409 227 -420 c 0
 202 -427 160 -431 103 -431 c 2
 47 -431 l 1
 47 -212 l 1
 78 -212 l 2
 114 -212 137 -207 147 -196 c 1
 165 -174 l 1
 188 -149 199 -93 199 -6 c 0
 199 119 202 204 208 249 c 0
 219 323 240 382 272 426 c 1
 313 486 l 1
 329 505 350 519 375 530 c 1
 332 551 299 581 275 622 c 0
 270 629 261 647 246 676 c 0
 215 736 199 838 199 981 c 0
 199 1075 197 1135 194 1160 c 0
 189 1205 176 1236 155 1254 c 2
 133 1273 l 1
 113 1278 l 2
 105 1279 93 1280 78 1280 c 2
 47 1280 l 1
 47 1491 l 1
 103 1491 l 2
 168 1491 216 1486 245 1475 c 0
 288 1460 323 1436 351 1401 c 0
 379 1366 397 1323 406 1270 c 0
 414 1217 418 1131 419 1011 c 0
 420 891 425 808 436 762 c 0
 447 717 468 681 500 654 c 0
 533 627 575 613 626 612 c 1
EndSplineSet
EndChar
StartChar: asciitilde
Encoding: 96 126 98
Width: 1196
Flags: W
HStem: 531 237<777.939 918.62> 665 237<271.961 421.282>
VStem: 87 1023<645 782 529 905>
Fore
87 529 m 1x60
 87 782 l 1
 158 862 250 902 365 902 c 0x60
 405 902 447 896 491 884 c 0
 535 873 598 850 679 815 c 0
 725 796 759 783 782 777 c 0
 805 771 829 768 852 768 c 0
 895 768 940 781 986 807 c 0
 1033 833 1074 866 1110 905 c 1
 1110 645 l 1
 1067 605 1024 576 980 558 c 0
 937 540 888 531 833 531 c 0xa0
 793 531 755 536 718 545 c 0
 682 554 625 577 546 612 c 0
 467 647 401 665 348 665 c 0
 305 665 265 656 228 638 c 0
 190 619 143 583 87 529 c 1x60
EndSplineSet
EndChar
StartChar: exclamdown
Encoding: 98 161 100
Width: 680
Flags: W
HStem: 0 21G<228 452> 1059 20G<256 422> 1278 211<238 442>
VStem: 228 224<0 220.979> 238 204<1278 1489> 256 166<858.021 1079>
Fore
442 1278 m 1xe8
 238 1278 l 1
 238 1489 l 1
 442 1489 l 1
 442 1278 l 1xe8
452 0 m 1xf0
 228 0 l 1xf0
 256 1079 l 1
 422 1079 l 1xe4
 452 0 l 1xf0
EndSplineSet
EndChar
StartChar: cent
Encoding: 99 162 101
Width: 1118
Flags: W
HStem: 1455 20G<557 671>
VStem: 114 193<394.5 716.9> 557 114<-361 1 146 971 1116 1475>
Fore
557 2 m 1
 414 19 304 75 228 171 c 0
 152 267 114 396 114 557 c 0
 114 716 153 844 232 943 c 0
 311 1042 419 1099 557 1115 c 1
 557 1475 l 1
 671 1475 l 1
 671 1116 l 1
 729 1114 785 1105 838 1090 c 0
 892 1074 938 1056 975 1037 c 1
 975 837 l 1
 965 837 l 1
 924 871 880 901 833 926 c 0
 786 951 732 968 671 977 c 1
 671 141 l 1
 704 144 736 152 770 164 c 0
 802 176 830 189 853 202 c 0
 877 216 898 230 917 244 c 0
 936 257 952 270 965 281 c 1
 975 281 l 1
 975 83 l 1
 932 63 886 45 840 30 c 0
 792 14 736 4 671 1 c 1
 671 -361 l 1
 557 -361 l 1
 557 2 l 1
557 146 m 1
 557 971 l 1
 480 957 419 915 374 846 c 0
 329 776 307 680 307 557 c 0
 307 432 330 335 376 268 c 0
 421 200 482 159 557 146 c 1
EndSplineSet
EndChar
StartChar: sterling
Encoding: 100 163 102
Width: 1118
Flags: W
HStem: 0 171<261 1031> 613 138<130 291 483 847> 1351 167<620.4 812.8>
VStem: 291 192<474 613 751 1149>
Fore
1031 0 m 1
 89 0 l 1
 89 207 l 1
 163 229 215 272 246 335 c 0
 276 398 291 491 291 613 c 1
 130 613 l 1
 130 751 l 1
 291 751 l 1
 291 1071 l 2
 291 1205 330 1313 407 1395 c 0
 484 1477 585 1518 708 1518 c 0
 773 1518 828 1513 874 1502 c 0
 920 1492 962 1481 1001 1470 c 1
 1001 1264 l 1
 991 1264 l 1
 952 1291 909 1313 862 1328 c 0
 815 1343 770 1351 727 1351 c 0
 645 1351 584 1325 544 1274 c 0
 503 1223 483 1149 483 1052 c 2
 483 751 l 1
 847 751 l 1
 847 613 l 1
 483 613 l 1
 483 552 l 2
 483 474 464 403 424 340 c 0
 386 276 331 223 261 182 c 1
 261 171 l 1
 1031 171 l 1
 1031 0 l 1
EndSplineSet
EndChar
StartChar: currency
Encoding: 101 164 103
Width: 1118
Flags: W
HStem: 326 138<491.1 626.3> 858 138<493.7 628.9>
VStem: 225 143<592.1 732.5> 752 144<589.5 729.9>
Fore
1057 272 m 1
 951 166 l 1
 737 378 l 1
 707 360 679 347 653 338 c 0
 627 330 596 326 560 326 c 0
 529 326 498 331 468 341 c 0
 436 351 409 364 385 379 c 1
 170 164 l 1
 65 273 l 1
 277 486 l 1
 260 513 248 542 238 572 c 0
 230 604 225 633 225 661 c 0
 225 690 230 720 238 750 c 0
 248 779 261 808 278 835 c 1
 65 1051 l 1
 172 1157 l 1
 386 944 l 1
 411 960 438 973 469 982 c 0
 500 991 530 996 560 996 c 0
 595 996 627 991 658 980 c 0
 688 970 714 958 736 945 c 1
 948 1157 l 1
 1057 1052 l 1
 843 836 l 1
 861 807 874 780 883 753 c 0
 892 726 896 696 896 661 c 0
 896 631 891 600 882 570 c 0
 872 538 859 511 843 486 c 1
 1057 272 l 1
752 661 m 0
 752 714 733 760 696 800 c 0
 658 838 613 858 560 858 c 0
 509 858 464 839 426 800 c 0
 387 762 368 716 368 661 c 0
 368 608 387 562 424 522 c 0
 462 484 507 464 560 464 c 0
 611 464 656 483 694 522 c 0
 733 560 752 606 752 661 c 0
EndSplineSet
EndChar
StartChar: yen
Encoding: 102 165 104
Width: 1118
Flags: W
HStem: 0 21G<465 653> 440 138<125 465 653 993>
VStem: 467 184<0 440 578 657>
Fore
1059 1489 m 1
 651 678 l 1
 651 578 l 1
 993 578 l 1
 993 440 l 1
 653 440 l 1
 653 0 l 1
 465 0 l 1
 465 440 l 1
 125 440 l 1
 125 578 l 1
 467 578 l 1
 467 657 l 1
 56 1489 l 1
 266 1489 l 1
 560 850 l 1
 858 1489 l 1
 1059 1489 l 1
EndSplineSet
EndChar
StartChar: brokenbar
Encoding: 103 166 105
Width: 783
Flags: W
VStem: 308 167<-392 406 758 1556>
Fore
475 758 m 1
 308 758 l 1
 308 1556 l 1
 475 1556 l 1
 475 758 l 1
475 -392 m 1
 308 -392 l 1
 308 406 l 1
 475 406 l 1
 475 -392 l 1
EndSplineSet
EndChar
StartChar: section
Encoding: 104 167 106
Width: 1118
Flags: W
HStem: -385 165<391.233 609.091> 1355 164<507.927 720.629>
VStem: 119 189<503.28 615.722> 148 192<1103.12 1252.7> 776 193<-90.4251 36.2955> 810 188<507.4 629.787>
Fore
759 401 m 0xe4
 775 424 788 447 796 468 c 0
 806 490 810 519 810 555 c 0
 810 588 805 616 796 640 c 0
 786 664 773 684 756 699 c 0
 740 714 721 727 700 738 c 0
 679 748 654 757 626 766 c 0
 593 776 593 776 549 788 c 0
 520 797 487 807 450 819 c 1
 437 811 423 801 408 789 c 0
 394 777 378 760 361 738 c 0
 348 721 336 697 324 668 c 0
 314 639 308 609 308 579 c 0
 308 525 321 482 346 450 c 0
 371 418 420 391 492 369 c 0
 526 359 526 359 570 346 c 0
 613 332 613 332 667 315 c 1
 680 323 694 334 711 348 c 0
 728 362 744 380 759 401 c 0xe4
182 -133 m 1
 199 -142 221 -151 246 -162 c 0
 272 -173 297 -182 321 -190 c 0
 352 -200 381 -208 408 -212 c 0
 435 -218 468 -220 509 -220 c 0
 585 -220 648 -204 700 -174 c 0
 750 -142 776 -97 776 -36 c 0
 776 0 770 29 758 52 c 0
 745 74 725 94 698 111 c 0
 670 128 636 142 594 154 c 0
 533 171 533 171 460 192 c 0
 401 209 352 226 314 243 c 0
 274 260 239 283 208 312 c 0
 178 339 156 371 141 407 c 0
 126 443 119 485 119 533 c 0xe8
 119 596 135 655 168 712 c 0
 201 768 251 817 318 858 c 1
 318 865 l 1
 257 898 214 939 188 986 c 0
 161 1033 148 1087 148 1147 c 0
 148 1259 191 1349 276 1417 c 0
 361 1485 479 1519 628 1519 c 0
 685 1519 737 1515 785 1506 c 0
 833 1497 887 1483 946 1462 c 1
 946 1268 l 1
 936 1268 l 1
 876 1298 820 1320 768 1334 c 0
 717 1348 663 1355 607 1355 c 0
 532 1355 469 1340 418 1310 c 0
 366 1279 340 1235 340 1176 c 0
 340 1138 347 1107 360 1083 c 0
 374 1059 394 1039 420 1024 c 0
 446 1008 479 994 520 981 c 0
 560 968 606 955 657 942 c 0
 780 909 867 866 920 814 c 0
 972 761 998 690 998 601 c 0xd4
 998 529 980 466 944 412 c 0
 907 358 859 313 799 277 c 1
 799 270 l 1
 857 239 900 201 928 154 c 0
 955 107 969 53 969 -10 c 0xc8
 969 -59 958 -108 938 -155 c 0
 916 -202 887 -242 848 -274 c 0
 807 -309 757 -337 700 -356 c 0
 642 -375 572 -385 490 -385 c 0
 437 -385 385 -380 333 -371 c 0
 281 -362 227 -347 172 -327 c 1
 172 -133 l 1
 182 -133 l 1
EndSplineSet
EndChar
StartChar: dieresis
Encoding: 105 168 107
Width: 1118
Flags: W
HStem: 1304 195<253 454 666 867>
VStem: 253 201<1304 1499> 666 201<1304 1499>
Fore
867 1304 m 1
 666 1304 l 1
 666 1499 l 1
 867 1499 l 1
 867 1304 l 1
454 1304 m 1
 253 1304 l 1
 253 1499 l 1
 454 1499 l 1
 454 1304 l 1
EndSplineSet
EndChar
StartChar: copyright
Encoding: 106 169 108
Width: 1902
Flags: W
HStem: -210 110<682.9 1221.1> 180 147<872.9 1072.79> 996 147<879.4 1066.8> 1409 110<682.9 1221.1>
VStem: 86 117<383.3 926.7> 531 185<519.6 809.5> 1701 115<383.3 926.7>
Fore
1816 655 m 0
 1816 416 1732 212 1562 44 c 0
 1394 -126 1190 -210 951 -210 c 0
 712 -210 508 -126 340 44 c 0
 170 212 86 416 86 655 c 0
 86 894 170 1097 340 1266 c 0
 508 1435 712 1519 951 1519 c 0
 1190 1519 1394 1435 1562 1266 c 0
 1732 1097 1816 894 1816 655 c 0
1701 655 m 0
 1701 864 1628 1042 1482 1188 c 0
 1335 1336 1159 1409 952 1409 c 0
 745 1409 569 1336 422 1188 c 0
 276 1042 203 864 203 655 c 0
 203 446 276 268 422 121 c 0
 569 -26 745 -100 952 -100 c 0
 1159 -100 1335 -26 1482 121 c 0
 1628 268 1701 446 1701 655 c 0
1274 255 m 1
 1229 235 1185 218 1140 202 c 0
 1095 188 1043 180 982 180 c 0
 843 180 733 221 652 304 c 0
 571 386 531 505 531 660 c 0
 531 813 573 932 656 1016 c 0
 739 1101 848 1143 982 1143 c 0
 1037 1143 1090 1136 1141 1121 c 0
 1192 1106 1236 1089 1274 1070 c 1
 1274 889 l 1
 1258 889 l 1
 1229 914 1190 938 1139 962 c 0
 1088 984 1037 996 986 996 c 0
 904 996 838 969 790 914 c 0
 740 859 716 775 716 660 c 0
 716 552 739 470 786 412 c 0
 833 356 899 327 986 327 c 0
 1042 327 1095 339 1145 364 c 0
 1195 388 1233 411 1258 434 c 1
 1274 434 l 1
 1274 255 l 1
EndSplineSet
EndChar
StartChar: ordfeminine
Encoding: 107 170 109
Width: 1010
Flags: W
HStem: 541 155<381.049 518.441> 1030.26 132.744<389.974 751.319> 1365 154<379.788 595.933>
VStem: 114 172<784 913.86> 708 166<566 657 802 1045 1184 1257.94>
Fore
874 566 m 1
 708 566 l 1
 708 657 l 1
 689 642 689 642 657 618 c 0
 636 603 615 590 594 581 c 0
 567 568 540 558 514 552 c 0
 487 544 451 541 404 541 c 0
 321 541 252 569 197 624 c 0
 142 680 114 752 114 839 c 0
 114 908 128 965 157 1008 c 0
 186 1052 227 1087 280 1112 c 0
 330 1136 393 1153 469 1163 c 0
 545 1173 625 1180 708 1184 c 1
 708 1203 l 2
 708 1238 702 1266 692 1287 c 0
 680 1308 664 1325 643 1337 c 0
 624 1348 600 1356 571 1360 c 0
 542 1363 513 1365 482 1365 c 0
 430 1365 377 1357 324 1342 c 0
 270 1326 230 1313 204 1304 c 1
 189 1304 l 1
 189 1474 l 1
 218 1483 262 1492 320 1503 c 0
 379 1514 433 1519 483 1519 c 0
 611 1519 708 1494 774 1442 c 0
 841 1392 874 1309 874 1194 c 2
 874 566 l 1
708 802 m 1
 708 1045 l 1
 665 1042 614 1038 557 1033 c 0
 500 1028 454 1020 420 1010 c 0
 380 999 348 980 323 954 c 0
 298 929 286 894 286 849 c 0
 286 799 301 761 330 735 c 0
 359 709 403 696 461 696 c 0
 512 696 557 707 598 729 c 0
 638 751 675 775 708 802 c 1
EndSplineSet
EndChar
StartChar: guillemotleft
Encoding: 108 171 110
Width: 1174
Flags: W
HStem: 162 980<613 613>
VStem: 103 940<191 608>
Fore
1043 191 m 1
 555 610 l 1
 555 695 l 1
 1043 1113 l 1
 1043 925 l 1
 726 652 l 1
 1043 379 l 1
 1043 191 l 1
613 162 m 1
 103 608 l 1
 103 697 l 1
 613 1142 l 1
 613 946 l 1
 282 652 l 1
 613 358 l 1
 613 162 l 1
EndSplineSet
EndChar
StartChar: logicalnot
Encoding: 109 172 111
Width: 1490
Flags: W
HStem: 602 160<157 1152>
VStem: 1152 171<57 602>
Fore
1323 57 m 1
 1152 57 l 1
 1152 602 l 1
 157 602 l 1
 157 762 l 1
 1323 762 l 1
 1323 57 l 1
EndSplineSet
EndChar
StartChar: registered
Encoding: 111 174 113
Width: 1902
Flags: W
HStem: -210 110<682.9 1221.1> 570 126<815 938> 1005 125<815 1032.72> 1409 110<682.9 1221.1>
VStem: 86 117<383.3 926.7> 650 165<215 570 696 1005> 1120 182<793.085 929.294> 1701 115<383.3 926.7>
Fore
1816 655 m 0
 1816 416 1732 212 1562 44 c 0
 1394 -126 1190 -210 951 -210 c 0
 712 -210 508 -126 340 44 c 0
 170 212 86 416 86 655 c 0
 86 894 170 1097 340 1266 c 0
 508 1435 712 1519 951 1519 c 0
 1190 1519 1394 1435 1562 1266 c 0
 1732 1097 1816 894 1816 655 c 0
1701 655 m 0
 1701 864 1628 1042 1482 1188 c 0
 1335 1336 1159 1409 952 1409 c 0
 745 1409 569 1336 422 1188 c 0
 276 1042 203 864 203 655 c 0
 203 446 276 268 422 121 c 0
 569 -26 745 -100 952 -100 c 0
 1159 -100 1335 -26 1482 121 c 0
 1628 268 1701 446 1701 655 c 0
1448 215 m 1
 1221 215 l 1
 938 570 l 1
 815 570 l 1
 815 215 l 1
 650 215 l 1
 650 1130 l 1
 929 1130 l 2
 992 1130 1041 1128 1078 1123 c 0
 1114 1118 1151 1105 1188 1084 c 0
 1228 1061 1257 1034 1275 1002 c 0
 1293 970 1302 929 1302 879 c 0
 1302 812 1284 758 1246 715 c 0
 1210 672 1161 639 1102 615 c 1
 1448 215 l 1
1120 868 m 0
 1120 893 1116 914 1108 932 c 0
 1100 950 1086 965 1066 978 c 0
 1049 989 1031 996 1010 1000 c 0
 989 1003 963 1005 930 1005 c 2
 815 1005 l 1
 815 696 l 1
 913 696 l 2
 945 696 975 699 1003 706 c 0
 1031 712 1054 723 1071 738 c 0
 1088 753 1101 771 1108 791 c 0
 1116 811 1120 837 1120 868 c 0
EndSplineSet
EndChar
StartChar: macron
Encoding: 112 175 114
Width: 1118
Flags: W
HStem: 1659 130<-16 1134>
Fore
1134 1659 m 1
 -16 1659 l 1
 -16 1789 l 1
 1134 1789 l 1
 1134 1659 l 1
EndSplineSet
EndChar
StartChar: degree
Encoding: 113 176 115
Width: 964
Flags: W
HStem: 755 152<401.4 565.2> 1363 152<398.8 565.2>
VStem: 101 157<1050.5 1218.2> 706 157<1053.1 1218.2>
Fore
863 1135 m 0
 863 1028 826 938 753 865 c 0
 680 792 589 755 482 755 c 0
 376 755 286 791 212 864 c 0
 138 937 101 1027 101 1135 c 0
 101 1242 138 1332 211 1405 c 0
 284 1478 375 1515 482 1515 c 0
 589 1515 680 1478 753 1405 c 0
 826 1332 863 1242 863 1135 c 0
706 1135 m 0
 706 1199 685 1253 642 1297 c 0
 599 1341 546 1363 482 1363 c 0
 418 1363 365 1341 322 1297 c 0
 279 1253 258 1199 258 1135 c 0
 258 1070 280 1015 324 972 c 0
 367 929 420 907 482 907 c 0
 546 907 599 929 642 974 c 0
 685 1018 706 1072 706 1135 c 0
EndSplineSet
EndChar
StartChar: plusminus
Encoding: 114 177 116
Width: 1490
Flags: W
HStem: 159 158<162 662 828 1328> 739 158<162 662 828 1328>
VStem: 662 166<317 739 897 1402>
Fore
1328 159 m 1
 162 159 l 1
 162 317 l 1
 662 317 l 1
 662 739 l 1
 162 739 l 1
 162 897 l 1
 662 897 l 1
 662 1402 l 1
 828 1402 l 1
 828 897 l 1
 1328 897 l 1
 1328 739 l 1
 828 739 l 1
 828 317 l 1
 1328 317 l 1
 1328 159 l 1
EndSplineSet
EndChar
StartChar: uni00B2
Encoding: 115 178 117
Width: 1010
Flags: W
HStem: 566 144<373 866> 1371 148<377.984 527.709>
VStem: 619 185<1153.87 1288.38>
Fore
866 566 m 1
 185 566 l 1
 185 718 l 1
 262 777 262 777 332 832 c 0
 380 868 418 900 447 929 c 0
 518 997 564 1050 586 1088 c 0
 608 1127 619 1173 619 1227 c 0
 619 1273 605 1308 576 1334 c 0
 547 1358 508 1371 457 1371 c 0
 411 1371 364 1361 318 1341 c 0
 270 1321 233 1300 206 1279 c 1
 191 1279 l 1
 191 1458 l 1
 233 1476 280 1491 330 1502 c 0
 382 1513 432 1519 481 1519 c 0
 585 1519 665 1493 720 1440 c 0
 776 1388 804 1321 804 1239 c 0
 804 1182 791 1128 764 1076 c 0
 738 1023 689 965 617 900 c 0
 582 869 542 837 496 802 c 0
 427 751 427 751 373 710 c 1
 866 710 l 1
 866 566 l 1
EndSplineSet
EndChar
StartChar: uni00B3
Encoding: 116 179 118
Width: 1010
Flags: W
HStem: 542 139<378.14 553.376> 968 139<334 521.018> 1380 139<394.157 554.152>
VStem: 641 173<1205.6 1303.04> 665 172<763.6 888.4>
Fore
837 828 m 0xe8
 837 781 827 738 807 700 c 0
 787 663 761 633 729 611 c 0
 694 586 656 569 614 558 c 0
 574 547 527 542 474 542 c 0
 419 542 368 547 320 557 c 0
 273 567 227 581 184 600 c 1
 184 775 l 1
 201 775 l 1
 226 752 264 730 315 710 c 0
 366 691 418 681 471 681 c 0
 527 681 573 693 610 718 c 0
 647 742 665 778 665 826 c 0xe8
 665 874 650 910 622 933 c 0
 592 956 543 968 474 968 c 2
 334 968 l 1
 334 1107 l 1
 459 1107 l 2
 517 1107 562 1120 594 1145 c 0
 625 1170 641 1205 641 1249 c 0
 641 1289 627 1321 600 1344 c 0
 573 1368 530 1380 472 1380 c 0
 428 1380 380 1370 330 1349 c 0
 278 1328 241 1306 216 1283 c 1
 199 1283 l 1
 199 1458 l 1
 242 1476 288 1491 338 1502 c 0
 388 1513 439 1519 492 1519 c 0
 593 1519 672 1496 729 1449 c 0
 786 1402 814 1346 814 1281 c 0xf0
 814 1223 798 1175 766 1138 c 0
 733 1100 691 1072 640 1055 c 1
 640 1047 l 1
 693 1036 740 1013 778 976 c 0
 818 940 837 891 837 828 c 0xe8
EndSplineSet
EndChar
StartChar: acute
Encoding: 117 180 119
Width: 1118
Flags: W
HStem: 1302 374<598 871>
VStem: 449 422<1302 1676>
Fore
871 1676 m 1
 598 1302 l 1
 449 1302 l 1
 628 1676 l 1
 871 1676 l 1
EndSplineSet
EndChar
StartChar: mu
Encoding: 118 181 120
Width: 1163
Flags: W
HStem: -17 181<489.251 666.626>
VStem: 136 188<-412 115 275 1117> 839 188<275 1117> 855 172<0 116>
Fore
1027 0 m 1xd0
 855 0 l 1
 855 116 l 1xd0
 849 116 l 1
 809 74 769 41 728 18 c 0
 688 -5 638 -17 578 -17 c 0
 517 -17 468 -5 433 18 c 0
 398 41 361 74 324 115 c 1
 324 -412 l 1
 136 -412 l 1
 136 1117 l 1
 324 1117 l 1
 324 275 l 1
 352 242 387 215 429 194 c 0
 471 174 521 164 578 164 c 0
 638 164 688 174 730 193 c 0
 770 212 807 240 839 275 c 1
 839 1117 l 1
 1027 1117 l 1xe0
 1027 0 l 1xd0
EndSplineSet
EndChar
StartChar: paragraph
Encoding: 119 182 121
Width: 1118
Flags: W
HStem: 1359 130<655 842>
VStem: 515 140<-363 593> 842 140<-363 1359>
Fore
982 -363 m 1
 842 -363 l 1
 842 1359 l 1
 655 1359 l 1
 655 -363 l 1
 515 -363 l 1
 515 593 l 1
 378 596 267 639 183 722 c 0
 99 805 57 914 57 1050 c 0
 57 1188 100 1296 187 1373 c 0
 274 1450 398 1489 560 1489 c 2
 982 1489 l 1
 982 -363 l 1
EndSplineSet
EndChar
StartChar: periodcentered
Encoding: 120 183 122
Width: 724
Flags: W
HStem: 832 285<243 482>
VStem: 243 239<832 1117>
Fore
482 832 m 1
 243 832 l 1
 243 1117 l 1
 482 1117 l 1
 482 832 l 1
EndSplineSet
EndChar
StartChar: cedilla
Encoding: 121 184 123
Width: 1118
Flags: W
HStem: -423 150<364.259 524.825>
VStem: 614 159<-185.915 -8.19973>
Fore
767 20 m 1
 768 8 769 -7 770 -26 c 0
 772 -44 773 -65 773 -89 c 0
 773 -197 744 -280 686 -337 c 0
 628 -394 555 -423 466 -423 c 0
 441 -423 412 -421 379 -417 c 0
 346 -413 316 -407 289 -399 c 1
 289 -239 l 1
 298 -239 l 1
 314 -246 335 -254 361 -262 c 0
 387 -269 413 -273 440 -273 c 0
 503 -273 547 -260 574 -234 c 0
 601 -207 614 -165 614 -107 c 0
 614 -90 614 -71 613 -50 c 0
 612 -29 611 -6 610 20 c 1
 767 20 l 1
EndSplineSet
EndChar
StartChar: uni0E01
Encoding: 122 3585 124
Width: 1240
Flags: W
HStem: 0 21G<188 408 862 1082> 929 220<486.2 819.867>
VStem: 188 220<0 488.667> 862 220<0 857.6>
Fore
1082 673 m 2
 1082 0 l 1
 862 0 l 1
 862 657 l 2
 862 838.333 782.667 929 624 929 c 0
 518 929 440 896.333 390 831 c 1
 464 795 516 739 546 663 c 1
 541.333 661 511.333 627.667 456 563 c 0
 424 526.333 408 459.667 408 363 c 2
 408 0 l 1
 188 0 l 1
 188 363 l 2
 188 448.333 197.333 509.333 216 546 c 0
 230.667 575.333 264 617 316 671 c 1
 269.333 726.333 203.333 766.667 118 792 c 1
 130.667 854.667 166.667 917 226 979 c 0
 331.333 1092.33 464 1149 624 1149 c 0
 774.667 1149 891.333 1102 974 1008 c 0
 1046 926.667 1082 815 1082 673 c 2
EndSplineSet
EndChar
StartChar: uni0E02
Encoding: 123 3586 125
Width: 1400
Flags: W
HStem: 0 210<757 997> 1119 20G<997 1217>
VStem: 388 132<704.55 793.667> 537 220<210 637.4> 997 220<210 1139>
Fore
302 662 m 1
 321 660 l 1
 344.333 662 363.333 676 378 702 c 0
 384 712.667 387.333 720.667 388 726 c 2
 389 765 l 2
 385.667 793.667 371.667 813.333 347 824 c 0
 341.667 826.667 336 828 330 828 c 1
 314 825 l 1
 304.667 820.333 296.667 812.333 290 801 c 0
 281.333 786.333 275 771 271 755 c 0
 267.667 738.333 266 725.333 266 716 c 2
 269 694 l 1
 274.333 677.333 285.333 666.667 302 662 c 1
884 771 m 1
 799.333 688.333 757 623 757 575 c 2
 757 298 l 2
 757 256 757 256 757 210 c 1
 840 210 840 210 876 210 c 0
 954 210 954 210 997 210 c 1
 997 276 997 276 997 298 c 2
 997 1139 l 5
 1217 1139 l 1
 1217 298 l 2
 1217 110 1217 110 1217 0 c 1
 994 0 994 0 875 0 c 0
 722 0 722 0 537 0 c 1
 537 168 537 168 537 298 c 2
 537 575 l 2
 537 623 576.667 685.667 656 763 c 2
 664 771 l 1
 660 823 644.333 865.667 617 899 c 0
 588.333 935 549 953 499 953 c 0
 491 953 484.667 952.667 480 952 c 0
 446.667 949.333 422.333 939.667 407 923 c 2
 406 922 l 1
 406 920.667 405.667 920 405 920 c 1
 456.333 914 491.333 880.667 510 820 c 0
 516.667 798 520 774 520 748 c 0
 520 684.667 499 632 457 590 c 2
 431 568 l 2
 396.333 543.333 355 531 307 531 c 0
 296.333 531 288 531.333 282 532 c 0
 200.667 539.333 144.333 582 113 660 c 0
 98.3333 696 91 739 91 789 c 0
 91 800.333 91.3333 809 92 815 c 0
 102 911.667 137.667 987.667 199 1043 c 0
 270.333 1107 351 1142 441 1148 c 0
 448.333 1148.67 460 1149 476 1149 c 0
 568 1149 648 1128 716 1086 c 0
 733.333 1076 749.333 1063.67 764 1049 c 0
 802 1012.33 833.667 960.667 859 894 c 0
 875.667 850.667 884 809.667 884 771 c 1
EndSplineSet
EndChar
StartChar: uni0E03
Encoding: 124 3587 126
Width: 1450
Flags: W
HStem: 0 210<810 1050> 1119 20G<1050 1270>
VStem: 366 132<630.55 719.667> 590 220<210 637.4> 1050 220<210 1139>
Fore
280 588 m 1
 299 586 l 1
 322.333 588 341.333 602 356 628 c 0
 362 638.667 365.333 646.667 366 652 c 2
 367 691 l 2
 363.667 719.667 349.667 739.333 325 750 c 0
 319.667 752.667 314 754 308 754 c 1
 292 751 l 1
 282.667 746.333 274.667 738.333 268 727 c 0
 259.333 712.333 253 697 249 681 c 0
 245.667 664.333 244 651.333 244 642 c 0
 244 614 256 596 280 588 c 1
663 929 m 1
 567 857 466 857 360 929 c 1
 342 904.333 330.333 883.333 325 866 c 2
 324.333 865.333 324 864 324 862 c 1
 403.333 862 456.333 826.667 483 756 c 0
 493 729.333 498 702 498 674 c 0
 498 610.667 477 558 435 516 c 0
 395.667 476.667 346 457 286 457 c 0
 274.667 457 266 457.333 260 458 c 0
 192 464 140.667 500.333 106 567 c 0
 84.6667 608.333 74 653.667 74 703 c 0
 74 712.333 74.6667 725 76 741 c 0
 87.3333 821.667 102.333 882.333 121 923 c 0
 133 948.333 148.667 973.667 168 999 c 0
 206.667 1048.33 253.667 1090 309 1124 c 0
 331 1136.67 348 1145 360 1149 c 1
 519 1041 l 1
 663 1149 l 1
 708.333 1137 751.667 1111.67 793 1073 c 0
 801.667 1065 809.667 1057 817 1049 c 0
 855 1012.33 886.667 960.667 912 894 c 0
 928.667 850.667 937 809.667 937 771 c 1
 852.333 688.333 810 623 810 575 c 2
 810 298 l 2
 810 256 810 256 810 210 c 1
 893 210 893 210 929 210 c 0
 1007 210 1007 210 1050 210 c 1
 1050 276 1050 276 1050 298 c 2
 1050 1139 l 1
 1270 1139 l 1
 1270 298 l 2
 1270 110 1270 110 1270 0 c 1
 1047 0 1047 0 929 0 c 0
 776 0 776 0 590 0 c 1
 590 168 590 168 590 298 c 2
 590 575 l 2
 590 623.667 627 680.333 701 745 c 0
 706.333 750.333 716.333 759 731 771 c 1
 727.667 806.333 714.667 845 692 887 c 0
 683.333 903 673.667 917 663 929 c 1
EndSplineSet
EndChar
StartChar: uni0E04
Encoding: 125 3588 127
Width: 1370
Flags: W
HStem: 0 21G<251 491 980 1200> 305 110<677.405 747.537> 929 220<587.067 758.049>
VStem: 169 220<555.086 735.725> 798 119<465.737 546.517> 980 220<0 733.835>
Fore
775 565 m 1
 765 571 755.667 574 747 574 c 0
 725.667 574 704.667 558.667 684 528 c 0
 666.667 502.667 658 481.333 658 464 c 0
 658 448 665 435 679 425 c 0
 687.667 418.333 698 415 710 415 c 0
 736.667 415 760.667 429 782 457 c 0
 792.667 471.667 798 487.667 798 505 c 0
 798 526.333 790.333 546.333 775 565 c 1
421 384 m 1
 455 476 478 533 490 555 c 0
 495.333 566.333 502 578 510 590 c 0
 543.333 642.667 589 680 647 702 c 0
 673 711.333 697.333 716 720 716 c 0
 732.667 716 746.333 714.333 761 711 c 0
 800.333 701 836.667 676.333 870 637 c 0
 888 615 899.333 595 904 577 c 2
 912.667 557 917 536 917 514 c 0
 917 471.333 900.333 429.333 867 388 c 0
 829.667 342 790 315.333 748 308 c 2
 707 305 l 1
 702 305 l 2
 670.667 305.667 644.667 314.333 624 331 c 0
 620.667 334.333 618.667 336.667 618 338 c 1
 602 320 573.333 254.333 532 141 c 0
 506 68.3333 492.333 21.3333 491 0 c 1
 251 0 l 1
 251 108 l 2
 251 147.333 238.667 226.667 214 346 c 0
 184 492 169 603.333 169 680 c 0
 169 722 172.667 761.333 180 798 c 0
 202.667 908.667 258.667 994.667 348 1056 c 0
 422 1106.67 508 1136.67 606 1146 c 0
 628.667 1148 653.667 1149 681 1149 c 2
 751 1146 l 2
 835.667 1136.67 913.667 1112.67 985 1074 c 0
 1043 1042.67 1088 1004 1120 958 c 0
 1164.67 897.333 1190.33 827.667 1197 749 c 0
 1199 727 1200 703 1200 677 c 2
 1200 0 l 1
 980 0 l 1
 980 664 l 2
 980 715.333 972.333 754.667 957 782 c 0
 925 839.333 873 881.333 801 908 c 0
 761.667 922 723 929 685 929 c 0
 609.667 929 541.667 905 481 857 c 0
 449 833 426.333 805.333 413 774 c 0
 397 738 389 695.667 389 647 c 0
 389 610.333 396.333 547.667 411 459 c 0
 417 421.667 420.333 396.667 421 384 c 1
EndSplineSet
EndChar
StartChar: uni0E05
Encoding: 126 3589 128
Width: 1370
Flags: W
HStem: 0 21G<238 478 967 1187> 305 110<664.643 734>
VStem: 155 221<576.005 765.614> 967 220<0 755.266>
Fore
762 565 m 1
 752 571 742.333 574 733 574 c 0
 711.667 574 690.667 558.667 670 528 c 0
 653.333 503.333 645 482 645 464 c 0
 645 448 652 435 666 425 c 0
 674.667 418.333 684.667 415 696 415 c 0
 724 415 748.333 429 769 457 c 0
 780.333 472.333 785.333 488.333 784 505 c 0
 784 527.667 776.667 547.667 762 565 c 1
399 802 m 0
 383.667 765.333 376 720.667 376 668 c 0
 376 632 383.667 561.333 399 456 c 0
 403 426 406 402 408 384 c 1
 441.333 473.333 464 530.333 476 555 c 0
 485.333 571 492.333 582.667 497 590 c 0
 531 642.667 576.333 680 633 702 c 0
 659 711.333 683.333 716 706 716 c 0
 719.333 716 733.333 714.333 748 711 c 0
 787.333 701 823.667 676.333 857 637 c 0
 873.667 616.333 884.667 596.333 890 577 c 0
 899.333 555 904 534 904 514 c 0
 904 471.333 887 429.333 853 388 c 0
 815.667 342 776 315.333 734 308 c 2
 694 305 l 1
 689 305 l 2
 656.333 305.667 630.333 314.333 611 331 c 0
 607.667 334.333 605.667 336.667 605 338 c 1
 587 318 558.333 252.333 519 141 c 0
 491.667 65 478 18 478 0 c 1
 238 0 l 1
 238 108 l 2
 238 143.333 225.333 226 200 356 c 0
 170 510 155 626.667 155 706 c 0
 155 751.333 159 791.333 167 826 c 0
 190.333 936.667 246.333 1022.67 335 1084 c 0
 387 1120 446.333 1141.67 513 1149 c 1
 677 1033 l 1
 850 1149 l 1
 962 1123.67 1047.67 1069.33 1107 986 c 0
 1160.33 912.667 1187 809.667 1187 677 c 2
 1187 0 l 1
 967 0 l 1
 967 664 l 2
 967 734 959.333 782.667 944 810 c 0
 922 849.333 890.667 882.333 850 909 c 1
 677 795 l 1
 513 909 l 1
 458.333 885.667 420.333 850 399 802 c 0
EndSplineSet
EndChar
StartChar: uni0E06
Encoding: 127 3590 129
Width: 1520
Flags: W
HStem: -10 21G<600 616> 1119 20G<1139 1359>
VStem: 356 132<630.55 719.667> 580 220<507 623.667> 1138 221<269.491 1139>
Fore
270 588 m 1
 289 586 l 1
 312.333 588 331.333 602 346 628 c 0
 352 638.667 355.333 646.667 356 652 c 2
 357 691 l 2
 353.667 719.667 339.667 739.333 315 750 c 0
 309.667 752.667 304 754 298 754 c 1
 282 751 l 1
 272.667 746.333 264.667 738.333 258 727 c 0
 249.333 712.333 243 697 239 681 c 0
 235.667 664.333 234 651.333 234 642 c 0
 234 614 246 596 270 588 c 1
800 430 m 1
 869.333 363.333 937 312.333 1003 277 c 0
 1038.33 260.333 1066.33 251.333 1087 250 c 0
 1093.67 250 1101.33 251.667 1110 255 c 0
 1126.67 263 1136 277.667 1138 299 c 0
 1138.67 303.667 1139 329.667 1139 377 c 2
 1139 1139 l 1
 1359 1139 l 1
 1359 218 l 2
 1359 120.667 1332.33 55 1279 21 c 0
 1244.33 -1.66667 1205.67 -13 1163 -13 c 0
 1130.33 -13 1099 -6.66667 1069 6 c 0
 1020.33 25.3333 958 58.6667 882 106 c 0
 844 130 816.333 149.333 799 164 c 1
 799 116 781.333 75.3333 746 42 c 0
 711.333 10.6667 668 -6.66667 616 -10 c 2
 600 -10 l 2
 534 -8 480.333 11.6667 439 49 c 0
 432.333 55 426 61.3333 420 68 c 0
 396 94 379.333 137.333 370 198 c 2
 366 249 l 2
 366 257 366.333 263 367 267 c 0
 374.333 345 404.333 407 457 453 c 0
 491 481.667 532 499.667 580 507 c 1
 580 575 l 2
 580 623.667 617 680.333 691 745 c 0
 696.333 750.333 706.333 759 721 771 c 1
 717.667 806.333 704.667 845 682 887 c 0
 673.333 903 663.667 917 653 929 c 1
 557 857 456 857 350 929 c 1
 332 904.333 320.333 883.333 315 866 c 2
 314.333 865.333 314 864 314 862 c 1
 393.333 862 446.333 826.667 473 756 c 0
 483 729.333 488 702 488 674 c 0
 488 610.667 467 558 425 516 c 0
 385.667 476.667 336 457 276 457 c 0
 264.667 457 256 457.333 250 458 c 0
 182 464 130.667 500.333 96 567 c 0
 74.6667 608.333 64 653.667 64 703 c 0
 64 712.333 64.6667 725 66 741 c 0
 77.3333 821.667 92.3333 882.333 111 923 c 0
 123 948.333 138.667 973.667 158 999 c 0
 196.667 1048.33 243.667 1090 299 1124 c 0
 321 1136.67 338 1145 350 1149 c 1
 509 1041 l 1
 653 1149 l 1
 698.333 1137 741.667 1111.67 783 1073 c 2
 807 1049 l 2
 845 1012.33 876.667 960.667 902 894 c 0
 918.667 850.667 927 809.667 927 771 c 1
 843 689 800.667 623.667 800 575 c 2
 800 430 l 1
595 317 m 1
 581 317 568.667 312.667 558 304 c 0
 534.667 284.667 522.667 256.333 522 219 c 0
 522 177 533 156 555 156 c 0
 576.333 156 589 167.333 593 190 c 0
 594.333 200.667 595 211.333 595 222 c 2
 595 317 l 1
EndSplineSet
EndChar
StartChar: uni0E07
Encoding: 128 3591 130
Width: 1000
Flags: W
HStem: -10 21G<472 587.667> 752 105<585 647.543> 1026 123<588.394 652.233>
VStem: 438 116<896.979 986.509> 635 220<223.6 759> 674 181<879.022 1004.41>
Fore
855 272 m 2xf8
 855 158 812.333 77.3333 727 30 c 0
 680.333 3.33333 622.333 -10 553 -10 c 0
 391 -10 286.333 67.6667 239 223 c 0
 234.333 237 230.333 253.333 227 272 c 2
 145 719 l 1
 386 640 l 1
 448 312 l 2
 457.333 254 484.333 220.667 529 212 c 0
 538.333 210.667 545.333 210 550 210 c 0
 606 210 634.333 244 635 312 c 2
 635 759 l 1xf8
 627.667 754.333 611 752 585 752 c 2
 574 752 l 2
 545.333 755.333 517.667 768.667 491 792 c 0
 455.667 823.333 438 866.667 438 922 c 0
 438 945.333 441.667 972.667 449 1004 c 0
 460.333 1047.33 487.333 1084 530 1114 c 0
 563.333 1137.33 603.667 1149 651 1149 c 0
 705.667 1148.33 751 1130.33 787 1095 c 0
 832.333 1051.67 855 980.333 855 881 c 2xf4
 855 272 l 2xf8
619 1026 m 0
 600.333 1026 583.333 1015.33 568 994 c 0
 558.667 976.667 554 959 554 941 c 0
 554 921 559.667 902.667 571 886 c 0
 584.333 866.667 600.667 857 620 857 c 0
 638 857 652.333 865.333 663 882 c 0
 670.333 895.333 674 916.333 674 945 c 0xf4
 674 975 669 996 659 1008 c 0
 649 1020 635.667 1026 619 1026 c 0
EndSplineSet
EndChar
StartChar: uni0E08
Encoding: 129 3592 131
Width: 1200
Flags: W
HStem: -10 21G<654.667 841.333> 344 112<379.882 441.447> 929 220<436.533 615.143>
VStem: 233 114<524 586.192> 468 220<219.733 373 469.6 593.667> 808 220<219.2 762.333>
Fore
468 283 m 2
 468 373 l 1
 459.333 363 446.667 355.333 430 350 c 0
 416 346 402.333 344 389 344 c 0
 349.667 345.333 314.667 361.333 284 392 c 0
 250 425.333 233 469.333 233 524 c 0
 233 620.667 269.667 687 343 723 c 0
 365 733.667 390 741 418 745 c 0
 500.667 756.333 568.667 739.333 622 694 c 0
 666 652.667 688 593.667 688 517 c 2
 688 283 l 2
 688 234.333 708 210 748 210 c 0
 788 210 808 233 808 279 c 2
 808 695 l 2
 808 762.333 793.333 811.333 764 842 c 0
 714.667 890 660 918 600 926 c 0
 582.667 928 564.667 929 546 929 c 0
 458.667 929 379.333 901.333 308 846 c 0
 281.333 825.333 259.333 801.667 242 775 c 1
 104 929 l 1
 144 998.333 211.333 1054.33 306 1097 c 0
 382 1131.67 461.333 1149 544 1149 c 0
 729.333 1149 865.333 1095 952 987 c 0
 1002.67 924.333 1028 842 1028 740 c 2
 1028 279 l 2
 1028 86.3333 934.667 -10 748 -10 c 0
 561.333 -10 468 87.6667 468 283 c 2
414 625 m 0
 392.667 625 374.333 613.333 359 590 c 0
 351 576.667 347 564 347 552 c 0
 347 546.667 347.333 542.667 348 540 c 0
 357.333 498 370 472.333 386 463 c 0
 393.333 458.333 402.667 456 414 456 c 0
 450 458.667 468 484 468 532 c 2
 468 545 l 2
 468 598.333 450 625 414 625 c 0
EndSplineSet
EndChar
StartChar: uni0E09
Encoding: 130 3593 132
Width: 1395
Flags: W
HStem: 365 111<267.15 329.034> 645 121<265.825 344.8> 934 215<512 718.378>
VStem: 121 111<512.333 605.576> 354 219<254.01 393 490.6 612.667> 893 220<507 834.467> 1169 148<164.4 270.519>
Fore
893 714 m 2
 893 806.667 851.667 871 769 907 c 2
 725 922 l 2
 695 930 663 934 629 934 c 0
 539 934 458.667 907 388 853 c 0
 361.333 834.333 339.333 812.667 322 788 c 1
 180 942 l 1
 218.667 1006 284.667 1058 378 1098 c 0
 456.667 1132 539 1149 625 1149 c 0
 801 1149 931.333 1100.67 1016 1004 c 2
 1044 966 l 2
 1090 898 1113 813.667 1113 713 c 2
 1113 507 l 1
 1161 499.667 1202 481.667 1236 453 c 0
 1272.67 421 1297.67 371.333 1311 304 c 0
 1315 284 1317 264 1317 244 c 0
 1317 176 1304.67 122.667 1280 84 c 0
 1277.33 78.6667 1273.33 73.3333 1268 68 c 0
 1226.67 25.3333 1179.67 0.333333 1127 -7 c 0
 1112.33 -8.33333 1101 -9.33333 1093 -10 c 2
 1053 -8 l 2
 1009.67 -0.666667 974.333 16 947 42 c 0
 911.667 75.3333 894 116 894 164 c 1
 839.333 119.333 772 74.6667 692 30 c 2
 644 6 l 2
 614 -6.66667 582.667 -13 550 -13 c 0
 507.333 -13 468.667 -1.66667 434 21 c 0
 380.667 55 354 120.667 354 218 c 2
 354 393 l 1
 335.333 374.333 309.333 365 276 365 c 0
 220.667 365 178.667 389.333 150 438 c 0
 130.667 470.667 121 508 121 550 c 0
 121 574 124 598.333 130 623 c 0
 140 663 165.667 697.667 207 727 c 0
 243.667 753 283 766 325 766 c 0
 401.667 766 462.667 746 508 706 c 0
 551.333 666.667 573 612.667 573 544 c 2
 573 377 l 2
 573 321.667 574 290 576 282 c 0
 578.667 269.333 587.333 260.333 602 255 c 1
 621 253 l 1
 663.667 255.667 731 294 823 368 c 0
 856.333 396 879.667 416.667 893 430 c 1
 893 714 l 2
298 645 m 0
 274 645 255.333 631.333 242 604 c 0
 235.333 590.667 232 576 232 560 c 0
 234.667 523.333 247.667 498 271 484 c 0
 280.333 478.667 289.667 476 299 476 c 0
 334.333 479.333 352 505 352 553 c 2
 352 564 l 2
 352 618 334 645 298 645 c 0
1096 317 m 1
 1096 222 l 2
 1096 186.667 1103 166 1117 160 c 0
 1121.67 157.333 1128 156 1136 156 c 0
 1158 156 1169 177 1169 219 c 0
 1168.33 256.333 1156.33 284.667 1133 304 c 0
 1122.33 312.667 1110 317 1096 317 c 1
EndSplineSet
EndChar
StartChar: uni0E0A
Encoding: 131 3594 133
Width: 1390
Flags: W
HStem: 0 210<751 991> 1129 20G<462 516>
VStem: 382 132<704.55 793.667> 531 220<210 588.633> 991 220<210 610.104>
Fore
296 662 m 1
 315 660 l 1
 338.333 662 357.333 676 372 702 c 0
 378 712.667 381.333 720.667 382 726 c 2
 383 765 l 2
 379.667 793.667 365.667 813.333 341 824 c 0
 335.667 826.667 330 828 324 828 c 1
 308 825 l 1
 298.667 820.333 290.667 812.333 284 801 c 0
 275.333 786.333 269 771 265 755 c 0
 261.667 738.333 260 725.333 260 716 c 0
 260 688 272 670 296 662 c 1
878 719 m 1
 832.667 689.667 797.667 654.333 773 613 c 0
 758.333 588.333 751 565.667 751 545 c 2
 751 298 l 2
 751 256 751 256 751 210 c 1
 870 210 l 1
 991 210 l 1
 991 276 991 276 991 298 c 2
 991 546 l 2
 991 592 984.333 625.333 971 646 c 0
 962.333 658.667 949.667 671.333 933 684 c 2
 885 715 l 1
 884.333 715 883.333 715.5 882 716.5 c 0
 880.667 717.5 879.333 718.333 878 719 c 1
841 924 m 1
 927.667 936 993.667 969.667 1039 1025 c 0
 1070.33 1064.33 1086 1110.33 1086 1163 c 2
 1086 1188 l 1
 1321 1188 l 1
 1321 1164 l 2
 1321 1086.67 1295 1013.67 1243 945 c 0
 1198.33 885 1145.33 845 1084 825 c 1
 1154 782.333 1195 731.667 1207 673 c 0
 1209.67 660.333 1211 645.667 1211 629 c 2
 1211 298 l 2
 1211 110 1211 110 1211 0 c 1
 870 0 l 1
 531 0 l 1
 531 168 531 168 531 298 c 2
 531 575 l 2
 531 623 570.667 685.667 650 763 c 2
 658 771 l 1
 654 823 638.333 865.667 611 899 c 0
 582.333 935 543 953 493 953 c 0
 485 953 478.667 952.667 474 952 c 0
 440.667 949.333 416.333 939.667 401 923 c 2
 400 922 l 1
 400 920.667 399.667 920 399 920 c 1
 450.333 914 485.333 880.667 504 820 c 0
 510.667 798 514 774 514 748 c 0
 514 684.667 493 632 451 590 c 0
 411.667 550.667 362 531 302 531 c 0
 290.667 531 282 531.333 276 532 c 0
 194.667 539.333 138.333 582 107 660 c 0
 92.3333 696 85 739 85 789 c 0
 85 800.333 85.3333 809 86 815 c 0
 96 911.667 131.667 987.667 193 1043 c 0
 264.333 1107 345 1142 435 1148 c 0
 442.333 1148.67 454 1149 470 1149 c 0
 562 1149 642 1128 710 1086 c 0
 727.333 1076 743.333 1063.67 758 1049 c 0
 790 1017 817.667 975.333 841 924 c 1
EndSplineSet
EndChar
StartChar: uni0E0B
Encoding: 132 3595 134
Width: 1450
Flags: W
HStem: 0 210<823 1063>
VStem: 366 132<630.55 719.667> 603 220<210 578.564> 1063 220<210 610.104>
Fore
280 588 m 1
 299 586 l 1
 322.333 588 341.333 602 356 628 c 0
 362 638.667 365.333 646.667 366 652 c 2
 367 691 l 2
 363.667 719.667 349.667 739.333 325 750 c 0
 319.667 752.667 314 754 308 754 c 1
 292 751 l 1
 282.667 746.333 274.667 738.333 268 727 c 0
 259.333 712.333 253 697 249 681 c 0
 245.667 664.333 244 651.333 244 642 c 0
 244 614 256 596 280 588 c 1
821 1050 m 2
 855 1018 885.667 976 913 924 c 1
 999.667 936 1065.67 969.667 1111 1025 c 0
 1142.33 1064.33 1158 1110.33 1158 1163 c 2
 1158 1188 l 1
 1393 1188 l 1
 1393 1164 l 2
 1393 1086.67 1367 1013.67 1315 945 c 0
 1293.67 915.667 1271.33 892.333 1248 875 c 0
 1226 857 1201.33 842.667 1174 832 c 0
 1170 830 1164 827.667 1156 825 c 1
 1226 782.333 1267 731.667 1279 673 c 0
 1281.67 660.333 1283 645.667 1283 629 c 2
 1283 298 l 2
 1283 110 1283 110 1283 0 c 1
 942 0 l 1
 603 0 l 1
 603 168 603 168 603 298 c 2
 603 575 l 2
 603 623 642.667 685.667 722 763 c 2
 730 771 l 1
 727.333 806.333 714.667 845 692 887 c 0
 683.333 903 673.667 917 663 929 c 1
 567 857 466 857 360 929 c 1
 342 904.333 330.333 883.333 325 866 c 2
 324.333 865.333 324 864 324 862 c 1
 403.333 862 456.333 826.667 483 756 c 0
 493 729.333 498 702 498 674 c 0
 498 610.667 477 558 435 516 c 0
 395.667 476.667 346 457 286 457 c 0
 274.667 457 266 457.333 260 458 c 0
 192 464 140.667 500.333 106 567 c 0
 84.6667 608.333 74 653.667 74 703 c 0
 74 712.333 74.6667 725 76 741 c 0
 87.3333 821.667 102.333 882.333 121 923 c 0
 133 948.333 148.667 973.667 168 999 c 0
 206.667 1048.33 253.667 1090 309 1124 c 0
 331 1136.67 348 1145 360 1149 c 1
 519 1041 l 1
 663 1149 l 1
 701 1139 746.333 1112 799 1068 c 2
 821 1050 l 2
950 719 m 1
 904.667 689.667 869.667 654.333 845 613 c 0
 830.333 588.333 823 565.667 823 545 c 2
 823 298 l 2
 823 256 823 256 823 210 c 1
 942 210 l 1
 1063 210 l 1
 1063 276 1063 276 1063 298 c 2
 1063 546 l 2
 1063 592 1056.33 625.333 1043 646 c 0
 1034.33 658.667 1021.67 671.333 1005 684 c 2
 957 715 l 1
 956.333 715 955.333 715.5 954 716.5 c 0
 952.667 717.5 951.333 718.333 950 719 c 1
EndSplineSet
EndChar
StartChar: uni0E0C
Encoding: 133 3596 135
Width: 1750
Flags: W
HStem: -10 120<403.067 481.967> 929 220<484.2 817.867>
VStem: 186 220<363 490.4> 187 209<127.467 254> 515 125<148.987 251.333> 860 219<507 858.467> 1373 220<275.905 1139>
Fore
860 657 m 2xee
 860 838.333 780.667 929 622 929 c 0
 516 929 438 896.333 388 831 c 1
 462 795 514 739 544 663 c 1
 539.333 661 509.333 627.667 454 563 c 0
 422 526.333 406 464 406 376 c 2
 406 363 l 1xee
 422.667 381.667 446.333 391 477 391 c 0
 495 391.667 514 388 534 380 c 0
 555.333 370.667 573.333 358.667 588 344 c 0
 622.667 310 640 264 640 206 c 0
 640.667 184.667 637.333 160.333 630 133 c 0
 612.667 76.3333 577.667 35.3333 525 10 c 0
 495 -3.33333 463 -10 429 -10 c 0
 379.667 -8.66667 342 -2.33333 316 9 c 0
 292.667 20.3333 270 36 248 56 c 0
 210 90.6667 189.667 156.667 187 254 c 0xde
 186.333 264 186 280.333 186 303 c 2
 186 366 l 2
 186 449.333 195.333 509.333 214 546 c 0
 228.667 575.333 262 617 314 671 c 1
 267.333 726.333 201.333 766.667 116 792 c 1
 128.667 854.667 164.667 917 224 979 c 0
 329.333 1092.33 462 1149 622 1149 c 0
 772.667 1149 889.333 1102 972 1008 c 0
 1043.33 927.333 1079 815.667 1079 673 c 2
 1079 430 l 1
 1373 299 l 1
 1373.67 303.667 1374 329.667 1374 377 c 2
 1374 1139 l 1
 1593 1139 l 1
 1593 218 l 2
 1593 72 1593 72 1593 0 c 1
 1374 0 l 1
 1079 164 l 1
 1079 116 1061.33 75.3333 1026 42 c 0
 991.333 10.6667 948 -6.66667 896 -10 c 2
 880 -10 l 2
 814 -8 760.333 11.6667 719 49 c 0
 712.333 55 706 61.3333 700 68 c 0
 676 94 659.333 137.333 650 198 c 2
 646 249 l 2
 646 257 646.333 263 647 267 c 0
 654.333 345 684.333 407 737 453 c 0
 771 481.667 812 499.667 860 507 c 1
 860 657 l 2xee
875 317 m 1
 861 317 848.667 312.667 838 304 c 0
 814.667 284.667 802.667 256.333 802 219 c 0
 802 177 813 156 835 156 c 0
 856.333 156 869 167.333 873 190 c 0
 874.333 200.667 875 211.333 875 222 c 2
 875 317 l 1
449 110 m 0
 473.667 110 492.667 124 506 152 c 0
 512 165.333 515 179.667 515 195 c 0
 511.667 238.333 497 265.333 471 276 c 0
 465 278.667 457.667 280 449 280 c 0
 418.333 280 401 260 397 220 c 0
 396.333 216.667 396 211.333 396 204 c 0xde
 396 141.333 413.667 110 449 110 c 0
EndSplineSet
EndChar
StartChar: uni0E0D
Encoding: 134 3597 136
Width: 1745
Flags: HW
HStem: -10 120<458.067 537.577> 0 210<1135 1360> 929 220<539.2 872>
VStem: 241 220<363 490.4> 242 209<127.467 254> 570 125<148.987 251.333> 915 220<210 815> 1360 220<210 1139>
Fore
1104 -22 m 2x27
 1164 -24.6667 1207.33 -48 1234 -92 c 0
 1248.67 -115.333 1256 -144 1256 -178 c 0
 1256 -186.667 1255.67 -193.333 1255 -198 c 0
 1253 -222.667 1241.67 -245 1221 -265 c 1
 1319 -246.333 1386.33 -195.667 1423 -113 c 0
 1434.33 -87.6667 1441.33 -61.3333 1444 -34 c 1
 1614 -48 l 1
 1610.67 -138 1578.33 -217.333 1517 -286 c 2
 1484 -319 l 2
 1434 -363 1374.33 -392.667 1305 -408 c 0
 1276.33 -414 1246 -417 1214 -417 c 0
 1086 -417 999.333 -378 954 -300 c 2
 945 -282 l 2
 933.667 -255.333 928 -227.667 928 -199 c 0
 929.333 -137.667 949.667 -90.6667 989 -58 c 0
 1017 -34 1052 -22 1094 -22 c 2
 1104 -22 l 2x27
1071 -235 m 1
 1090 -237 l 1
 1112.67 -235 1128 -224 1136 -204 c 1
 1136 -202.667 1136.33 -201.333 1137 -200 c 0
 1138 -198 1138 -198 1139 -196 c 1
 1139 -176 l 2
 1136.33 -154.667 1124.67 -140.333 1104 -133 c 1
 1102 -133 1100.67 -132.667 1100 -132 c 1
 1078 -130 l 1
 1060 -136 l 2
 1051.33 -140 1044.67 -146.333 1040 -155 c 2
 1034 -171 l 1
 1033 -191 l 1
 1035 -212.333 1047.67 -227 1071 -235 c 1
EndSplineSet
Refer: 256 63247 S 1 0 0 1 0 0 2
Substitution: 0 65534 'nds0' uni0E0D.descless
Substitution: 0 65534 'ndsc' uni0E0D.descless
EndChar
StartChar: uni0E0E
Encoding: 135 3598 137
Width: 1375
Flags: W
HStem: -430 157<462.785 543.291> -132 142<540.047 644.391> -10 120<255.87 334.933> 929 220<630.2 963.867>
VStem: 332 220<363 490.4> 342 210<160.867 303> 1006 220<-155 857.6>
AnchorPoint: "BelowBase" 1226 -453 basechar 0
Fore
1006 657 m 2xda
 1006 838.333 926.667 929 768 929 c 0
 662 929 584 896.333 534 831 c 1
 608 795 660 739 690 663 c 1
 685.333 661 655.333 627.667 600 563 c 0
 568 526.333 552 464 552 376 c 2xda
 552 303 l 2
 552 193.667 537.667 118.667 509 78 c 0
 505.667 72.6667 499.333 65.3333 490 56 c 0
 446.667 16 397.333 -5.66667 342 -9 c 0
 337.333 -9.66667 326.333 -10 309 -10 c 0xb6
 235 -10 178 17.6667 138 73 c 0
 124.667 91 114.667 111 108 133 c 0
 100.667 160.333 97.3333 184.667 98 206 c 0
 98 264 115.333 310 150 344 c 0
 181.333 375.333 218 391 260 391 c 0
 272 391.667 284.333 390 297 386 c 0
 311 380.667 322.667 373 332 363 c 1
 332 384 l 2
 332 455.333 341.333 509.333 360 546 c 0
 374.667 575.333 408 617 460 671 c 1
 413.333 726.333 347.333 766.667 262 792 c 1
 274.667 854.667 310.667 917 370 979 c 0
 475.333 1092.33 608 1149 768 1149 c 0
 918.667 1149 1035.33 1102 1118 1008 c 0
 1190 926.667 1226 815 1226 673 c 2
 1226 -410 l 1
 1006 -410 l 1
 945.333 -322 880.667 -258.667 812 -220 c 1
 769.333 -302 715 -360.333 649 -395 c 0
 647 -395.667 644.667 -396.667 642 -398 c 0
 597.333 -419.333 547.333 -430 492 -430 c 0
 406 -430 342 -405 300 -355 c 0
 298 -353 296.667 -351.333 296 -350 c 0
 274.667 -322.667 264 -291 264 -255 c 0
 264 -233.667 267.333 -213 274 -193 c 0
 293.333 -133 329 -84.3333 381 -47 c 0
 401.667 -33 421.333 -22.6667 440 -16 c 0
 486.667 1.33333 536.333 10 589 10 c 0
 638.333 10 688 2.66667 738 -12 c 1
 820 142 l 1
 956 88 l 1
 878 -67 l 1
 912.667 -80.3333 949.333 -103.667 988 -137 c 2
 1006 -155 l 1
 1006 657 l 2xda
289 110 m 0xb6
 324.333 110 342 141.333 342 204 c 0
 342 249.333 327.667 274.333 299 279 c 0
 297 279.667 293.667 280 289 280 c 0
 260.333 280 240.333 262 229 226 c 0
 226.333 217.333 224.333 207 223 195 c 0
 223 158.333 235.333 132.667 260 118 c 0
 269.333 112.667 279 110 289 110 c 0xb6
455 -252 m 0
 463.667 -266 478.333 -273 499 -273 c 0
 522.333 -273 551.667 -263 587 -243 c 0
 599.667 -236.333 617.333 -217.667 640 -187 c 0
 650 -174.333 657 -163.333 661 -154 c 1
 644.333 -139.333 619.333 -132 586 -132 c 2
 579 -132 l 2xd2
 543 -134 510.667 -144.667 482 -164 c 0
 464.667 -178 453.667 -196 449 -218 c 1
 449 -237 l 1
 449.667 -241.667 451.667 -246.667 455 -252 c 0
EndSplineSet
EndChar
StartChar: uni0E0F
Encoding: 136 3599 138
Width: 1375
Flags: W
HStem: -429 136<372.756 455.54> -10 120<254.87 333.933> 929 220<629.2 962>
VStem: 331 220<363 490.4> 341 210<160.867 303> 1005 220<-61 857.6>
AnchorPoint: "BelowBase" 1225 -453 basechar 0
Fore
288 110 m 0xec
 323.333 110 341 141.333 341 204 c 0
 341 249.333 326.667 274.333 298 279 c 0
 296 279.667 292.667 280 288 280 c 0
 258.667 280 238.667 262 228 226 c 0
 225.333 217.333 223.333 207 222 195 c 0
 222 158.333 234.333 132.667 259 118 c 0
 268.333 112.667 278 110 288 110 c 0xec
1005 657 m 2
 1003.67 838.333 924.333 929 767 929 c 0
 661 929 583 896.333 533 831 c 1
 607 795 659 739 689 663 c 1
 684.333 661 654.333 627.667 599 563 c 0
 567 526.333 551 464 551 376 c 2xf4
 551 303 l 2
 551 193.667 536.667 118.667 508 78 c 0
 504.667 72.6667 498.333 65.3333 489 56 c 0
 445.667 16 396.333 -5.66667 341 -9 c 0xec
 336.333 -9.66667 325.333 -10 308 -10 c 0
 234 -10 177 17.6667 137 73 c 0
 124.333 91 114.333 111 107 133 c 0
 99.6667 160.333 96.3333 184.667 97 206 c 0
 97 264 114.333 310 149 344 c 0
 180.333 375.333 217 391 259 391 c 0
 271 391.667 283.333 390 296 386 c 0
 310 380.667 321.667 373 331 363 c 1
 331 384 l 2xf4
 331 455.333 340.333 509.333 359 546 c 0
 373.667 575.333 407 617 459 671 c 1
 412.333 726.333 346.333 766.667 261 792 c 1
 273.667 854.667 309.667 917 369 979 c 0
 474.333 1092.33 607 1149 767 1149 c 0
 917 1149 1033.67 1102 1117 1008 c 0
 1189 926.667 1225 815 1225 673 c 2
 1225 -410 l 1
 1008 -410 l 1
 989.333 -314.667 957 -260.333 911 -247 c 1
 893 -245 l 2
 861.667 -245 826.667 -283.333 788 -360 c 0
 778.667 -378.667 772 -393 768 -403 c 1
 732.667 -342.333 704.667 -302.667 684 -284 c 2
 674 -276 l 1
 642 -323.333 608.667 -359.333 574 -384 c 0
 531.333 -414 476.667 -429 410 -429 c 0
 394 -429 378 -428 362 -426 c 0
 300.667 -419.333 253.667 -391 221 -341 c 0
 200.333 -310.333 190 -274.667 190 -234 c 0
 190 -162 223.333 -103 290 -57 c 0
 345.333 -19.6667 409.333 -0.333333 482 1 c 2
 533 -3 l 2
 567.667 -8.33333 600 -18 630 -32 c 1
 716 119 l 1
 843 73 l 1
 760 -90 l 1
 768.667 -97.3333 776.667 -108 784 -122 c 1
 808.667 -77.3333 835.333 -44.3333 864 -23 c 0
 874.667 -14.3333 884.333 -10 893 -10 c 0
 923 -10 960.333 -27 1005 -61 c 1
 1005 657 l 2
358 -268 m 0
 370.667 -284.667 388.333 -293 411 -293 c 0
 434.333 -293 464 -283 500 -263 c 0
 514 -253 530.667 -233.667 550 -205 c 0
 558.667 -192.333 564.667 -181.667 568 -173 c 1
 553.333 -159 523.333 -152 478 -152 c 0
 442 -152 411.667 -160 387 -176 c 0
 370.333 -187.333 358.667 -203.333 352 -224 c 1
 349 -245 l 1
 349.667 -252.333 351.667 -258.333 355 -263 c 0
 356.333 -265.667 357.333 -267.333 358 -268 c 0
EndSplineSet
EndChar
StartChar: uni0E10
Encoding: 137 3600 139
Width: 1130
Flags: HW
HStem: -541 106<207.414 273.711> -346 112<233.868 351.053> -10 21<532.5 719.5> 856 208<806.255 951.662> 940 209<422 602.1>
VStem: 111 115<389.7 493.325> 346 220<219.3 289 385.6 510> 596 84<-179.334 -130.626> 686 220<233 573>
Fore
747 -319 m 1xe780
 747 -273 l 1
 720 -276 l 2
 686.667 -275.333 658.333 -265.333 635 -246 c 0
 609 -226 596 -200 596 -168 c 0
 596 -153.333 599 -138.667 605 -124 c 0
 613 -95.3333 635.333 -71.6667 672 -53 c 0
 695.333 -40.3333 720 -34 746 -34 c 0
 801.333 -34 845.333 -44.6667 878 -66 c 0
 911.333 -88 930 -128.333 934 -187 c 0
 934.667 -194.333 935 -206.333 935 -223 c 2
 935 -530 l 1
 752 -530 l 1
 732 -479.333 703 -452.667 665 -450 c 0
 634.333 -450 601.667 -473.333 567 -520 c 2
 560 -529 l 1
 536.667 -495 502.333 -458 457 -418 c 1
 429.667 -454 396 -484 356 -508 c 0
 314.667 -530 272.333 -541 229 -541 c 0
 186.333 -541 150.333 -530.667 121 -510 c 0
 107.667 -500.667 96.3333 -490 87 -478 c 0
 74.3333 -463.333 68 -442 68 -414 c 0
 68 -382.667 75.6667 -353.333 91 -326 c 0
 98.3333 -312.667 106 -302 114 -294 c 0
 157.333 -254.667 212.667 -234.667 280 -234 c 0
 321.333 -234 354.333 -239 379 -249 c 2
 402 -258 l 1
 433 -217 l 2
 438.333 -209 443.333 -200.667 448 -192 c 1
 568 -239 l 1
 525 -306 l 1
 532.333 -308.667 545.333 -318.667 564 -336 c 1
 588 -300 621.667 -282 665 -282 c 0
 697 -282 724.333 -294.333 747 -319 c 1xe780
732 -106 m 1
 709.333 -106 693.333 -116 684 -136 c 0
 681.333 -141.333 680 -147.667 680 -155 c 0
 680 -161.667 681 -168 683 -174 c 0
 691 -193.333 705.667 -203.667 727 -205 c 2
 731 -205 l 2
 752.333 -205 766.667 -195.333 774 -176 c 1
 777 -158 l 1
 775.667 -130.667 764.333 -114 743 -108 c 2
 732 -106 l 1
200 -418 m 1
 211.333 -429.333 224 -435 238 -435 c 0
 245.333 -435 254.667 -433.333 266 -430 c 0
 275.333 -427.333 285.333 -423.333 296 -418 c 0
 308 -412 323.667 -397.333 343 -374 c 2
 347.667 -370 351.333 -365.333 354 -360 c 1
 340.667 -350.667 320.667 -346 294 -346 c 0
 266.667 -346 242.667 -351.333 222 -362 c 0
 203.333 -374 194 -387.333 194 -402 c 0
 194 -407.333 196 -412.667 200 -418 c 1
EndSplineSet
Refer: 241 63232 N 1 0 0 1 0 0 2
Substitution: 0 65534 'nds0' uni0E10.descless
Substitution: 0 65534 'ndsc' uni0E10.descless
EndChar
StartChar: uni0E11
Encoding: 138 3601 140
Width: 1700
Flags: W
HStem: 0 21G<645 919 1323 1543>
VStem: 421 132<630.55 719.667> 645 220<410 637.4> 1323 220<0 746.578>
Fore
335 588 m 1
 354 586 l 1
 376.667 588 395.667 602 411 628 c 0
 417 638.667 420.333 646.667 421 652 c 2
 422 691 l 2
 418.667 719.667 404.667 739.333 380 750 c 0
 374.667 752.667 369 754 363 754 c 1
 347 751 l 1
 338.333 746.333 330.333 738.333 323 727 c 0
 314.333 712.333 308 697 304 681 c 0
 300.667 664.333 299 651.333 299 642 c 0
 299 614 311 596 335 588 c 1
645 0 m 1
 645 575 l 2
 645 623.667 682 680.333 756 745 c 0
 761.333 750.333 771.333 759 786 771 c 1
 782.667 806.333 769.667 845 747 887 c 0
 738.333 903 728.667 917 718 929 c 1
 622 857 521 857 415 929 c 1
 397 904.333 385.333 883.333 380 866 c 2
 379.333 865.333 379 864 379 862 c 1
 458.333 862 511.333 826.667 538 756 c 0
 548 729.333 553 702 553 674 c 0
 553 610.667 532 558 490 516 c 0
 450.667 476.667 401 457 341 457 c 0
 329.667 457 321 457.333 315 458 c 0
 247 464 195.667 500.333 161 567 c 0
 139.667 608.333 129 653.667 129 703 c 0
 129 712.333 129.667 725 131 741 c 0
 142.333 821.667 157.333 882.333 176 923 c 0
 188 948.333 203.667 973.667 223 999 c 0
 261.667 1048.33 308.667 1090 364 1124 c 0
 386 1136.67 403 1145 415 1149 c 1
 574 1041 l 1
 718 1149 l 1
 763.333 1137 806.667 1111.67 848 1073 c 2
 872 1049 l 2
 910 1012.33 941.667 960.667 967 894 c 0
 983.667 850.667 992 809.667 992 771 c 1
 907.333 688.333 865 623 865 575 c 2
 865 410 l 1
 1141 990 l 2
 1175 1068 1228.67 1115 1302 1131 c 0
 1318.67 1134.33 1333.67 1136 1347 1136 c 0
 1369.67 1134.67 1388 1132 1402 1128 c 0
 1466 1110 1508.67 1067.33 1530 1000 c 0
 1538.67 974 1543 944 1543 910 c 2
 1543 0 l 1
 1323 0 l 1
 1323 659 l 2
 1323 710.333 1320.67 740.333 1316 749 c 0
 1314 753 1310 757 1304 761 c 0
 1300.67 763.667 1296.67 765 1292 765 c 1
 1278 761 l 1
 1266 753 l 1
 1263.33 750.333 1261.33 746.667 1260 742 c 1
 919 0 l 1
 645 0 l 1
EndSplineSet
EndChar
StartChar: uni0E12
Encoding: 139 3602 141
Width: 1850
Flags: W
HStem: 0 21G<224 464 1468 1687> 1119 20G<1468 1687>
VStem: 142 216<576.005 749.846> 397 97<485.899 580.898> 614 178<492.369 614.492> 769 127<197.544 270.519> 953 220<507 755.266> 1467 220<275.905 1139>
Fore
1173 677 m 2xfb
 1173 430 l 1
 1467 299 l 1
 1467.67 303.667 1468 329.667 1468 377 c 2
 1468 1139 l 1
 1687 1139 l 1
 1687 218 l 2
 1687 72 1687 72 1687 0 c 1
 1468 0 l 1
 1173 164 l 1
 1173 116 1155.33 75.3333 1120 42 c 0
 1084 8 1041.33 -9.33333 992 -10 c 2
 974 -10 l 2
 928 -7.33333 890 6.66667 860 32 c 2
 827 63 l 1
 826.333 64.3333 825 66 823 68 c 0
 799 94 782.333 137.333 773 198 c 2
 769 249 l 2xf7
 769 257 769.333 263 770 267 c 0
 777.333 344.333 804.667 404.333 852 447 c 2
 860 453 l 2
 886.667 473.667 917.667 491.667 953 507 c 1
 953 664 l 2
 953 734 945.333 782.667 930 810 c 0
 909.333 848 878 881 836 909 c 1
 663 793 l 1
 499 909 l 1
 445 885.667 407.333 850 386 802 c 0
 367.333 762 358 711.333 358 650 c 0
 358 554.667 384.667 422 438 252 c 2
 443 234 l 1
 475 246.667 505.333 272.667 534 312 c 0
 544 326.667 551 339 555 349 c 1
 535 349 l 1
 512.333 353 490.667 362.667 470 378 c 0
 428.667 409.333 405 450 399 500 c 2
 397 547 l 2
 397.667 628.333 428.667 684.667 490 716 c 1
 515.333 734.667 551.667 744 599 744 c 0
 632.333 744 661 738.333 685 727 c 0
 756.333 693 792 622.333 792 515 c 0
 792 498.333 791.667 485.667 791 477 c 0
 782.333 339 727.333 220 626 120 c 0
 620.667 114 612 105.667 600 95 c 0
 553.333 53 508 21.3333 464 0 c 1
 224 0 l 1
 224 108 l 2
 224 147.333 211.667 230 187 356 c 0
 157 510 142 626.667 142 706 c 0
 142 749.333 145.667 789.333 153 826 c 0
 176.333 936.667 232.333 1022.67 321 1084 c 0
 373 1120 432.333 1141.67 499 1149 c 1
 663 1033 l 1
 836 1149 l 1
 948 1123.67 1033.67 1069.33 1093 986 c 0
 1146.33 912.667 1173 809.667 1173 677 c 2xfb
969 317 m 1
 955 317 942.667 312.667 932 304 c 0
 908.667 284.667 896.667 256.333 896 219 c 0
 896 177 907 156 929 156 c 0
 950.333 156 963 167.333 967 190 c 0
 968.333 200.667 969 211.333 969 222 c 2
 969 317 l 1
568 624 m 1
 550 620 l 2
 531.333 613.333 519.333 605.667 514 597 c 0
 501.333 579.667 494.667 562.667 494 546 c 0
 492 525.333 495.667 506.333 505 489 c 0
 517.667 467 533 455.667 551 455 c 0
 569.667 454.333 585 461.333 597 476 c 0
 605 487.333 610.667 507.667 614 537 c 0xfb
 617.333 567 614.333 588.667 605 602 c 0
 595 614.667 582.667 622 568 624 c 1
EndSplineSet
EndChar
StartChar: uni0E13
Encoding: 140 3603 142
Width: 1900
Flags: W
HStem: -10 120<416.067 495.577> 929 220<497.2 830>
VStem: 199 220<363 490.4> 200 209<127.467 254> 528 125<148.987 251.333> 873 219<281 858.467> 1387 219<507 1139>
Fore
1092 673 m 2xee
 1092 377 l 1
 1092 281 l 1
 1387 430 l 1
 1387 1139 l 1
 1606 1139 l 1
 1606 507 l 1
 1654 499.667 1695 481.667 1729 453 c 0
 1781.67 407 1811.67 345 1819 267 c 2
 1819 220 l 2
 1814.33 161.333 1799.67 114.333 1775 79 c 2
 1766 68 l 2
 1725.33 23.3333 1674.67 -2 1614 -8 c 2
 1586 -10 l 1
 1546 -7 l 2
 1502.67 0.333333 1467.33 16.6667 1440 42 c 0
 1404.67 75.3333 1387 116 1387 164 c 1
 1092 0 l 1
 873 0 l 1
 873 72 873 72 873 218 c 2
 873 657 l 2
 873 838.333 793.667 929 635 929 c 0
 529 929 451 896.333 401 831 c 1
 475 795 527 739 557 663 c 1
 552.333 661 522.333 627.667 467 563 c 0
 435 526.333 419 464 419 376 c 2
 419 363 l 1xee
 435.667 381.667 459.333 391 490 391 c 0
 508 391.667 527 388 547 380 c 0
 567.667 370.667 585.667 358.667 601 344 c 0
 635.667 310 653 264 653 206 c 0
 653.667 184.667 650.333 160.333 643 133 c 0
 626.333 76.3333 591.333 35.3333 538 10 c 0
 508 -3.33333 476 -10 442 -10 c 0
 392.667 -8.66667 355 -2.33333 329 9 c 0
 305.667 20.3333 283 36 261 56 c 0
 223 90.6667 202.667 156.667 200 254 c 0xde
 199.333 264 199 280.333 199 303 c 2
 199 366 l 2
 199 449.333 208.333 509.333 227 546 c 0
 241.667 575.333 275 617 327 671 c 1
 280.333 726.333 214.333 766.667 129 792 c 1
 141.667 854.667 177.667 917 237 979 c 0
 342.333 1092.33 475 1149 635 1149 c 0
 785 1149 901.667 1102 985 1008 c 0
 1056.33 927.333 1092 815.667 1092 673 c 2xee
1591 317 m 1
 1591 222 l 2
 1591 186.667 1598 166 1612 160 c 0
 1616.67 157.333 1623 156 1631 156 c 0
 1653 156 1664 177 1664 219 c 0
 1663.33 256.333 1651.33 284.667 1628 304 c 0
 1617.33 312.667 1605 317 1591 317 c 1
462 110 m 0
 487.333 110 506.333 124 519 152 c 0
 525 165.333 528 179.667 528 195 c 0
 524.667 238.333 510 265.333 484 276 c 0
 478 278.667 470.667 280 462 280 c 0
 431.333 280 414 260 410 220 c 0
 409.333 216.667 409 211.333 409 204 c 0xde
 409 141.333 426.667 110 462 110 c 0
EndSplineSet
EndChar
StartChar: uni0E14
Encoding: 141 3604 143
Width: 1330
Flags: W
HStem: 0 21G<222 462 951 1171> 929 220<557.2 729.381>
VStem: 140 216<555.086 722.29> 625 165<476.333 573> 951 220<0 733.835>
Fore
579 624 m 1
 543.667 618 520.333 599.333 509 568 c 0
 507 564 505.333 556.667 504 546 c 1
 506 517 l 2
 512 485 526.667 465 550 457 c 0
 555.333 455.667 559.333 455 562 455 c 2
 582 457 l 1
 606.667 463.667 621 490.333 625 537 c 2
 625 573 l 2
 621 603 605.667 620 579 624 c 1
462 0 m 1
 222 0 l 1
 222 108 l 2
 222 147.333 209.667 226.667 185 346 c 0
 155 492 140 603.333 140 680 c 0
 140 722 143.667 761.333 151 798 c 0
 174.333 908.667 230.333 994.667 319 1056 c 0
 393 1106.67 479 1136.67 577 1146 c 0
 600.333 1148 625.333 1149 652 1149 c 2
 722 1146 l 2
 807.333 1136.67 885.333 1112.67 956 1074 c 0
 1014 1042.67 1059 1004 1091 958 c 0
 1135.67 897.333 1161.33 827.667 1168 749 c 0
 1170 727 1171 703 1171 677 c 2
 1171 0 l 1
 951 0 l 1
 951 664 l 2
 951 715.333 943.333 754.667 928 782 c 0
 896 839.333 844 881.333 772 908 c 0
 733.333 922 694.667 929 656 929 c 0
 580 929 511.667 904.667 451 856 c 0
 419 830 396.667 802.667 384 774 c 0
 365.333 734 356 685 356 627 c 0
 356 542.333 380 425.667 428 277 c 2
 441 234 l 1
 473 246.667 503.333 272.667 532 312 c 0
 542 326.667 549 339 553 349 c 1
 533 349 l 1
 510.333 353 488.667 362.667 468 378 c 0
 426.667 409.333 403 450 397 500 c 2
 395 547 l 2
 395.667 628.333 426.667 684.667 488 716 c 1
 513.333 734.667 549.667 744 597 744 c 0
 630.333 744 659 738.333 683 727 c 0
 754.333 693 790 622.667 790 516 c 0
 790 498.667 789.667 485.667 789 477 c 0
 780.333 339 725.333 220 624 120 c 0
 618.667 114 610 105.667 598 95 c 0
 551.333 53 506 21.3333 462 0 c 1
EndSplineSet
EndChar
StartChar: uni0E15
Encoding: 142 3605 144
Width: 1330
Flags: W
HStem: 0 21G<222 462 951 1171>
VStem: 140 216<576.005 749.846> 625 165<476.333 573> 951 220<0 755.266>
Fore
579 624 m 1
 543.667 618 520.333 599.333 509 568 c 0
 507 564 505.333 556.667 504 546 c 1
 506 517 l 2
 512 485 526.667 465 550 457 c 0
 555.333 455.667 559.333 455 562 455 c 2
 582 457 l 1
 606.667 463.667 621 490.333 625 537 c 2
 625 573 l 2
 621 603 605.667 620 579 624 c 1
462 0 m 1
 222 0 l 1
 222 108 l 2
 222 147.333 209.667 230 185 356 c 0
 155 510 140 626.667 140 706 c 0
 140 749.333 143.667 789.333 151 826 c 0
 174.333 936.667 230.333 1022.67 319 1084 c 0
 371 1120 430.333 1141.67 497 1149 c 1
 661 1033 l 1
 834 1149 l 1
 946 1123.67 1031.67 1069.33 1091 986 c 0
 1144.33 912.667 1171 809.667 1171 677 c 2
 1171 0 l 1
 951 0 l 1
 951 664 l 2
 951 734 943.333 782.667 928 810 c 0
 907.333 848 876 881 834 909 c 1
 661 793 l 1
 497 909 l 1
 443 885.667 405.333 850 384 802 c 0
 365.333 762 356 711.333 356 650 c 0
 356 554.667 382.667 422 436 252 c 2
 441 234 l 1
 473 246.667 503.333 272.667 532 312 c 0
 542 326.667 549 339 553 349 c 1
 533 349 l 1
 510.333 353 488.667 362.667 468 378 c 0
 426.667 409.333 403 450 397 500 c 2
 395 547 l 2
 395.667 628.333 426.667 684.667 488 716 c 1
 513.333 734.667 549.667 744 597 744 c 0
 630.333 744 659 738.333 683 727 c 0
 754.333 693 790 622.667 790 516 c 0
 790 498.667 789.667 485.667 789 477 c 0
 780.333 339 725.333 220 624 120 c 0
 618.667 114 610 105.667 598 95 c 0
 551.333 53 506 21.3333 462 0 c 1
EndSplineSet
EndChar
StartChar: uni0E16
Encoding: 143 3606 145
Width: 1240
Flags: W
HStem: -10 120<405.067 483.967> 929 220<486.2 819.867>
VStem: 188 220<363 490.4> 189 209<127.467 260> 517 125<148.987 251.333> 862 220<0 857.6>
Fore
408 376 m 2xec
 408 363 l 1xec
 424.667 381.667 448.333 391 479 391 c 0
 497 391.667 516 388 536 380 c 0
 557.333 370.667 575.333 358.667 590 344 c 0
 624.667 310 642 264 642 206 c 0
 642.667 184.667 639.333 160.333 632 133 c 0
 614.667 76.3333 579.667 35.3333 527 10 c 0
 497 -3.33333 465 -10 431 -10 c 0
 381.667 -8.66667 344 -2.33333 318 9 c 0
 294.667 20.3333 272 36 250 56 c 0
 212 90.6667 191.667 156.667 189 254 c 0xdc
 188.333 264 188 280.333 188 303 c 2
 188 366 l 2
 188 449.333 197.333 509.333 216 546 c 0
 230.667 575.333 264 617 316 671 c 1
 269.333 726.333 203.333 766.667 118 792 c 1
 130.667 854.667 166.667 917 226 979 c 0
 331.333 1092.33 464 1149 624 1149 c 0
 774.667 1149 891.333 1102 974 1008 c 0
 1046 926.667 1082 815 1082 673 c 2
 1082 0 l 1
 862 0 l 1
 862 657 l 2
 862 838.333 782.667 929 624 929 c 0
 518 929 440 896.333 390 831 c 1
 464 795 516 739 546 663 c 1
 541.333 661 511.333 627.667 456 563 c 0
 424 526.333 408 464 408 376 c 2xec
451 110 m 0
 475.667 110 494.667 124 508 152 c 0
 514 165.333 517 179.667 517 195 c 0
 513.667 238.333 499 265.333 473 276 c 0
 467 278.667 459.667 280 451 280 c 0
 420.333 280 403 260 399 220 c 2
 398 204 l 2xdc
 398 141.333 415.667 110 451 110 c 0
EndSplineSet
EndChar
StartChar: uni0E17
Encoding: 144 3607 146
Width: 1350
Flags: W
HStem: 0 21G<318 592 996 1216> 752 105<268 330.543> 1026 123<271.394 335.233>
VStem: 121 116<896.979 986.509> 318 220<410 759> 357 181<879.022 1004.41> 996 220<0 746.578>
Fore
538 410 m 1xfa
 814 990 l 2
 848 1068 901.667 1115 975 1131 c 0
 991.667 1134.33 1006.67 1136 1020 1136 c 0
 1042.67 1134.67 1061 1132 1075 1128 c 0
 1139 1110 1181.67 1067.33 1203 1000 c 0
 1211.67 974 1216 944 1216 910 c 2
 1216 0 l 1
 996 0 l 1
 996 659 l 2
 996 710.333 993.667 740.333 989 749 c 0
 987 753 983 757 977 761 c 0
 973.667 763.667 969.667 765 965 765 c 1
 951 761 l 2
 943.667 758.333 937.667 752 933 742 c 2
 592 0 l 1
 318 0 l 1
 318 759 l 1xfa
 310.667 754.333 294 752 268 752 c 2
 257 752 l 2
 228.333 755.333 200.667 768.667 174 792 c 0
 138.667 823.333 121 866.667 121 922 c 0
 121 945.333 124.667 972.667 132 1004 c 0
 143.333 1047.33 170.333 1084 213 1114 c 0
 246.333 1137.33 286.667 1149 334 1149 c 0
 388.667 1148.33 434 1130.33 470 1095 c 0
 515.333 1051.67 538 980.333 538 881 c 2xf6
 538 410 l 1xfa
302 1026 m 0
 283.333 1026 266.333 1015.33 251 994 c 0
 241.667 976.667 237 959 237 941 c 0
 237 921 242.667 902.667 254 886 c 0
 267.333 866.667 283.667 857 303 857 c 0
 321 857 335.333 865.333 346 882 c 0
 353.333 895.333 357 916.333 357 945 c 0xf6
 357 975 352 996 342 1008 c 0
 332 1020 318.667 1026 302 1026 c 0
EndSplineSet
EndChar
StartChar: uni0E18
Encoding: 145 3608 147
Width: 1250
Flags: W
HStem: 0 210<470 804> 856 208<924.134 1069.68> 940 209<539.667 721.4>
VStem: 250 220<210 650> 804 220<210 572.333>
Fore
804 529 m 2xb8
 804 562.333 789 587 759 603 c 2
 680 636 l 2
 572.667 671.333 397.667 706.667 155 742 c 1
 173 829.333 200 901 236 957 c 0
 272.667 1015 324.333 1062.33 391 1099 c 0
 452.333 1132.33 530 1149 624 1149 c 0xb8
 701.333 1149 773 1133.67 839 1103 c 0
 895.667 1077 955 1064 1017 1064 c 0
 1042.33 1064 1067.33 1066.67 1092 1072 c 1
 1053 862 l 1
 1036.33 858 1016.67 856 994 856 c 0xd8
 974 855.333 951.667 857 927 861 c 0
 885.667 867 852 876.333 826 889 c 0
 765.333 917.667 701 934.667 633 940 c 2
 613 941 l 2
 539.667 941 493.667 924.667 475 892 c 1
 678.333 853.333 814.333 815.333 883 778 c 0
 977 728 1024 659.667 1024 573 c 2
 1024 303 l 2
 1024 99 1024 99 1024 0 c 1
 788 0 788 0 624 0 c 0
 305 0 305 0 250 0 c 1
 250 266 250 266 250 314 c 2
 250 650 l 1
 470 650 l 1
 470 314 l 2
 470 248 470 248 470 210 c 1
 624 210 l 1
 804 210 l 1
 804 290 804 290 804 314 c 2
 804 529 l 2xb8
EndSplineSet
EndChar
StartChar: uni0E19
Encoding: 146 3609 148
Width: 1400
Flags: W
HStem: 0 21G<360 579> 748 111<275.15 335.034> 1028 121<273.825 352.8>
VStem: 127 113<895.333 967.214> 360 219<281 776 873.6 1001> 919 220<507 1139> 1197 146<164.4 270.519>
Fore
360 776 m 1
 341.333 757.333 315.333 748 282 748 c 0
 226.667 748 184.667 772.333 156 821 c 0
 136.667 853.667 127 891 127 933 c 0
 127 956.333 130 980.667 136 1006 c 0
 146 1046 171.667 1080.67 213 1110 c 0
 249.667 1136 289 1149 331 1149 c 0
 407.667 1149 468.667 1129 514 1089 c 0
 557.333 1049.67 579 995.667 579 927 c 2
 579 377 l 1
 579 281 l 1
 919 430 l 1
 919 1139 l 1
 1139 1139 l 1
 1139 507 l 1
 1187 499.667 1228 481.667 1262 453 c 0
 1307.33 414.333 1333.67 356 1341 278 c 0
 1342.33 263.333 1343 252 1343 244 c 0
 1343 154.667 1329.33 95.3333 1302 66 c 0
 1260 22 1207.67 -3 1145 -9 c 0
 1139 -9.66667 1130.33 -10 1119 -10 c 2
 1078 -7 l 2
 1034.67 0.333333 999.667 16.6667 973 42 c 0
 937.667 75.3333 920 116 920 164 c 1
 579 0 l 1
 360 0 l 1
 360 218 l 1
 360 776 l 1
306 1028 m 0
 282 1028 263.333 1014.33 250 987 c 1
 242 962 l 1
 240.667 954 240 947.667 240 943 c 0
 242.667 906.333 255.667 881 279 867 c 0
 288.333 861.667 297.667 859 307 859 c 0
 342.333 862.333 360 888 360 936 c 2
 360 947 l 2
 360 1001 342 1028 306 1028 c 0
1124 317 m 1
 1124 222 l 2
 1124 186.667 1131 166 1145 160 c 0
 1149.67 157.333 1156 156 1164 156 c 0
 1186 156 1197 177 1197 219 c 0
 1196.33 256.333 1184.33 284.667 1161 304 c 0
 1150.33 312.667 1138 317 1124 317 c 1
EndSplineSet
EndChar
StartChar: uni0E1A
Encoding: 147 3610 149
Width: 1300
Flags: W
HStem: 0 210<547 933> 749 110<245.174 324.8> 1028 123<245.464 324.8>
VStem: 97 115<894.467 989.814> 327 220<210 759 873.467 986.142> 933 220<210 1139>
Fore
547 379 m 2
 547 242 547 242 547 210 c 1
 742 210 l 1
 933 210 l 1
 933 352 933 352 933 379 c 2
 933 1139 l 1
 1153 1139 l 1
 1153 273 l 2
 1153 84 1153 84 1153 0 c 1
 737 0 l 1
 327 0 l 1
 327 244 327 244 327 268 c 2
 327 759 l 1
 313 753.667 295 750.333 273 749 c 0
 240.333 749 210.667 756 184 770 c 0
 169.333 778 157.667 786.333 149 795 c 0
 114.333 829.667 97 874.333 97 929 c 0
 97 953.667 100.333 979 107 1005 c 0
 118.333 1051 145.333 1088.33 188 1117 c 0
 211.333 1133.67 236.333 1144 263 1148 c 2
 311 1151 l 2
 378.333 1151 432.333 1135.33 473 1104 c 0
 477 1101.33 480 1099 482 1097 c 0
 519.333 1061.67 540.333 999 545 909 c 2
 547 835 l 1
 547 379 l 2
278 1028 m 0
 253.333 1028 234.667 1014.67 222 988 c 0
 215.333 974.667 212 959.667 212 943 c 0
 215.333 905.667 228.333 880 251 866 c 0
 258.333 861.333 267.333 859 278 859 c 0
 314 862.333 332 887.667 332 935 c 2
 332 948 l 2
 332 1001.33 314 1028 278 1028 c 0
EndSplineSet
EndChar
StartChar: uni0E1B
Encoding: 148 3611 150
Width: 1300
Flags: HW
HStem: 0 210<547 933> 749 110<245.174 324.8> 1028 123<245.464 324.8>
VStem: 97 115<894.467 989.814> 327 220<210 759 873.467 986.142> 933 220<210 1480>
AnchorPoint: "AboveBase" 861 1227 basechar 0
Fore
547 379 m 2
 547 242 547 242 547 210 c 1
 712 210 712 210 742 210 c 2
 933 210 l 1
 933 352 933 352 933 379 c 2
 933 1480 l 1
 1153 1480 l 1
 1153 273 l 2
 1153 84 1153 84 1153 0 c 1
 737 0 l 1
 327 0 l 1
 327 244 327 244 327 268 c 2
 327 759 l 1
 313 753.667 295 750.333 273 749 c 0
 240.333 749 210.667 756 184 770 c 0
 169.333 778 157.667 786.333 149 795 c 0
 114.333 829.667 97 874.333 97 929 c 0
 97 953.667 100.333 979 107 1005 c 0
 118.333 1051 145.333 1088.33 188 1117 c 0
 211.333 1133.67 236.333 1144 263 1148 c 2
 311 1151 l 2
 378.333 1151 432.333 1135.33 473 1104 c 0
 477 1101.33 480 1099 482 1097 c 0
 519.333 1061.67 540.333 999 545 909 c 2
 547 835 l 1
 547 379 l 2
278 1028 m 0
 253.333 1028 234.667 1014.67 222 988 c 0
 215.333 974.667 212 959.667 212 943 c 0
 215.333 905.667 228.333 880 251 866 c 0
 258.333 861.333 267.333 859 278 859 c 0
 314 862.333 332 887.667 332 935 c 2
 332 948 l 2
 332 1001.33 314 1028 278 1028 c 0
EndSplineSet
EndChar
StartChar: uni0E1C
Encoding: 149 3612 151
Width: 1200
Flags: W
HStem: 0 21G<133 353 823 1043> 749 110<370.968 440.133> 1028 123<355.2 433.225>
VStem: 133 220<330 759 911 983.403> 826 217<330 1139>
Fore
133 835 m 2
 133 941.667 144.667 1016.33 168 1059 c 0
 176 1072.33 186 1085 198 1097 c 0
 234 1129.67 286.667 1147.67 356 1151 c 2
 406 1150 l 1
 407.333 1149.33 409.167 1148.83 411.5 1148.5 c 0
 413.833 1148.17 415.667 1148 417 1148 c 0
 465.667 1141.33 507.333 1115 542 1069 c 0
 558 1046.33 568.333 1025 573 1005 c 0
 579.667 979 583 954 583 930 c 2
 579 888 l 2
 571.667 850.667 555.667 819.667 531 795 c 0
 501.667 765.667 460.667 750.333 408 749 c 0
 390.667 749 374 751.667 358 757 c 2
 353 759 l 1
 353 330 l 1
 577 698 l 1
 619 698 l 1
 826 330 l 1
 823 1139 l 1
 1043 1139 l 1
 1043 268 l 2
 1043 100 1043 100 1043 0 c 1
 823 0 l 1
 600 354 l 1
 353 0 l 1
 133 0 l 1
 133 214 133 214 133 268 c 2
 133 835 l 2
402 1028 m 0
 366 1028 348 1001.33 348 948 c 2
 350 911 l 1
 357 888 l 1
 366.333 869.333 381.333 859.667 402 859 c 0
 431.333 859 451.333 876.333 462 911 c 0
 465.333 922.333 467.333 933 468 943 c 0
 468 979 455.667 1004.33 431 1019 c 0
 422.333 1025 412.667 1028 402 1028 c 0
EndSplineSet
EndChar
StartChar: uni0E1D
Encoding: 150 3613 152
Width: 1200
Flags: HW
HStem: 0 21G<133 353 823 1043> 749 110<370.968 440.133> 1028 123<355.2 433.225>
VStem: 133 220<330 759 911 983.403> 826 217<330 1480>
AnchorPoint: "AboveBase" 751 1227 basechar 0
Fore
133 835 m 2
 133 941.667 144.667 1016.33 168 1059 c 0
 176 1072.33 186 1085 198 1097 c 0
 234 1129.67 286.667 1147.67 356 1151 c 2
 406 1150 l 1
 407.333 1149.33 409.167 1148.83 411.5 1148.5 c 0
 413.833 1148.17 415.667 1148 417 1148 c 0
 465.667 1141.33 507.333 1115 542 1069 c 0
 558 1046.33 568.333 1025 573 1005 c 0
 579.667 979 583 954 583 930 c 2
 579 888 l 2
 571.667 850.667 555.667 819.667 531 795 c 0
 501.667 765.667 460.667 750.333 408 749 c 0
 390.667 749 374 751.667 358 757 c 2
 353 759 l 1
 353 330 l 1
 577 698 l 1
 619 698 l 1
 826 330 l 1
 826 1480 l 1
 1043 1480 l 1
 1043 268 l 2
 1043 100 1043 100 1043 0 c 1
 823 0 l 1
 600 354 l 1
 353 0 l 1
 133 0 l 1
 133 214 133 214 133 268 c 2
 133 835 l 2
402 1028 m 0
 366 1028 348 1001.33 348 948 c 2
 350 911 l 1
 357 888 l 1
 366.333 869.333 381.333 859.667 402 859 c 0
 431.333 859 451.333 876.333 462 911 c 0
 465.333 922.333 467.333 933 468 943 c 0
 468 979 455.667 1004.33 431 1019 c 0
 422.333 1025 412.667 1028 402 1028 c 0
EndSplineSet
EndChar
StartChar: uni0E1E
Encoding: 151 3614 153
Width: 1350
Flags: W
HStem: 0 21G<297 517 987 1207> 749 110<215.174 294.8> 1028 123<215.464 294.8>
VStem: 67 115<894.467 989.814> 297 220<500 759 873.467 986.143> 987 220<500 1139>
Fore
297 268 m 1
 297 759 l 1
 283 753.667 265 750.333 243 749 c 0
 210.333 749 180.667 756 154 770 c 0
 139.333 778 127.667 786.333 119 795 c 0
 84.3333 829.667 67 874.333 67 929 c 0
 67 953.667 70.3333 979 77 1005 c 0
 88.3333 1051 115.333 1088.33 158 1117 c 0
 181.333 1133.67 206.333 1144 233 1148 c 2
 281 1151 l 2
 348.333 1151 402.333 1135.33 443 1104 c 0
 447 1101.33 450 1099 452 1097 c 0
 489.333 1061.67 510.333 999 515 909 c 2
 517 835 l 1
 517 500 l 1
 721 1039 l 1
 778 1039 l 1
 987 500 l 1
 987 1139 l 1
 1207 1139 l 1
 1207 268 l 2
 1207 100 1207 100 1207 0 c 1
 987 0 l 1
 755 600 l 1
 517 0 l 1
 297 0 l 1
 297 268 l 1
248 1028 m 0
 223.333 1028 204.667 1014.67 192 988 c 0
 185.333 974.667 182 959.667 182 943 c 0
 185.333 905.667 198.333 880 221 866 c 0
 228.333 861.333 237.333 859 248 859 c 0
 284 862.333 302 887.667 302 935 c 2
 302 948 l 2
 302 1001.33 284 1028 248 1028 c 0
EndSplineSet
EndChar
StartChar: uni0E1F
Encoding: 152 3615 154
Width: 1450
Flags: HW
HStem: 0 21G<348 568 1038 1258> 749 110<266.174 345.8> 1028 123<266.464 345.8>
VStem: 118 115<894.467 989.814> 348 220<500 759 873.467 986.142> 1038 220<500 1480>
AnchorPoint: "AboveBase" 966 1227 basechar 0
Fore
348 268 m 1
 348 759 l 1
 334 753.667 316 750.333 294 749 c 0
 261.333 749 231.667 756 205 770 c 0
 190.333 778 178.667 786.333 170 795 c 0
 135.333 829.667 118 874.333 118 929 c 0
 118 953.667 121.333 979 128 1005 c 0
 139.333 1051 166.333 1088.33 209 1117 c 0
 232.333 1133.67 257.333 1144 284 1148 c 2
 332 1151 l 2
 399.333 1151 453.333 1135.33 494 1104 c 0
 498 1101.33 501 1099 503 1097 c 0
 540.333 1061.67 561.333 999 566 909 c 2
 568 835 l 1
 568 500 l 1
 772 1039 l 1
 829 1039 l 1
 1038 500 l 1
 1038 1480 l 1
 1258 1480 l 1
 1258 268 l 2
 1258 100 1258 100 1258 0 c 1
 1038 0 l 1
 806 600 l 1
 568 0 l 1
 348 0 l 1
 348 268 l 1
299 1028 m 0
 274.333 1028 255.667 1014.67 243 988 c 0
 236.333 974.667 233 959.667 233 943 c 0
 236.333 905.667 249.333 880 272 866 c 0
 279.333 861.333 288.333 859 299 859 c 0
 335 862.333 353 887.667 353 935 c 2
 353 948 l 2
 353 1001.33 335 1028 299 1028 c 0
EndSplineSet
EndChar
StartChar: uni0E20
Encoding: 153 3616 155
Width: 1350
Flags: W
HStem: -10 120<241.87 320.933> 929 220<616.2 949.867>
VStem: 318 220<363 490.4> 328 210<160.867 303> 992 220<0 857.6>
Fore
538 376 m 2xe8
 538 303 l 2
 538 193.667 523.667 118.667 495 78 c 0
 491.667 72.6667 485.333 65.3333 476 56 c 0
 432.667 16 383.333 -5.66667 328 -9 c 0xd8
 323.333 -9.66667 312.333 -10 295 -10 c 0
 221 -10 164 17.6667 124 73 c 0
 110.667 91 100.667 111 94 133 c 0
 86.6667 160.333 83.3333 184.667 84 206 c 0
 84 264 101.333 310 136 344 c 0
 167.333 375.333 204 391 246 391 c 0
 258 391.667 270.333 390 283 386 c 0
 297 380.667 308.667 373 318 363 c 1
 318 384 l 2
 318 455.333 327.333 509.333 346 546 c 0
 360.667 575.333 394 617 446 671 c 1
 399.333 726.333 333.333 766.667 248 792 c 1
 260.667 854.667 296.667 917 356 979 c 0
 461.333 1092.33 594 1149 754 1149 c 0
 904.667 1149 1021.33 1102 1104 1008 c 0
 1176 926.667 1212 815 1212 673 c 2
 1212 0 l 1
 992 0 l 1
 992 657 l 2
 992 838.333 912.667 929 754 929 c 0
 648 929 570 896.333 520 831 c 1
 594 795 646 739 676 663 c 1
 671.333 661 641.333 627.667 586 563 c 0
 554 526.333 538 464 538 376 c 2xe8
275 110 m 0
 310.333 110 328 141.333 328 204 c 0
 328 249.333 313.667 274.333 285 279 c 2
 275 280 l 2
 246.333 280 226.333 262 215 226 c 0
 212.333 217.333 210.333 207 209 195 c 0
 209 158.333 221.333 132.667 246 118 c 0
 255.333 112.667 265 110 275 110 c 0
EndSplineSet
EndChar
StartChar: uni0E21
Encoding: 154 3617 156
Width: 1350
Flags: W
HStem: 0 21G<934 1153> 1028 121<289.45 366.8>
VStem: 141 113<901.213 991.194> 161 155<164.4 270.519> 374 219<507 776 890.308 995.667> 934 219<281 1139>
Fore
1153 1139 m 1xec
 1153 218 l 2
 1153 72 1153 72 1153 0 c 1
 934 0 l 1
 593 164 l 1
 593 116 575.333 75.3333 540 42 c 0
 512.667 16.6667 477.333 0.333333 434 -7 c 2
 394 -10 l 2
 387.333 -10 378 -9.33333 366 -8 c 0
 305.333 -2 254.667 23.3333 214 68 c 2
 205 79 l 2
 180.333 114.333 165.667 161.333 161 220 c 2
 161 267 l 2xdc
 168.333 345 198.333 407 251 453 c 0
 285 481.667 326 499.667 374 507 c 1
 374 776 l 1
 355.333 757.333 329.333 748 296 748 c 0
 261.333 748 231.333 758.333 206 779 c 0
 162.667 814.333 141 865.333 141 932 c 0
 141 956 144 980.667 150 1006 c 0
 157.333 1032 171.667 1056.67 193 1080 c 0
 236.333 1126 287 1149 345 1149 c 0
 421.667 1149 482.667 1129 528 1089 c 0
 571.333 1049.67 593 995.667 593 927 c 2
 593 430 l 1
 934 281 l 1
 934 377 l 1
 934 1139 l 1
 1153 1139 l 1xec
320 1028 m 0
 309.333 1028 298.667 1024.33 288 1017 c 0
 265.333 1000.33 254 975.667 254 943 c 0xec
 255.333 929.667 257.667 918 261 908 c 0
 273.667 875.333 293.667 859 321 859 c 0
 349.667 862.333 366.667 879.333 372 910 c 2
 374 947 l 2
 374 1001 356 1028 320 1028 c 0
389 317 m 1
 375 317 362.667 312.667 352 304 c 0
 328.667 284.667 316.667 256.333 316 219 c 0xdc
 316 177 327 156 349 156 c 0
 357 156 363.333 157.333 368 160 c 0
 382 166 389 186.667 389 222 c 2
 389 317 l 1
EndSplineSet
EndChar
StartChar: uni0E22
Encoding: 155 3618 157
Width: 1200
Flags: W
HStem: 0 210<439 807> 494 135<514 624> 1028 121<391 464.493>
VStem: 184 197<831 981.452> 201 238<210 402.207> 807 220<210 1139>
Fore
435 1028 m 1xf4
 416 1025 l 1
 404.667 1021 396 1012.33 390 999 c 1
 383 974 l 1
 381.667 963.333 381 954.333 381 947 c 0
 381 888.333 399 859 435 859 c 2
 453 861 l 1
 477 869.667 492.667 894.667 500 936 c 0
 500.667 938 501 940.333 501 943 c 2
 500 966 l 1
 494.667 992.667 480.667 1011.33 458 1022 c 0
 451.333 1026 443.667 1028 435 1028 c 1xf4
224 477 m 0
 240.667 503 261.667 525.333 287 544 c 2
 310 562 l 1
 276.667 580 250 600.667 230 624 c 0
 199.333 660.667 184 729.667 184 831 c 0xf4
 184 906.333 187.333 957 194 983 c 0
 204.667 1024.33 227 1061 261 1093 c 0
 290.333 1120.33 324.667 1138 364 1146 c 0
 373.333 1148 382.333 1149 391 1149 c 0
 472.333 1149 531.667 1130.67 569 1094 c 0
 603 1060 624.333 1019.33 633 972 c 0
 635 960 636 948 636 936 c 0
 636 873.333 612 823.333 564 786 c 2
 545 773 l 2
 520.333 759 487 752 445 752 c 0
 428.333 752 417.667 753.333 413 756 c 1
 413 725.333 429 696.333 461 669 c 0
 461.667 668.333 466.667 664.333 476 657 c 0
 494.667 641.667 529 632.333 579 629 c 0
 587.667 628.333 602.667 628 624 628 c 1
 624 495 l 1
 552 494 l 2
 490 486.667 453.667 452 443 390 c 0
 440.333 378.667 439 364.333 439 347 c 2
 439 210 l 1
 618 210 l 2
 806 210 806 210 807 210 c 1
 807 1139 l 1
 1027 1139 l 1
 1027 269 l 1
 1027 0 l 1
 650 0 l 1
 626 0 l 1
 201 0 l 1
 201 264 l 1
 201 349 l 1xec
 202 410 l 2
 205.333 436.667 212.667 459 224 477 c 0
EndSplineSet
EndChar
StartChar: uni0E23
Encoding: 156 3619 158
Width: 1100
Flags: W
HStem: -10 120<638.406 738> 280 119<631.867 716.8> 856 208<873.753 1018.64> 940 209<488.667 670.4>
VStem: 724 219<140.867 268.267 393 562.354>
Fore
943 303 m 2xd8
 943 205.667 936.667 141 924 109 c 0
 907.333 62.3333 874 28.3333 824 7 c 0
 796 -4.33333 767.333 -10 738 -10 c 0
 611.333 -10 532.667 32.3333 502 117 c 0
 492 144.333 487 172.667 487 202 c 0
 487 259.333 503 306 535 342 c 0
 566.333 378 607 397.667 657 401 c 2
 700 399 l 2
 710.667 398.333 718.667 396.333 724 393 c 1
 724 529 l 2
 724 562.333 709 589 679 609 c 2
 634 634 l 1
 633.333 634 632.5 634.167 631.5 634.5 c 0
 630.5 634.833 629.667 635.333 629 636 c 1
 521.667 671.333 346.667 706.667 104 742 c 1
 122 829.333 149 901 185 957 c 0
 221.667 1015 273.333 1062.33 340 1099 c 0
 401.333 1132.33 479 1149 573 1149 c 0xd8
 650.333 1149 722 1133.67 788 1103 c 0
 845.333 1077 904.667 1064 966 1064 c 0
 991.333 1064 1016.33 1066.67 1041 1072 c 1
 1002 862 l 1
 984.667 858 965 856 943 856 c 0xe8
 923 855.333 900.667 857 876 861 c 0
 842 866.333 812.667 873.667 788 883 c 0
 784.667 884.333 780.333 886.333 775 889 c 0
 714.333 917.667 650 934.667 582 940 c 2
 562 941 l 2
 488.667 941 442.667 924.667 424 892 c 1
 586 860.667 692.667 836 744 818 c 0
 781.333 804.667 810.667 791.333 832 778 c 0
 896.667 737.333 933 678.333 941 601 c 0
 942.333 589 943 579.667 943 573 c 2
 943 303 l 2xd8
724 192 m 0
 724 250.667 706 280 670 280 c 0
 640.667 280 620.667 263 610 229 c 2
 604 197 l 1
 604 195 l 2
 606.667 157 620 130.667 644 116 c 0
 650.667 112 657.333 110 664 110 c 1
 683 113 l 1
 708.333 126.333 722 152.667 724 192 c 0
EndSplineSet
EndChar
StartChar: uni0E24
Encoding: 157 3620 159
Width: 1240
Flags: W
HStem: -10 120<405.067 483.967> 929 220<486.2 819.867>
VStem: 188 220<363 490.4> 189 209<127.467 260> 517 125<148.987 251.333> 862 220<-380 857.6>
Fore
408 376 m 2xec
 408 363 l 1xec
 424.667 381.667 448.333 391 479 391 c 0
 497 391.667 516 388 536 380 c 0
 557.333 370.667 575.333 358.667 590 344 c 0
 624.667 310 642 264 642 206 c 0
 642.667 184.667 639.333 160.333 632 133 c 0
 614.667 76.3333 579.667 35.3333 527 10 c 0
 497 -3.33333 465 -10 431 -10 c 0
 381.667 -8.66667 344 -2.33333 318 9 c 0
 294.667 20.3333 272 36 250 56 c 0
 212 90.6667 191.667 156.667 189 254 c 0xdc
 188.333 264 188 280.333 188 303 c 2
 188 366 l 2
 188 449.333 197.333 509.333 216 546 c 0
 230.667 575.333 264 617 316 671 c 1
 269.333 726.333 203.333 766.667 118 792 c 1
 130.667 854.667 166.667 917 226 979 c 0
 331.333 1092.33 464 1149 624 1149 c 0
 774.667 1149 891.333 1102 974 1008 c 0
 1046 926.667 1082 815 1082 673 c 2
 1082 -380 l 1
 862 -380 l 1
 862 657 l 2
 862 838.333 782.667 929 624 929 c 0
 518 929 440 896.333 390 831 c 1
 464 795 516 739 546 663 c 1
 541.333 661 511.333 627.667 456 563 c 0
 424 526.333 408 464 408 376 c 2xec
451 110 m 0
 475.667 110 494.667 124 508 152 c 0
 514 165.333 517 179.667 517 195 c 0
 513.667 238.333 499 265.333 473 276 c 0
 467 278.667 459.667 280 451 280 c 0
 420.333 280 403 260 399 220 c 2
 398 204 l 2xdc
 398 141.333 415.667 110 451 110 c 0
EndSplineSet
EndChar
StartChar: uni0E25
Encoding: 158 3621 160
Width: 1250
Flags: W
HStem: -10 120<417.067 495.967> 280 111<432.412 491.233> 520 220<504 687.333> 929 220<456.067 657.324>
VStem: 190 220<127.467 260 363 433.7> 529 115<148.987 251.333> 832 221<0 355.667 658 790.903>
Fore
1020 915 m 2
 1042 867.667 1053 800.333 1053 713 c 2
 1053 0 l 1
 833 0 l 1
 833 263 l 2
 833 355.667 810 424 764 468 c 0
 728.667 502.667 669 520 585 520 c 2
 570 520 l 2
 504 519.333 457.333 498.333 430 457 c 0
 418 435 411.333 410.333 410 383 c 2
 410 363 l 1
 426.667 381.667 450.333 391 481 391 c 0
 499 391.667 518 388 538 380 c 0
 559.333 370.667 577.333 358.667 592 344 c 0
 626.667 310 644 264 644 206 c 0
 644.667 184.667 641.333 160.333 634 133 c 0
 616.667 76.3333 581.667 35.3333 529 10 c 0
 499 -3.33333 467 -10 433 -10 c 0
 383.667 -8.66667 346 -2.33333 320 9 c 0
 296.667 20.3333 274 36 252 56 c 0
 214 90.6667 193.667 156.667 191 254 c 0
 190.333 264 190 280.333 190 303 c 2
 190 438 l 2
 190 551.333 239.667 634.667 339 688 c 0
 402.333 722.667 478 740 566 740 c 0
 659.333 740 734.667 723.667 792 691 c 0
 808.667 682.333 822 671.333 832 658 c 1
 832 714 l 2
 832 771.333 818 816 790 848 c 2
 786 852 l 2
 759.333 882 718 904 662 918 c 0
 630.667 925.333 600 929 570 929 c 0
 480 929 400.667 902.333 332 849 c 0
 305.333 827.667 283.333 803 266 775 c 1
 126 929 l 1
 164.667 995 229 1049.33 319 1092 c 0
 399 1130 481.667 1149 567 1149 c 0
 678.333 1149 779.333 1124 870 1074 c 0
 872.667 1072.67 881.333 1067.33 896 1058 c 0
 928.667 1036.67 960.667 1004 992 960 c 2
 1017 922 l 1
 1020 915 l 2
463 110 m 0
 487.667 110 506.667 124 520 152 c 0
 526 165.333 529 179.667 529 195 c 0
 525.667 238.333 511 265.333 485 276 c 0
 479 278.667 471.667 280 463 280 c 0
 432.333 280 415 260 411 220 c 2
 410 204 l 2
 410 141.333 427.667 110 463 110 c 0
EndSplineSet
EndChar
StartChar: uni0E26
Encoding: 159 3622 161
Width: 1350
Flags: W
HStem: -10 120<241.87 320.933> 929 220<616.2 949.867>
VStem: 318 220<363 490.4> 328 210<160.867 303> 992 220<-380 857.6>
Fore
538 376 m 2xe8
 538 303 l 2
 538 193.667 523.667 118.667 495 78 c 0
 491.667 72.6667 485.333 65.3333 476 56 c 0
 432.667 16 383.333 -5.66667 328 -9 c 0xd8
 323.333 -9.66667 312.333 -10 295 -10 c 0
 221 -10 164 17.6667 124 73 c 0
 110.667 91 100.667 111 94 133 c 0
 86.6667 160.333 83.3333 184.667 84 206 c 0
 84 264 101.333 310 136 344 c 0
 167.333 375.333 204 391 246 391 c 0
 258 391.667 270.333 390 283 386 c 0
 297 380.667 308.667 373 318 363 c 1
 318 384 l 2
 318 455.333 327.333 509.333 346 546 c 0
 360.667 575.333 394 617 446 671 c 1
 399.333 726.333 333.333 766.667 248 792 c 1
 260.667 854.667 296.667 917 356 979 c 0
 461.333 1092.33 594 1149 754 1149 c 0
 904.667 1149 1021.33 1102 1104 1008 c 0
 1176 926.667 1212 815 1212 673 c 2
 1212 -380 l 1
 992 -380 l 1
 992 657 l 2
 992 838.333 912.667 929 754 929 c 0
 648 929 570 896.333 520 831 c 1
 594 795 646 739 676 663 c 1
 671.333 661 641.333 627.667 586 563 c 0
 554 526.333 538 464 538 376 c 2xe8
275 110 m 0
 310.333 110 328 141.333 328 204 c 0
 328 249.333 313.667 274.333 285 279 c 2
 275 280 l 2
 246.333 280 226.333 262 215 226 c 0
 212.333 217.333 210.333 207 209 195 c 0
 209 158.333 221.333 132.667 246 118 c 0
 255.333 112.667 265 110 275 110 c 0
EndSplineSet
EndChar
StartChar: uni0E27
Encoding: 160 3623 162
Width: 1150
Flags: W
HStem: -11 21G<763 807.667> 280 115<727.067 806.196> 929 220<395.867 649.533>
VStem: 814 218<168.457 268.267 377 793.93>
Fore
1032 714 m 2
 1032 303 l 2
 1032 204.333 1025.67 139.333 1013 108 c 0
 1003.67 84 988 62 966 42 c 0
 934.667 12.6667 887.333 -4.66667 824 -10 c 0
 819.333 -10.6667 812.333 -11 803 -11 c 0
 723 -11 662 17.6667 620 75 c 0
 594 112.333 580.333 157.667 579 211 c 0
 580.333 269.667 600 317.333 638 354 c 0
 667.333 381.333 700 395 736 395 c 0
 769.333 395 793.667 390.333 809 381 c 1
 811 379 812.667 377.667 814 377 c 1
 814 675 l 2
 814 735.667 809 777.333 799 800 c 0
 791.667 816 782 830 770 842 c 0
 715.333 900 629.333 929 512 929 c 0
 422.667 929 344.333 903.333 277 852 c 0
 247 828.667 224 803 208 775 c 1
 68 929 l 1
 99.3333 970.333 143.333 1011.67 200 1053 c 0
 221.333 1069 242.333 1082.33 263 1093 c 0
 336.333 1130.33 418.667 1149 510 1149 c 0
 617.333 1149 716 1129.33 806 1090 c 0
 824.667 1082.67 844.667 1072.33 866 1059 c 0
 927.333 1021 970.333 974 995 918 c 0
 1019.67 864 1032 796 1032 714 c 2
814 192 m 2
 814 250.667 796 280 760 280 c 0
 734.667 280 715.333 264.333 702 233 c 0
 698 223 695.333 210.667 694 196 c 0
 694 164 706 139.333 730 122 c 0
 738 116.667 746 113 754 111 c 1
 778 113 l 1
 800 119 812 142 814 182 c 2
 814 192 l 2
EndSplineSet
EndChar
StartChar: uni0E28
Encoding: 161 3624 163
Width: 1300
Flags: W
HStem: 0 21G<186 419 954 1134> 313 104<621.151 682.572> 969 180<547.062 724.242>
VStem: 103 182<540.993 754.314> 954 180<0 786.933>
Fore
938 1061 m 1
 986 1093.67 1027.33 1148 1062 1224 c 1
 1280 1224 l 1
 1242.67 1108 1172.33 1012.33 1069 937 c 1
 1112.33 869.667 1134 774.333 1134 651 c 2
 1134 0 l 1
 954 0 l 1
 954 702 l 2
 954 767.333 927 826.667 873 880 c 0
 855 898 833.667 914 809 928 c 0
 758.333 955.333 696.667 969 624 969 c 2
 617 969 l 2
 552.333 968.333 494.333 955.333 443 930 c 0
 384.333 903.333 341.333 862.667 314 808 c 0
 294.667 767.333 285 713.333 285 646 c 0
 285 600.667 289.333 560.333 298 525 c 2
 351 316 l 1
 371.667 419.333 407 509.667 457 587 c 0
 492.333 643 534 682.333 582 705 c 0
 616 721 654.667 724 698 714 c 0
 738 704 774.667 679.333 808 640 c 0
 825.333 620 836.333 600.667 841 582 c 0
 847.667 559.333 851 537.667 851 517 c 0
 851 479 835.667 438.333 805 395 c 2
 801 389 l 2
 763 338.333 718 313 666 313 c 0
 653.333 313 641.667 314.333 631 317 c 0
 609 321 586 333 562 353 c 0
 556 357.667 551 363 547 369 c 1
 511 300.333 475.333 204.333 440 81 c 0
 432 52.3333 425 25.3333 419 0 c 1
 186 0 l 1
 186 108 l 2
 186 160.667 169 266 135 424 c 0
 113.667 516.667 103 600.667 103 676 c 0
 103 721.333 107 762.667 115 800 c 0
 139.667 906.667 202.333 992.333 303 1057 c 0
 396.333 1114.33 493.667 1145 595 1149 c 2
 617 1149 l 2
 715 1148.33 799 1131.33 869 1098 c 2
 875 1095 l 2
 896.333 1085 917.333 1073.67 938 1061 c 1
670 574 m 2
 656 570 640 555.333 622 530 c 0
 605.333 507.333 597 488 597 472 c 0
 595.667 452.667 603 437.667 619 427 c 0
 627.667 420.333 637.333 417 648 417 c 0
 657.333 417 666.333 419 675 423 c 0
 691 429.667 706 442 720 460 c 0
 730 473.333 735.667 490.667 737 512 c 0
 738.333 533.333 731.333 551 716 565 c 0
 708.667 572.333 698 576 684 576 c 1
 670 574 l 2
EndSplineSet
EndChar
StartChar: uni0E29
Encoding: 162 3625 164
Width: 1350
Flags: W
HStem: 0 210<516 902> 749 110<214.174 293.8> 1028 123<214.464 293.8>
VStem: 66 115<894.467 989.814> 296 220<210 759 873.467 986.143> 902 220<210 421 642 1139> 1161 133<689.71 771>
Fore
247 1028 m 0
 222.333 1028 203.667 1014.67 191 988 c 0
 184.333 974.667 181 959.667 181 943 c 0
 184.333 905.667 197.333 880 220 866 c 0
 227.333 861.333 236.333 859 247 859 c 0
 283 862.333 301 887.667 301 935 c 2
 301 948 l 2
 301 1001.33 283 1028 247 1028 c 0
1122 463 m 1
 1122 273 l 2
 1122 84 1122 84 1122 0 c 1
 706 0 l 1
 296 0 l 1
 296 244 296 244 296 268 c 2
 296 759 l 1
 282 753.667 264 750.333 242 749 c 0
 210 749 180.333 756 153 770 c 0
 138.333 778 126.667 786.333 118 795 c 0
 83.3333 829.667 66 874.333 66 929 c 0
 66 953.667 69.3333 979 76 1005 c 0
 87.3333 1051 114.333 1088.33 157 1117 c 0
 180.333 1133.67 205.333 1144 232 1148 c 2
 280 1151 l 2
 347.333 1151 401.333 1135.33 442 1104 c 0
 446 1101.33 449 1099 451 1097 c 0
 488.333 1061.67 509.333 999 514 909 c 2
 516 835 l 1
 516 379 l 2
 516 242 516 242 516 210 c 1
 711 210 l 1
 902 210 l 1
 902 352 902 352 902 379 c 2
 902 421 l 1
 888.667 418.333 869.333 417 844 417 c 2
 840 417 l 2
 790.667 417.667 744 431 700 457 c 0
 662 480.333 634.667 513.333 618 556 c 0
 610 577.333 606 598 606 618 c 2
 606 625 l 2
 610 713.667 648.667 765.667 722 781 c 0
 726.667 781.667 734.333 782.667 745 784 c 1
 779 783 l 2
 817.667 777 847.333 757 868 723 c 0
 878.667 706.333 884 683.667 884 655 c 0
 884 643.667 883 633.667 881 625 c 0
 877 608.333 865.667 591.667 847 575 c 1
 850.333 567.667 862.333 564 883 564 c 0
 891 563.333 897.333 564 902 566 c 1
 902 1139 l 1
 1122 1139 l 1
 1122 642 l 1
 1148 668 1161 711 1161 771 c 1
 1294 771 l 1
 1294 697 1284.67 641 1266 603 c 0
 1262 591.667 1255.33 579.333 1246 566 c 0
 1221.33 527.333 1180 493 1122 463 c 1
794 651 m 1
 788.667 679 773.667 694.333 749 697 c 1
 734 696 l 1
 720.667 692 711.667 683 707 669 c 2
 703 653 l 1
 703 634.333 711.667 620.333 729 611 c 0
 735 608.333 741.667 607 749 607 c 0
 767.667 607 781.333 616.333 790 635 c 0
 792.667 639.667 794 645 794 651 c 1
EndSplineSet
EndChar
StartChar: uni0E2A
Encoding: 163 3626 165
Width: 1250
Flags: W
HStem: -10 120<417.067 495.967> 280 111<432.412 491.233> 520 220<504 687.333> 929 220<456.067 657.324>
VStem: 190 220<127.467 260 363 433.7> 529 115<148.987 251.333> 832 221<0 355.667 658 790.903>
Fore
1020 915 m 1
 1042 862.333 1053 795 1053 713 c 2
 1053 0 l 1
 833 0 l 1
 833 263 l 2
 833 355.667 810 424 764 468 c 0
 728.667 502.667 669 520 585 520 c 2
 570 520 l 2
 504 519.333 457.333 498.333 430 457 c 0
 418 435 411.333 410.333 410 383 c 2
 410 363 l 1
 426.667 381.667 450.333 391 481 391 c 0
 499 391.667 518 388 538 380 c 0
 559.333 370.667 577.333 358.667 592 344 c 0
 626.667 310 644 264 644 206 c 0
 644.667 184.667 641.333 160.333 634 133 c 0
 616.667 76.3333 581.667 35.3333 529 10 c 0
 499 -3.33333 467 -10 433 -10 c 0
 383.667 -8.66667 346 -2.33333 320 9 c 0
 296.667 20.3333 274 36 252 56 c 0
 214 90.6667 193.667 156.667 191 254 c 0
 190.333 264 190 280.333 190 303 c 2
 190 438 l 2
 190 551.333 239.667 634.667 339 688 c 0
 402.333 722.667 478 740 566 740 c 0
 659.333 740 734.667 723.667 792 691 c 0
 808.667 682.333 822 671.333 832 658 c 1
 832 714 l 2
 832 771.333 818 816 790 848 c 2
 786 852 l 2
 759.333 882 718 904 662 918 c 0
 630.667 925.333 600 929 570 929 c 0
 480 929 400.667 902.333 332 849 c 0
 305.333 827.667 283.333 803 266 775 c 1
 126 929 l 1
 164.667 995 229 1049.33 319 1092 c 0
 399 1130 481.667 1149 567 1149 c 0
 702.333 1149 806.667 1119 880 1059 c 1
 931.333 1094.33 972 1144.33 1002 1209 c 1
 1270 1209 l 1
 1258 1137.67 1205 1063 1111 985 c 2
 1022 916 l 1
 1020 915 l 1
463 110 m 0
 487.667 110 506.667 124 520 152 c 0
 526 165.333 529 179.667 529 195 c 0
 525.667 238.333 511 265.333 485 276 c 0
 479 278.667 471.667 280 463 280 c 0
 432.333 280 415 260 411 220 c 2
 410 204 l 2
 410 141.333 427.667 110 463 110 c 0
EndSplineSet
EndChar
StartChar: uni0E2B
Encoding: 164 3627 166
Width: 1350
Flags: W
HStem: 0 21G<332 606 978 1198> 745 111<245.405 319.6> 1129 20G<950.667 1017.67>
VStem: 332 221<385 759 911.788 973.856> 978 220<0 577.059> 1050 144<895.672 977.846>
Fore
553 385 m 1xf8
 623 510 l 2
 648.333 550.667 671 584.333 691 611 c 0
 741 679.667 790.333 734.667 839 776 c 1
 790.333 827.333 766 884.667 766 948 c 0
 766 1006 788.667 1055 834 1095 c 0
 874 1131 922.333 1149 979 1149 c 0
 1056.33 1149 1115 1122 1155 1068 c 2
 1173 1038 l 1
 1187 1002 l 2
 1191.67 985.333 1194 966.667 1194 946 c 0xf4
 1194 862.667 1165 802 1107 764 c 1
 1138.33 746.667 1163.33 718.667 1182 680 c 0
 1192.67 656.667 1198 633.333 1198 610 c 2
 1198 0 l 1
 978 0 l 1
 978 538 l 2
 978 566 970.333 588.667 955 606 c 1
 901 570.667 840.667 494 774 376 c 0
 704 250.667 648 125.333 606 0 c 1
 332 0 l 1
 332 759 l 1
 316.667 749.667 291 745 255 745 c 0
 200.333 745 158 769.333 128 818 c 0
 108.667 851.333 99 889.333 99 932 c 0
 99 955.333 102 979 108 1003 c 0
 120.667 1055 154 1094.67 208 1122 c 0
 242 1139.33 280.333 1148.33 323 1149 c 2
 365 1146 l 2
 430.333 1134.67 480.333 1102.33 515 1049 c 0
 540.333 1010.33 553 967.667 553 921 c 2
 553 385 l 1xf8
278 1025 m 0
 254 1025 235.333 1012.33 222 987 c 1
 214 963 l 1
 212 940 l 2
 213.333 906.667 225 882 247 866 c 0
 255.667 859.333 266 856 278 856 c 0
 310 858 328 879 332 919 c 0
 332.667 923.667 333 932 333 944 c 0
 326.333 994.667 308 1021.67 278 1025 c 0
982 863 m 0
 1010.67 863 1031 876 1043 902 c 0
 1047.67 910.667 1050 920.667 1050 932 c 0
 1050 966 1037 990 1011 1004 c 0
 1003.67 1008 993.333 1010.67 980 1012 c 1
 957 1009 l 1
 936.333 1001.67 922.333 987.667 915 967 c 1
 911 941 l 1
 911 938 l 2
 911 906.667 923.667 884.333 949 871 c 0
 959.667 865.667 970.667 863 982 863 c 0
EndSplineSet
EndChar
StartChar: uni0E2C
Encoding: 165 3628 167
Width: 1400
Flags: HW
HStem: 0 21G<311 531 1001 1221> 749 110<229.174 308.8> 1028 123<229.464 308.8> 1428 129<976.031 1045.94>
VStem: 81 115<894.467 989.814> 311 220<500 759 873.467 986.142> 828 120<1328.81 1397.94> 1001 220<500 1099 1100 1154> 1359 134<1415.34 1487>
AnchorPoint: "AboveBase" 792 1227 basechar 0
Fore
1221 1100 m 1
 1001 1100 l 1
 1001 1158 l 1
 943 1168 898.667 1193.33 868 1234 c 0
 841.333 1268.67 828 1309.67 828 1357 c 0
 828 1380.33 831 1403.33 837 1426 c 0
 851.667 1480.67 885.667 1519 939 1541 c 0
 964.333 1551.67 993 1557 1025 1557 c 0
 1087 1557 1138 1534.33 1178 1489 c 0
 1186.67 1477.67 1193.33 1467.67 1198 1459 c 0
 1214 1427.67 1222 1383 1222 1325 c 2
 1222 1301 l 1
 1257.33 1303.67 1287 1316 1311 1338 c 0
 1341 1366.67 1357 1416.33 1359 1487 c 1
 1493 1487 l 1
 1491 1436 l 2
 1487.67 1403.33 1482 1374.67 1474 1350 c 0
 1456 1291.33 1422.67 1243.67 1374 1207 c 0
 1337.33 1180.33 1291.67 1163.33 1237 1156 c 2
 1221 1154 l 1
 1221 1100 l 1
1013 1302 m 0
 1036.33 1302 1054.67 1313 1068 1335 c 0
 1073.33 1344.33 1076 1354.33 1076 1365 c 0
 1076 1387.67 1065.33 1405.67 1044 1419 c 0
 1034 1425 1023.67 1428 1013 1428 c 0
 989 1428 970.333 1417.33 957 1396 c 0
 951 1386 948 1375.67 948 1365 c 0
 948 1340.33 959.333 1322 982 1310 c 0
 992.667 1304.67 1003 1302 1013 1302 c 0
311 268 m 1
 311 759 l 1
 297 753.667 279 750.333 257 749 c 0
 224.333 749 194.667 756 168 770 c 0
 153.333 778 141.667 786.333 133 795 c 0
 98.3333 829.667 81 874.333 81 929 c 0
 81 953.667 84.3333 979 91 1005 c 0
 102.333 1051 129.333 1088.33 172 1117 c 0
 195.333 1133.67 220.333 1144 247 1148 c 2
 295 1151 l 2
 362.333 1151 416.333 1135.33 457 1104 c 0
 461 1101.33 464 1099 466 1097 c 0
 503.333 1061.67 524.333 999 529 909 c 2
 531 835 l 1
 531 500 l 1
 735 1039 l 1
 792 1039 l 1
 1001 500 l 1
 1001 1099 l 1
 1221 1099 l 1
 1221 268 l 2
 1221 100 1221 100 1221 0 c 1
 1001 0 l 1
 769 600 l 1
 531 0 l 1
 311 0 l 1
 311 268 l 1
262 1028 m 0
 237.333 1028 218.667 1014.67 206 988 c 0
 199.333 974.667 196 959.667 196 943 c 0
 199.333 905.667 212.333 880 235 866 c 0
 242.333 861.333 251.333 859 262 859 c 0
 298 862.333 316 887.667 316 935 c 2
 316 948 l 2
 316 1001.33 298 1028 262 1028 c 0
EndSplineSet
EndChar
StartChar: uni0E2D
Encoding: 166 3629 168
Width: 1230
Flags: W
HStem: 0 210<443 830> 354 102<433.111 492.667> 625 123<411.2 483.447> 929 220<407.667 661.275>
VStem: 223 181<434 595.598> 223 220<210 358> 830 220<210 807.667>
Fore
223 270 m 1xf6
 223 434 l 2xfa
 223 530 230.333 595.667 245 631 c 0
 267.667 683.667 306.333 719 361 737 c 0
 384.333 744.333 407.667 748 431 748 c 0
 444.333 748 458 747 472 745 c 0
 531.333 736.333 576.667 704.333 608 649 c 0
 622 624.333 631 596.333 635 565 c 0
 637 552.333 638 539 638 525 c 0
 638 483 621.333 442.667 588 404 c 0
 558.667 370.667 522 354 478 354 c 0
 464.667 354 453 355.333 443 358 c 1
 443 325 l 2
 443 239 443 239 443 210 c 1
 619 210 l 1
 830 210 l 1
 830 303 830 303 830 360 c 2
 830 715 l 2
 830 807.667 787.667 871 703 905 c 0
 663.667 921 618.667 929 568 929 c 0
 444.667 927.667 351 887.333 287 808 c 2
 263 775 l 1
 116 936 l 1
 218 1078 367.667 1149 565 1149 c 0
 693.667 1149 802.667 1118.33 892 1057 c 0
 932.667 1030.33 965.667 997.667 991 959 c 0
 1030.33 899.667 1050 830.333 1050 751 c 2
 1050 273 l 2
 1050 82 1050 82 1050 0 c 1
 615 0 l 1
 223 0 l 1
 223 270 l 1xf6
458 625 m 0
 422 625 404 598.333 404 545 c 0xfa
 404 495 417 466 443 458 c 1xf6
 445 458 447.667 457.667 451 457 c 0
 454.333 456.333 456.667 456 458 456 c 0
 484.667 456 504 472 516 504 c 0
 520 513.333 522.667 525.333 524 540 c 0
 524 570.667 513 595 491 613 c 0
 479.667 621 468.667 625 458 625 c 0
EndSplineSet
EndChar
StartChar: uni0E2E
Encoding: 167 3630 169
Width: 1250
Flags: W
HStem: 0 210<450 837> 354 102<440.111 499.667> 625 123<418.2 490.447> 746 148<534.672 670.658> 972 177<518.415 665>
VStem: 230 181<434 595.598> 230 220<210 358> 837 220<210 827.159>
Fore
837 741 m 2xeb
 837 770.333 835.667 792.667 833 808 c 1
 759.667 766.667 672.667 746 572 746 c 2
 554 746 l 2
 450 748 363.333 769 294 809 c 0
 232 845.667 200.667 890.667 200 944 c 2
 203 970 l 2
 213.667 1011.33 246.333 1047.67 301 1079 c 0
 305.667 1081 310.333 1083.33 315 1086 c 0
 394.333 1126 484.333 1147 585 1149 c 0
 702.333 1149 806.667 1120.67 898 1064 c 1
 925.333 1099.33 942.667 1130.67 950 1158 c 1
 1072 1116 l 1
 1049.33 1061.33 1023.33 1014.33 994 975 c 1
 1036 914.333 1057 851.333 1057 786 c 2
 1057 273 l 2
 1057 82 1057 82 1057 0 c 1
 622 0 l 1
 230 0 l 1
 230 270 l 1xdb
 230 434 l 2xdd
 230 530 237.333 595.667 252 631 c 0
 274.667 683.667 313.333 719 368 737 c 0
 391.333 744.333 414.667 748 438 748 c 0
 451.333 748 465 747 479 745 c 0
 538.333 736.333 583.667 704.333 615 649 c 0
 629 624.333 638 596.333 642 565 c 0
 644 552.333 645 539 645 525 c 0
 645 483 628.333 442.667 595 404 c 0
 565.667 370.667 529 354 485 354 c 0
 471.667 354 460 355.333 450 358 c 1
 450 325 l 2
 450 239 450 239 450 210 c 1
 626 210 l 1
 837 210 l 1
 837 303 837 303 837 360 c 2
 837 741 l 2xeb
465 625 m 0xeb
 429 625 411 598.333 411 545 c 0xed
 411 495 424 466 450 458 c 1
 451.333 458 453.667 457.667 457 457 c 0
 460.333 456.333 463 456 465 456 c 0
 491.667 456 511 472 523 504 c 0
 527 513.333 529.667 525.333 531 540 c 0
 531 570.667 520 595 498 613 c 0
 487.333 621 476.333 625 465 625 c 0xeb
736 935 m 1
 712 957 665 969.333 595 972 c 2
 580 972 l 2
 548 972 518.667 964.667 492 950 c 0
 480.667 942.667 475 936.667 475 932 c 0
 475 914.667 498.333 903 545 897 c 0
 557.667 895 570 894 582 894 c 0xd9
 640.667 894 688 905 724 927 c 0
 730.667 931 734.667 933.667 736 935 c 1
EndSplineSet
EndChar
StartChar: uni0E2F
Encoding: 168 3631 170
Width: 1150
Flags: W
HStem: 0 21G<805 1025> 665 224<324 487> 1023 124<285.8 364.976>
VStem: 805 220<0 776 1090.13 1149>
Fore
1025 1149 m 1
 1025 0 l 1
 805 0 l 1
 805 776 l 1
 761.667 722 687 687.333 581 672 c 0
 552.333 667.333 521 665 487 665 c 0
 390.333 665 309 683 243 719 c 0
 199.667 743 166.333 782 143 836 c 0
 131.667 861.333 125.667 887.333 125 914 c 2
 127 958 l 2
 135 1023.33 164 1074 214 1110 c 0
 239.333 1128.67 268 1140 300 1144 c 2
 347 1147 l 2
 422.333 1145.67 481 1117 523 1061 c 1
 525.667 1055.67 528 1052 530 1050 c 1
 542 1031.33 548 1005.33 548 972 c 0
 548.667 945.333 544.333 919.667 535 895 c 0
 530.333 881 523.333 869.333 514 860 c 1
 549 857 l 2
 597.667 857.667 640.667 870.333 678 895 c 2
 678.667 895 681.333 896.667 686 900 c 0
 745.333 943.333 783 1011 799 1103 c 0
 802.333 1118.33 804.333 1133.67 805 1149 c 1
 1025 1149 l 1
260 958 m 1
 262 936 l 2
 266.667 911.333 282.333 896 309 890 c 0
 312.333 889.333 317.333 889 324 889 c 0
 349.333 889 369.333 899.333 384 920 c 0
 392 932 396 944.667 396 958 c 0
 396 981.333 385.333 999.667 364 1013 c 0
 353.333 1019.67 342 1023 330 1023 c 0
 296 1023 274 1008 264 978 c 2
 260 958 l 1
EndSplineSet
EndChar
StartChar: uni0E30
Encoding: 169 3632 171
Width: 1100
Flags: W
VStem: 171 116<307 359.092 831 883.092> 412 126<315.823 350 839.823 874> 756 166<427.372 480 951.372 1004>
Fore
171 312 m 0
 172.333 412.667 217.333 472.333 306 491 c 0
 322.667 494.333 342.667 496.667 366 498 c 2
 405 495 l 2
 463.667 484.333 504 449.667 526 391 c 0
 532.667 374.333 536.667 357.333 538 340 c 2
 537 303 l 2
 534.333 275.667 525.667 252.333 511 233 c 1
 544 235 l 2
 596 243 644.667 272 690 322 c 0
 713.333 347.333 729.667 373 739 399 c 0
 747.667 424.333 753.333 451.333 756 480 c 1
 922 480 l 1
 922 368.667 883 275 805 199 c 0
 727.667 124.333 631.667 84.6667 517 80 c 0
 511 79.3333 502.667 79 492 79 c 0
 396.667 79 318.667 102.333 258 149 c 0
 217.333 179.667 190.333 219.333 177 268 c 0
 173 282.667 171 297.333 171 312 c 0
287 327 m 1
 291 307 l 1
 299 285.667 314.667 273.333 338 270 c 0
 340 269.333 342.333 269 345 269 c 2
 368 272 l 1
 391.333 280 405.667 295.667 411 319 c 0
 411.667 321 412 324.667 412 330 c 1
 408 350 l 1
 400 370.667 384.333 383 361 387 c 0
 359 387.667 355.667 388 351 388 c 0
 323.667 388 304.333 376 293 352 c 0
 289 345.333 287 337 287 327 c 1
171 836 m 0
 172.333 936.667 217.333 996.333 306 1015 c 0
 322.667 1018.33 342.667 1020.67 366 1022 c 2
 405 1019 l 2
 463.667 1008.33 504 973.667 526 915 c 0
 532.667 898.333 536.667 881.333 538 864 c 2
 537 827 l 1
 529 792 l 2
 523.667 778 517.667 766.333 511 757 c 1
 544 759 l 2
 596 767 644.667 796 690 846 c 0
 713.333 871.333 729.667 897 739 923 c 0
 747.667 948.333 753.333 975.333 756 1004 c 1
 922 1004 l 1
 922 892.667 883 799 805 723 c 0
 727.667 648.333 631.667 608.667 517 604 c 0
 511 603.333 502.667 603 492 603 c 0
 396.667 603 318.667 626.333 258 673 c 0
 217.333 703.667 190.333 743.333 177 792 c 0
 173 806.667 171 821.333 171 836 c 0
287 851 m 1
 291 831 l 1
 299 809.667 314.667 797.333 338 794 c 0
 340 793.333 342.333 793 345 793 c 2
 368 796 l 1
 391.333 804 405.667 819.667 411 843 c 0
 411.667 845 412 848.667 412 854 c 1
 408 874 l 1
 400 894.667 384.333 907 361 911 c 0
 359 911.667 355.667 912 351 912 c 0
 323.667 912 304.333 900 293 876 c 0
 289 869.333 287 861 287 851 c 1
EndSplineSet
EndChar
StartChar: uni0E31
Encoding: 170 3633 172
Width: 0
Flags: W
VStem: -149 166<1547.95 1649.38>
AnchorPoint: "AboveMark" -262 1740 basemark 0
AnchorPoint: "AboveBase" -180 1227 mark 0
Fore
-734 1466 m 0
 -732.667 1566.67 -687.667 1626.33 -599 1645 c 0
 -582.333 1648.33 -562.333 1650.67 -539 1652 c 2
 -500 1649 l 2
 -441.333 1638.33 -401 1603.67 -379 1545 c 0
 -371.667 1528.33 -367.667 1511.33 -367 1494 c 2
 -368 1457 l 1
 -376 1422 l 2
 -381.333 1408 -387.333 1396.33 -394 1387 c 1
 -361 1389 l 2
 -309 1397 -260.333 1426 -215 1476 c 0
 -191.667 1501.33 -175.333 1527 -166 1553 c 0
 -157.333 1578.33 -151.667 1605.33 -149 1634 c 1
 17 1634 l 1
 17 1522.67 -22 1429 -100 1353 c 0
 -177.333 1278.33 -273.333 1238.67 -388 1234 c 0
 -394 1233.33 -402.333 1233 -413 1233 c 0
 -508.333 1233 -586.333 1256.33 -647 1303 c 0
 -687.667 1333.67 -714.667 1373.33 -728 1422 c 0
 -732 1436.67 -734 1451.33 -734 1466 c 0
-618 1481 m 1
 -614 1461 l 1
 -606 1439.67 -590.333 1427.33 -567 1424 c 0
 -565 1423.33 -562.667 1423 -560 1423 c 2
 -537 1426 l 1
 -513.667 1434 -499.333 1449.67 -494 1473 c 0
 -493.333 1475 -493 1478.67 -493 1484 c 1
 -497 1504 l 2
 -501.667 1518.67 -512.333 1529.67 -529 1537 c 1
 -550 1542 l 1
 -554 1542 l 2
 -582 1542 -601.333 1530 -612 1506 c 2
 -618 1486 l 1
 -618 1481 l 1
EndSplineSet
EndChar
StartChar: uni0E32
Encoding: 171 3634 173
Width: 1150
Flags: W
HStem: 0 21G<736 956> 929 220<455 610.885>
VStem: 736 220<0 833.867>
Fore
956 753 m 2
 956 0 l 1
 736 0 l 1
 736 729 l 2
 736 809.667 707.667 867 651 901 c 0
 620.333 919.667 581 929 533 929 c 0
 473 929 419.667 903.667 373 853 c 0
 347 825 328.667 795.333 318 764 c 1
 120 846 l 1
 152.667 927.333 205.333 997.333 278 1056 c 0
 355.333 1118 436.667 1149 522 1149 c 0
 670 1149 783 1106.67 861 1022 c 2
 889 987 l 2
 933.667 924.333 956 846.333 956 753 c 2
EndSplineSet
EndChar
StartChar: uni0E33
Encoding: 172 3635 174
Width: 1050
Flags: W
HStem: 0 21G<682 902> 929 220<401 556.885> 1509 159<-344.846 -264.179>
VStem: -528 149<1394.11 1474.67> -215 148<1397.38 1476.6> 682 220<0 833.867>
Fore
902 753 m 1
 902 0 l 1
 682 0 l 1
 682 729 l 2
 682 809.667 653.667 867 597 901 c 0
 566.333 919.667 527 929 479 929 c 0
 419 929 365.667 903.667 319 853 c 0
 293 825 274.667 795.333 264 764 c 1
 66 846 l 1
 98.6667 927.333 151.333 997.333 224 1056 c 0
 301.333 1118 382.667 1149 468 1149 c 0
 616 1149 729 1106.67 807 1022 c 0
 866.333 957.333 898 874.333 902 773 c 2
 902 753 l 1
-300 1668 m 0
 -229.333 1668 -171 1643.33 -125 1594 c 0
 -102.333 1569.33 -86.6667 1542 -78 1512 c 0
 -70.6667 1488 -67 1464.33 -67 1441 c 0
 -67 1370.33 -93.6667 1312.33 -147 1267 c 0
 -189.667 1231.67 -240.667 1213.33 -300 1212 c 2
 -345 1216 l 2
 -413.667 1227.33 -464.333 1262.33 -497 1321 c 0
 -517.667 1356.33 -528 1396.33 -528 1441 c 0
 -528 1506.33 -503.333 1561.67 -454 1607 c 0
 -411.333 1647.67 -360 1668 -300 1668 c 0
-299 1509 m 2
 -333 1509 -357 1496 -371 1470 c 0
 -376.333 1458 -379 1446.33 -379 1435 c 0
 -379 1403.67 -365 1381.33 -337 1368 c 0
 -325.667 1362 -313 1359 -299 1359 c 0
 -261 1359 -235.333 1374 -222 1404 c 0
 -217.333 1412.67 -215 1423 -215 1435 c 0
 -215 1467 -230.333 1489.33 -261 1502 c 2
 -287 1509 l 1
 -299 1509 l 2
EndSplineSet
Substitution: 0 65534 'amaa' uni0E32
MultipleSubs: 0 65534 'G002' uni0E4D uni0E32
EndChar
StartChar: uni0E34
Encoding: 173 3636 175
Width: 0
Flags: W
HStem: 1306 125.052<-1003.84 -457.648> 1331 110<-1181 -894> 1520 159<-811.333 -624.519>
VStem: -1181 1001<1228 1331>
AnchorPoint: "AboveMark" -307 1740 basemark 0
AnchorPoint: "AboveBase" -180 1227 mark 0
Fore
-180 1228 m 5x70
 -305.333 1255.33 -498.667 1281.33 -760 1306 c 0xb0
 -931.333 1322.67 -1071.67 1331 -1181 1331 c 1
 -1161.67 1398.33 -1116.67 1466 -1046 1534 c 0
 -1008.67 1569.33 -973.333 1596.67 -940 1616 c 0
 -866.667 1658 -783.333 1679 -690 1679 c 0
 -668.667 1679 -646.333 1678 -623 1676 c 0
 -535.667 1666 -453.333 1632.33 -376 1575 c 2
 -336 1542 l 2
 -258 1470.67 -206 1366 -180 1228 c 5x70
-435 1392 m 1
 -453.667 1432.67 -491.333 1465.67 -548 1491 c 0
 -584 1507 -619.667 1516.33 -655 1519 c 2
 -711 1520 l 2
 -792.333 1516 -853.333 1489.67 -894 1441 c 1x70
 -794 1441 -679 1431.67 -549 1413 c 0
 -501.667 1405.67 -463.667 1398.67 -435 1392 c 1
EndSplineSet
EndChar
StartChar: uni0E35
Encoding: 174 3637 176
Width: 0
Flags: W
HStem: 1301 119.223<-946.83 -428.21> 1323 106<-1125 -844> 1499 143<-775.6 -601.416>
VStem: -370 182<1546 1735>
AnchorPoint: "AboveMark" -279 1740 basemark 0
AnchorPoint: "AboveBase" -180 1227 mark 0
Fore
-188 1260 m 1x70
 -186.667 1254.67 -184.333 1244 -181 1228 c 1
 -299 1253.33 -485.667 1277.67 -741 1301 c 0xb0
 -896.333 1315.67 -1024.33 1323 -1125 1323 c 1
 -1100.33 1405.67 -1049 1477 -971 1537 c 0
 -879.667 1607 -775.667 1642 -659 1642 c 0
 -553 1642 -465.667 1617.33 -397 1568 c 0
 -385 1558.67 -376 1551.33 -370 1546 c 1
 -370 1735 l 1
 -188 1735 l 1
 -188 1260 l 1x70
-429 1387 m 1
 -445 1419.67 -479 1447.67 -531 1471 c 0
 -563 1486.33 -595.333 1495.33 -628 1498 c 2
 -682 1499 l 2
 -754 1493.67 -808 1470.33 -844 1429 c 1x70
 -752 1429 -644.333 1420.33 -521 1403 c 0
 -492.333 1399 -461.667 1393.67 -429 1387 c 1
EndSplineSet
EndChar
StartChar: uni0E36
Encoding: 175 3638 177
Width: 0
Flags: W
HStem: 1323 96<-1125 -839> 1500 140<-719.667 -588.392> 1559 122<-238.188 -163.209>
VStem: -133 118<1469.17 1535.47>
AnchorPoint: "AboveMark" -197 1740 basemark 0
AnchorPoint: "AboveBase" -90 1227 mark 0
Fore
-382 1562 m 1xd0
 -367.333 1606 -337.333 1639 -292 1661 c 0
 -264 1674.33 -235.333 1681 -206 1681 c 2
 -199 1681 l 2xb0
 -139 1679 -91 1656.33 -55 1613 c 0
 -28.3333 1582.33 -15 1545.33 -15 1502 c 0
 -15 1442 -38 1394.67 -84 1360 c 0
 -118 1334 -157.667 1321 -203 1321 c 1
 -197.667 1306.33 -190.333 1275.33 -181 1228 c 1
 -299 1253.33 -485.667 1277.67 -741 1301 c 0
 -896.333 1315.67 -1024.33 1323 -1125 1323 c 1
 -1100.33 1408.33 -1045.67 1480.67 -961 1540 c 0
 -868.333 1606.67 -760 1640 -636 1640 c 0
 -619.333 1640 -607 1639.67 -599 1639 c 0
 -509 1633.67 -439.667 1610.67 -391 1570 c 1
 -390.333 1568.67 -389 1567.33 -387 1566 c 0
 -385 1564.67 -383.333 1563.33 -382 1562 c 1xd0
-199 1559 m 0
 -226.333 1559 -245.333 1548 -256 1526 c 1
 -262 1507 l 1
 -262 1500 l 2
 -262 1474 -250.333 1455.33 -227 1444 c 0
 -218.333 1439.33 -209 1437 -199 1437 c 0
 -167.667 1437 -147 1450 -137 1476 c 0
 -134.333 1482 -133 1490 -133 1500 c 0xd0
 -133 1526.67 -145.667 1544.67 -171 1554 c 0
 -181 1557.33 -190.333 1559 -199 1559 c 0
-432 1376 m 1
 -449.333 1410 -481 1440.33 -527 1467 c 0
 -561 1485.67 -594.667 1496.67 -628 1500 c 2
 -667 1499 l 2
 -719.667 1494.33 -767 1477 -809 1447 c 0
 -822.333 1438.33 -832.333 1429 -839 1419 c 1
 -751.667 1419 -647.333 1410.33 -526 1393 c 0
 -490.667 1388.33 -459.333 1382.67 -432 1376 c 1
EndSplineSet
EndChar
StartChar: uni0E37
Encoding: 176 3639 178
Width: 0
Flags: W
HStem: 1299 102.248<-984.173 -391.744> 1323 91<-1106 -861> 1506 128<-778.4 -593.758>
VStem: -580 176<1625 1723> -358 170<1551 1722>
AnchorPoint: "AboveMark" -381 1740 basemark 0
AnchorPoint: "AboveBase" -180 1227 mark 0
Fore
-404 1587 m 1x78
 -388 1583 -372.667 1571 -358 1551 c 1
 -358 1722 l 1
 -188 1722 l 1
 -188 1285 l 1
 -186 1228 l 1
 -300 1252.67 -477.667 1276.33 -719 1299 c 0xb8
 -882.333 1315 -1011.33 1323 -1106 1323 c 1
 -1076.67 1409 -1022.67 1481 -944 1539 c 0
 -856.667 1602.33 -758 1634 -648 1634 c 2
 -642 1634 l 2
 -626 1634 -605.333 1631 -580 1625 c 1
 -580 1723 l 1
 -404 1723 l 1
 -404 1587 l 1x78
-400 1370 m 1
 -429.333 1432 -479.333 1473.67 -550 1495 c 0
 -572 1501.67 -594.333 1505.33 -617 1506 c 2
 -677 1506 l 2
 -755 1500 -815.667 1470.33 -859 1417 c 2
 -861 1414 l 1x78
 -715.667 1408 -579.667 1396.33 -453 1379 c 0
 -429 1376.33 -411.333 1373.33 -400 1370 c 1
EndSplineSet
EndChar
StartChar: uni0E38
Encoding: 177 3640 179
Width: 0
Flags: W
HStem: -378 82<-408.714 -356.05> -176 91<-409.686 -346.6>
VStem: -525 89<-271.533 -201.508> -361 200<-534 -370>
AnchorPoint: "BelowBase" -161 -85 mark 0
Fore
-361 -534 m 1
 -361 -370 l 1
 -373 -375.333 -385 -378 -397 -378 c 0
 -429.667 -376.667 -459.333 -364.333 -486 -341 c 0
 -512 -317.667 -525 -283.333 -525 -238 c 0
 -525 -225.333 -523.333 -211.667 -520 -197 c 0
 -518.667 -189.667 -516.667 -183 -514 -177 c 0
 -496 -129 -457 -99.6667 -397 -89 c 0
 -383.667 -86.3333 -368.667 -85 -352 -85 c 0
 -303.333 -85 -262.667 -96.6667 -230 -120 c 0
 -224.667 -124 -221 -127 -219 -129 c 0
 -187.667 -160.333 -169 -203.333 -163 -258 c 0
 -161.667 -280.667 -161 -299 -161 -313 c 2
 -161 -534 l 1
 -361 -534 l 1
-383 -176 m 0
 -405 -176 -421 -187 -431 -209 c 0
 -434.333 -219 -436 -228 -436 -236 c 0
 -434 -263.333 -423 -282 -403 -292 c 0
 -398.333 -294.667 -391.667 -296 -383 -296 c 0
 -355 -296 -341 -275 -341 -233 c 0
 -341 -195 -355 -176 -383 -176 c 0
EndSplineSet
EndChar
StartChar: uni0E39
Encoding: 178 3641 180
Width: 0
Flags: W
HStem: -504 129<-425 -309> -161 86<-641.172 -585.05>
VStem: -309 149<-375 -98>
AnchorPoint: "BelowBase" -161 -85 mark 0
Fore
-425 -375 m 1
 -309 -375 l 1
 -309 -98 l 1
 -160 -98 l 1
 -160 -504 l 1
 -574 -504 l 1
 -574 -335 l 1
 -582.667 -343.667 -593 -348.333 -605 -349 c 0
 -644.333 -355 -678.667 -344.333 -708 -317 c 0
 -744.667 -284.333 -755 -237.333 -739 -176 c 0
 -729.667 -144 -708.667 -117.667 -676 -97 c 0
 -653.333 -82.3333 -629 -75 -603 -75 c 0
 -554.333 -75 -515.667 -85.3333 -487 -106 c 0
 -452.333 -132.667 -432.333 -174.667 -427 -232 c 0
 -425.667 -253.333 -425 -272.667 -425 -290 c 2
 -425 -375 l 1
-614 -161 m 0
 -628 -161 -640.333 -168 -651 -182 c 0
 -658.333 -193.333 -662 -205.333 -662 -218 c 0
 -661.333 -232.667 -657 -245 -649 -255 c 0
 -638.333 -269 -626.667 -275.333 -614 -274 c 0
 -600 -274 -589 -268.333 -581 -257 c 0
 -576.333 -250.333 -574 -236.333 -574 -215 c 0
 -574.667 -194.333 -578.333 -180.333 -585 -173 c 0
 -591.667 -165 -601.333 -161 -614 -161 c 0
EndSplineSet
EndChar
StartChar: uni0E3A
Encoding: 179 3642 181
Width: 0
Flags: W
AnchorPoint: "BelowBase" -158 -65 mark 0
Fore
-246 -60 m 0
 -209.333 -60 -178 -73 -152 -99 c 0
 -124.667 -128.333 -111 -160.333 -111 -195 c 0
 -111 -231.667 -124.667 -263 -152 -289 c 0
 -178 -316.333 -209.333 -330 -246 -330 c 0
 -281.333 -330 -312.667 -316.333 -340 -289 c 0
 -366.667 -262.333 -380 -231 -380 -195 c 0
 -380 -159.667 -366.667 -127.667 -340 -99 c 0
 -313.333 -73 -282 -60 -246 -60 c 0
EndSplineSet
EndChar
StartChar: uni0E3F
Encoding: 180 3647 182
Width: 1250
Flags: W
HStem: 0 190<368 541> 689 227<368 541 702 800.89> 1291 198<368 541 702 776.579>
VStem: 132 236<190 689 916 1291> 541 161<-133 0 194 687 916 1291 1489 1595> 885 246<1025.2 1222.8> 953 247<367.161 567.484>
Fore
962 827 m 1xfc
 1058 799.667 1126 738.667 1166 644 c 0
 1188.67 590 1200 527.667 1200 457 c 0xfa
 1200 313.667 1149 200.333 1047 117 c 2
 1005 86 l 2
 921 32.6667 820 4.66667 702 2 c 1
 702 -133 l 1
 541 -133 l 1
 541 0 l 1
 132 0 l 1
 132 1489 l 1
 541 1489 l 1
 541 1595 l 1
 702 1595 l 1
 702 1489 l 1
 892.667 1486.33 1020.67 1431 1086 1323 c 0
 1116 1274.33 1131 1214.67 1131 1144 c 0
 1131 1040 1113.33 963.667 1078 915 c 0
 1066 900.333 1056.33 890 1049 884 c 2
 1019 862 l 2
 1007 854.667 992.667 847.667 976 841 c 0
 968.667 838.333 964 836.667 962 836 c 1
 962 827 l 1xfc
541 916 m 1
 541 1291 l 1
 368 1291 l 1
 368 916 l 1
 541 916 l 1
702 916 m 1
 783.333 917.333 836.333 942.667 861 992 c 0
 877 1022.67 885 1066.67 885 1124 c 0xfc
 885 1200 858.667 1249.33 806 1272 c 0
 780.667 1282.67 746 1289 702 1291 c 1
 702 916 l 1
541 190 m 1
 541 689 l 1
 368 689 l 1
 368 190 l 1
 541 190 l 1
702 194 m 1
 798 199.333 867.667 234 911 298 c 0
 939 339.333 953 389.667 953 449 c 0xfa
 951.667 572.333 903.333 647.333 808 674 c 0
 780 682.667 744.667 687 702 687 c 1
 702 194 l 1
EndSplineSet
EndChar
StartChar: uni0E40
Encoding: 181 3648 183
Width: 700
Flags: W
HStem: -9 120<361.067 439.967> 1126 20G<144 364>
VStem: 144 220<364 1146> 145 209<128.467 255> 473 125<149.591 252.333>
Fore
144 1146 m 1xe8
 364 1146 l 1
 364 364 l 1xe8
 380.667 382.667 404.333 392 435 392 c 0
 453 392.667 472 389 492 381 c 0
 513.333 372.333 531.333 360.333 546 345 c 0
 580.667 311 598 265 598 207 c 0
 598.667 185.667 595.333 161.333 588 134 c 0
 570.667 76.6667 535.667 35.6667 483 11 c 0
 453 -2.33333 421 -9 387 -9 c 0
 337.667 -7.66667 300 -1.33333 274 10 c 0
 250.667 21.3333 228 37 206 57 c 0
 168 91.6667 147.667 157.667 145 255 c 0xd8
 144.333 265 144 281.333 144 304 c 2
 144 1146 l 1xe8
407 111 m 0
 431.667 111 450.667 125 464 153 c 0
 470 165.667 473 180 473 196 c 0
 469.667 239.333 455 266.333 429 277 c 0
 423 279.667 415.667 281 407 281 c 0
 376.333 281 359 261 355 221 c 0
 354.333 217.667 354 212.333 354 205 c 0xd8
 354 142.333 371.667 111 407 111 c 0
EndSplineSet
EndChar
StartChar: uni0E41
Encoding: 182 3649 184
Width: 1320
Flags: W
HStem: -9 120<393.067 471.967 986.067 1065.58> 1126 20G<176 396 769 989>
VStem: 176 220<364 1146> 177 209<128.467 255> 505 125<149.591 252.333> 769 220<364 1146> 770 209<128.467 255> 1098 125<149.591 252.333>
Fore
769 1146 m 1xcd
 989 1146 l 1
 989 364 l 1xcd
 1005.67 382.667 1029.33 392 1060 392 c 0
 1078 392.667 1097 389 1117 381 c 0
 1137.67 372.333 1155.67 360.333 1171 345 c 0
 1205.67 311 1223 265 1223 207 c 0
 1223.67 185.667 1220.33 161.333 1213 134 c 0
 1196.33 76.6667 1161.33 35.6667 1108 11 c 0
 1078 -2.33333 1046 -9 1012 -9 c 0
 962.667 -7.66667 925 -1.33333 899 10 c 0
 875.667 21.3333 853 37 831 57 c 0
 793 91.6667 772.667 157.667 770 255 c 0xcb
 769.333 265 769 281.333 769 304 c 2
 769 1146 l 1xcd
1032 111 m 0
 1057.33 111 1076.33 125 1089 153 c 0
 1095 165.667 1098 180 1098 196 c 0
 1094.67 239.333 1080 266.333 1054 277 c 1
 1034 281 l 1
 1032 281 l 2
 1001.33 281 984 261 980 221 c 0
 979.333 217.667 979 212.333 979 205 c 0xcb
 979 142.333 996.667 111 1032 111 c 0
176 1146 m 1xe9
 396 1146 l 1
 396 364 l 1xe9
 412.667 382.667 436.333 392 467 392 c 0
 485 392.667 504 389 524 381 c 0
 545.333 372.333 563.333 360.333 578 345 c 0
 612.667 311 630 265 630 207 c 0
 630.667 185.667 627.333 161.333 620 134 c 0
 602.667 76.6667 567.667 35.6667 515 11 c 0
 485 -2.33333 453 -9 419 -9 c 0
 369.667 -7.66667 332 -1.33333 306 10 c 0
 282.667 21.3333 260 37 238 57 c 0
 200 91.6667 179.667 157.667 177 255 c 0xd9
 176.333 265 176 281.333 176 304 c 2
 176 1146 l 1xe9
439 111 m 0
 463.667 111 482.667 125 496 153 c 0
 502 165.667 505 180 505 196 c 0
 501.667 239.333 487 266.333 461 277 c 0
 455 279.667 447.667 281 439 281 c 0
 408.333 281 391 261 387 221 c 0
 386.333 217.667 386 212.333 386 205 c 0xd9
 386 142.333 403.667 111 439 111 c 0
EndSplineSet
EndChar
StartChar: uni0E42
Encoding: 183 3650 185
Width: 1100
Flags: W
HStem: -9 120<758.067 837.577> 281 116<764.133 832.233> 1252 211<797.91 910.284>
VStem: 541 220<388 969.366> 542 209<128.467 255> 870 125<149.591 252.333>
Fore
761 850 m 2xf4
 761 388 l 1xf4
 781.667 394 802.333 397 823 397 c 0
 870.333 397 910.333 379.667 943 345 c 0
 977.667 308.333 995 261.667 995 205 c 0
 995 179.667 991.667 156 985 134 c 0
 968.333 76.6667 933.333 35.6667 880 11 c 0
 850 -2.33333 818 -9 784 -9 c 0
 734.667 -7.66667 697 -1.33333 671 10 c 0
 647.667 21.3333 625 37 603 57 c 0
 565 91.6667 544.667 157.667 542 255 c 0xec
 541.333 265 541 281.333 541 304 c 2
 541 850 l 2xf4
 541 931.333 531 986.667 511 1016 c 0
 466.333 1084 339.333 1132.33 130 1161 c 0
 112.667 1163.67 76.3333 1168.33 21 1175 c 1
 21 1195.67 38 1240.33 72 1309 c 0
 85.3333 1336.33 96.3333 1356.67 105 1370 c 0
 155.667 1450.67 221.667 1507 303 1539 c 0
 344.333 1555.67 384.333 1564 423 1564 c 0
 435.667 1564 445.333 1563.67 452 1563 c 0
 484.667 1561 546 1545.33 636 1516 c 0
 740.667 1482 819.333 1464.33 872 1463 c 0
 950 1463 1011.33 1483.33 1056 1524 c 1
 1004 1297 l 1
 948 1267 886 1252 818 1252 c 0
 770 1252 704.333 1268.33 621 1301 c 0
 549 1328.33 498.667 1343.67 470 1347 c 2
 435 1347 l 2
 423 1346.33 412 1343.33 402 1338 c 0
 385.333 1329.33 370.667 1315 358 1295 c 1
 473.333 1275.67 568.667 1236.33 644 1177 c 0
 646 1175 647.667 1173.67 649 1173 c 0
 703.667 1130.33 737.667 1072 751 998 c 2xec
 759 930 l 2
 760.333 899.333 761 872.667 761 850 c 2xf4
804 111 m 0
 829.333 111 848.333 125 861 153 c 0
 867 165.667 870 180 870 196 c 0
 866.667 239.333 852 266.333 826 277 c 0
 820 279.667 812.667 281 804 281 c 0
 773.333 281 756 261 752 221 c 0
 751.333 217.667 751 212.333 751 205 c 0xec
 751 142.333 768.667 111 804 111 c 0
EndSplineSet
EndChar
StartChar: uni0E43
Encoding: 184 3651 186
Width: 1000
Flags: W
HStem: -9 120<711.067 789.967> 281 116<717.133 785.233> 1350 211<501 607.95>
VStem: 66 193<1134.67 1231.71> 494 220<388 747.648> 495 209<128.467 255> 722 206<1108.57 1223.37> 823 125<149.591 252.333>
Fore
494 633 m 2xf8
 494 720.333 504.667 787.333 526 834 c 0
 540 863.333 556.333 888.667 575 910 c 2
 620 962 l 2
 674 1024.67 706 1077.67 716 1121 c 0
 718.667 1133.67 720.667 1148.33 722 1165 c 2
 720 1206 l 2
 712 1260 684.667 1300 638 1326 c 0
 610 1342 573.333 1350 528 1350 c 1
 558.667 1344 582.333 1316.67 599 1268 c 2
 611 1225 l 2
 614.333 1205 616 1187.67 616 1173 c 0
 616 1155.67 614.667 1141.33 612 1130 c 0
 598.667 1059.33 558.667 1007.67 492 975 c 0
 446.667 953 394.667 942 336 942 c 0
 237.333 942 163.333 978.667 114 1052 c 0
 82 1098.67 66 1153.67 66 1217 c 0
 66.6667 1345 122.333 1439 233 1499 c 0
 287 1529.67 352.667 1549 430 1557 c 0
 451.333 1559.67 475 1561 501 1561 c 0
 617 1560.33 716 1531.33 798 1474 c 0
 818.667 1459.33 836 1444 850 1428 c 0
 890.667 1383.33 915.667 1314.67 925 1222 c 0
 927 1203.33 928 1184.67 928 1166 c 0
 927.333 1083.33 896 1008.67 834 942 c 0
 798 902 770 864.333 750 829 c 2
 742 815 l 2
 724.667 782.333 715.333 739 714 685 c 2
 714 633 l 1
 714 388 l 1xfa
 735.333 394 756 397 776 397 c 0
 823.333 397 863.333 379.667 896 345 c 0
 930.667 308.333 948 261.667 948 205 c 0
 948 179.667 944.667 156 938 134 c 0
 920.667 76.6667 885.667 35.6667 833 11 c 0
 803 -2.33333 771 -9 737 -9 c 0
 687.667 -7.66667 650 -1.33333 624 10 c 0
 600.667 21.3333 578 37 556 57 c 0
 518 91.6667 497.667 157.667 495 255 c 0xf5
 494.333 265 494 281.333 494 304 c 2
 494 633 l 2xf8
757 111 m 0
 781.667 111 800.667 125 814 153 c 0
 820 165.667 823 180 823 196 c 0
 819.667 239.333 805 266.333 779 277 c 0
 773 279.667 765.667 281 757 281 c 0
 726.333 281 709 261 705 221 c 0
 704.333 217.667 704 212.333 704 205 c 0xf5
 704 142.333 721.667 111 757 111 c 0
259 1188 m 0
 261 1134.67 288.667 1106.33 342 1103 c 1
 368 1106 l 2
 399.333 1113.33 419.667 1132 429 1162 c 0
 431.667 1170 433 1179.33 433 1190 c 0
 431.667 1224.67 415.667 1248.33 385 1261 c 2
 360 1268 l 2
 356.667 1268.67 351.667 1269 345 1269 c 0
 307 1269 280.667 1254 266 1224 c 0
 261.333 1214 259 1202 259 1188 c 0
EndSplineSet
EndChar
StartChar: uni0E44
Encoding: 185 3652 187
Width: 1140
Flags: W
HStem: -9 120<846.067 925.577> 281 116<852.133 920.233>
VStem: 629 220<388 1247.73> 630 209<130.333 269> 958 125<149.591 252.333>
Fore
629 1194 m 2xe8
 629 1235.33 617.333 1256 594 1256 c 0
 578.667 1256 564.333 1242.33 551 1215 c 2
 516 1148 l 2
 476 1081.33 412.667 1047.67 326 1047 c 0
 312.667 1047 298.333 1048.67 283 1052 c 0
 192.333 1074.67 119.333 1179.33 64 1366 c 2
 23 1521 l 1
 220 1521 l 1
 252 1407 279.333 1335 302 1305 c 0
 314 1289.67 325.333 1282 336 1282 c 0
 359.333 1282 381.333 1302.33 402 1343 c 2
 455 1454 l 2
 494.333 1525.33 542.667 1564.33 600 1571 c 0
 605.333 1571.67 613.333 1572 624 1572 c 0
 727.333 1566.67 795.333 1526 828 1450 c 0
 842 1419.33 849 1383 849 1341 c 2
 849 388 l 1xe8
 869.667 394 890.333 397 911 397 c 0
 958.333 397 998.333 379.667 1031 345 c 0
 1065.67 308.333 1083 261.667 1083 205 c 0
 1083 179.667 1079.67 156 1073 134 c 0
 1056.33 76.6667 1021.33 35.6667 968 11 c 0
 938 -2.33333 906 -9 872 -9 c 0
 822.667 -7.66667 785 -1.33333 759 10 c 0
 735.667 21.3333 713 37 691 57 c 0
 653 91.6667 632.667 162.333 630 269 c 0xd8
 629.333 277 629 290 629 308 c 2
 629 1194 l 2xe8
892 111 m 0
 917.333 111 936.333 125 949 153 c 0
 955 165.667 958 180 958 196 c 0
 954.667 239.333 940 266.333 914 277 c 0
 908 279.667 900.667 281 892 281 c 0
 861.333 281 844 261 840 221 c 0
 839.333 217.667 839 212.333 839 205 c 0xd8
 839 142.333 856.667 111 892 111 c 0
EndSplineSet
EndChar
StartChar: uni0E45
Encoding: 186 3653 188
Width: 1000
Flags: W
HStem: 929 220<383 538.885>
VStem: 664 220<-380 833.867>
Fore
884 753 m 1
 884 -380 l 1
 664 -380 l 1
 664 729 l 2
 664 809.667 635.667 867 579 901 c 0
 548.333 919.667 509 929 461 929 c 0
 401 929 347.667 903.667 301 853 c 0
 275 825 256.667 795.333 246 764 c 1
 48 846 l 1
 80.6667 927.333 133.333 997.333 206 1056 c 0
 283.333 1118 364.667 1149 450 1149 c 0
 598 1149 711 1106.67 789 1022 c 0
 848.333 957.333 880 874.333 884 773 c 2
 884 753 l 1
EndSplineSet
EndChar
StartChar: uni0E46
Encoding: 187 3654 189
Width: 1100
Flags: W
VStem: 398 132<630.55 719.667> 763 206<-380 810.216>
Fore
312 588 m 1
 331 586 l 1
 354.333 588 373.333 602 388 628 c 0
 394 638.667 397.333 646.667 398 652 c 2
 399 691 l 2
 395.667 719.667 381.667 739.333 357 750 c 0
 351.667 752.667 346 754 340 754 c 1
 324 751 l 1
 314.667 746.333 306.667 738.333 300 727 c 0
 291.333 712.333 285 697 281 681 c 0
 277.667 664.333 276 651.333 276 642 c 0
 276 614 288 596 312 588 c 1
969 -380 m 1
 763 -380 l 1
 763 771 l 2
 763 800.333 751.333 836.667 728 880 c 0
 718 900.667 707 917 695 929 c 1
 599 857 498 857 392 929 c 1
 374 904.333 362.333 883.333 357 866 c 2
 356.333 865.333 356 864 356 862 c 1
 435.333 862 488.333 826.667 515 756 c 0
 525 729.333 530 702 530 674 c 0
 530 610.667 509 558 467 516 c 0
 427.667 476.667 378 457 318 457 c 0
 306.667 457 298 457.333 292 458 c 0
 224 464 172.667 500.333 138 567 c 0
 116.667 608.333 106 653.667 106 703 c 0
 106 712.333 106.667 725 108 741 c 0
 119.333 821.667 134.333 882.333 153 923 c 0
 165 948.333 180.667 973.667 200 999 c 0
 238.667 1048.33 285.667 1090 341 1124 c 0
 363 1136.67 380 1145 392 1149 c 1
 551 1041 l 1
 695 1149 l 1
 740.333 1137 783.667 1111.67 825 1073 c 2
 849 1049 l 2
 887 1012.33 918.667 960.667 944 894 c 0
 960.667 850.667 969 809.667 969 771 c 2
 969 -380 l 1
EndSplineSet
EndChar
StartChar: uni0E47
Encoding: 188 3655 190
Width: 0
Flags: W
HStem: 1284 143<-566.933 -469>
AnchorPoint: "AboveMark" -663 1227 mark 0
AnchorPoint: "AboveBase" -310 1227 mark 0
Fore
-455 1562 m 1
 -471 1561.33 -482.667 1553.33 -490 1538 c 1
 -493 1522 l 1
 -493 1521 l 2
 -492.333 1504.33 -482.333 1493.33 -463 1488 c 1
 -450 1487 l 1
 -432 1488.33 -420 1496 -414 1510 c 1
 -412.667 1515.33 -412 1519.67 -412 1523 c 0
 -412 1539.67 -420.667 1551.67 -438 1559 c 1
 -455 1562 l 1
-527 1434 m 1
 -559 1454 -575.333 1483.33 -576 1522 c 0
 -576 1532.67 -574.333 1543 -571 1553 c 0
 -555.667 1596.33 -524 1623 -476 1633 c 0
 -471.333 1633.67 -463.667 1634.67 -453 1636 c 1
 -415 1634 l 2
 -365.667 1626.67 -331.667 1604 -313 1566 c 0
 -299.667 1538 -293 1508 -293 1476 c 0
 -293 1446.67 -298 1419.67 -308 1395 c 0
 -332.667 1334.33 -375.333 1298.33 -436 1287 c 0
 -446.667 1285 -457.667 1284 -469 1284 c 0
 -544.333 1284 -608.333 1300.33 -661 1333 c 2
 -710 1362 l 2
 -724 1368.67 -739 1372 -755 1372 c 0
 -775.667 1372 -787 1354 -789 1318 c 0
 -789.667 1296.67 -792 1285.33 -796 1284 c 1
 -895.333 1284 -965.333 1320.33 -1006 1393 c 0
 -1026 1428.33 -1036 1467.33 -1036 1510 c 0
 -1036 1528.67 -1034 1546.33 -1030 1563 c 0
 -1010 1640.33 -968 1696 -904 1730 c 0
 -886.667 1739.33 -868.667 1746.33 -850 1751 c 0
 -822 1760.33 -764 1767.67 -676 1773 c 0
 -583.333 1779 -518.667 1791 -482 1809 c 0
 -443.333 1828.33 -418.667 1856.67 -408 1894 c 1
 -226 1894 l 1
 -231.333 1843.33 -260 1792.33 -312 1741 c 0
 -356 1697.67 -400 1670.67 -444 1660 c 0
 -464.667 1654 -524 1646.33 -622 1637 c 0
 -725.333 1627.67 -793 1611.67 -825 1589 c 0
 -844.333 1576.33 -855.333 1559.33 -858 1538 c 2
 -861 1511 l 2
 -861 1508.33 -860.667 1506.67 -860 1506 c 1
 -858.667 1500.67 -855.333 1494 -850 1486 c 1
 -832 1521.33 -806.333 1539 -773 1539 c 0
 -765.667 1539 -758.667 1538 -752 1536 c 0
 -721.333 1528 -692 1513.33 -664 1492 c 0
 -619.333 1457.33 -591.333 1438 -580 1434 c 0
 -568.667 1429.33 -559 1427 -551 1427 c 1
 -534 1430 l 1
 -532.667 1430.67 -531.333 1431.5 -530 1432.5 c 0
 -528.667 1433.5 -527.667 1434 -527 1434 c 1
EndSplineSet
EndChar
StartChar: uni0E48
Encoding: 189 3656 191
Width: 0
Flags: W
HStem: 1826 280<-378 -147>
VStem: -378 231<1826 2106>
AnchorPoint: "AboveMark" -262 1740 mark 0
Fore
-378 2106 m 1
 -147 2106 l 1
 -147 1826 l 1
 -378 1826 l 1
 -378 2106 l 1
EndSplineSet
Substitution: 0 65534 'loww' uni0E48.low
MultipleSubs: 0 65534 'amtn' uni0E4D uni0E48
EndChar
StartChar: uni0E49
Encoding: 190 3657 192
Width: 0
Flags: W
HStem: 1878 88<-557.533 -496.393>
AnchorPoint: "AboveMark" -286 1740 mark 0
Fore
66 2156 m 1
 32.6667 2020.67 -52 1910.33 -188 1825 c 0
 -273.333 1770.33 -372.333 1734 -485 1716 c 0
 -511.667 1712 -547.333 1707.67 -592 1703 c 1
 -592 1810 l 1
 -546.667 1821.33 -518 1840.33 -506 1867 c 0
 -503.333 1871.67 -501.333 1877.67 -500 1885 c 1
 -513.333 1880.33 -527.667 1878 -543 1878 c 0
 -561.667 1877.33 -580.667 1881.67 -600 1891 c 2
 -624 1906 l 2
 -627.333 1908.67 -632.333 1913.33 -639 1920 c 0
 -666.333 1950.67 -680 1987.33 -680 2030 c 0
 -676.667 2080.67 -655.667 2119.33 -617 2146 c 0
 -594.333 2160.67 -568.667 2168.67 -540 2170 c 2
 -501 2167 l 2
 -447 2158.33 -405.333 2131.67 -376 2087 c 2
 -361 2057 l 1
 -352 2025 l 1
 -350 2009 l 1
 -351 1966 l 1
 -360 1925 l 1
 -364 1915 l 1
 -312.667 1925.67 -264 1952 -218 1994 c 0
 -198.667 2012.67 -183.333 2030 -172 2046 c 0
 -148 2080 -129.333 2116.67 -116 2156 c 1
 66 2156 l 1
-528 1966 m 0
 -508 1966 -492.667 1975.33 -482 1994 c 0
 -477.333 2001.33 -475 2010 -475 2020 c 0
 -475 2039.33 -484.333 2054.33 -503 2065 c 0
 -511.667 2070.33 -520 2073 -528 2073 c 0
 -550 2073 -566 2063.33 -576 2044 c 1
 -582 2026 l 2
 -582.667 2024.67 -583 2022.67 -583 2020 c 0
 -583 1996.67 -572.333 1980 -551 1970 c 0
 -545 1967.33 -537.333 1966 -528 1966 c 0
EndSplineSet
Substitution: 0 65534 'loww' uni0E49.low
MultipleSubs: 0 65534 'amtn' uni0E4D uni0E49
EndChar
StartChar: uni0E4A
Encoding: 191 3658 193
Width: 0
Flags: W
HStem: 1668 88<-677 -612.05>
AnchorPoint: "AboveMark" -458 1740 mark 0
Fore
-598 1798 m 0
 -602.667 1822 -613.333 1835 -630 1837 c 1
 -642 1836 l 1
 -660.667 1830.67 -672.667 1820.67 -678 1806 c 1
 -679 1794 l 1
 -673 1768.67 -660 1756 -640 1756 c 0
 -624 1756 -611.333 1764 -602 1780 c 0
 -598.667 1786 -597.333 1792 -598 1798 c 0
-153 1918 m 1
 -55 2169 l 1
 125 2169 l 1
 123.667 2169 80.6667 2056.67 -4 1832 c 0
 -37.3333 1746.67 -120.667 1695 -254 1677 c 0
 -279.333 1673.67 -303 1672 -325 1672 c 1
 -299.667 1711.33 -287 1754.67 -287 1802 c 0
 -287 1861.33 -303.667 1910.67 -337 1950 c 0
 -347 1962 -356.333 1970.67 -365 1976 c 1
 -507 1858 l 1
 -606 1946 l 1
 -646 1975 l 1
 -647 1976 l 1
 -671 1966.67 -690 1948.67 -704 1922 c 0
 -704.667 1920.67 -706 1917.33 -708 1912 c 0
 -710.667 1904.67 -712.333 1896 -713 1886 c 1
 -692.333 1904.67 -666.333 1914 -635 1914 c 0
 -587 1914 -554 1893 -536 1851 c 0
 -532 1840.33 -529.333 1832 -528 1826 c 2
 -525 1793 l 2
 -526.333 1749.67 -543.667 1716.67 -577 1694 c 0
 -579 1692.67 -581.667 1691.33 -585 1690 c 0
 -588.333 1688.67 -590.667 1687.33 -592 1686 c 1
 -616 1674 -644.333 1668 -677 1668 c 0
 -706.333 1668 -732 1672.33 -754 1681 c 0
 -803.333 1700.33 -838 1738.33 -858 1795 c 0
 -867.333 1823 -872 1852 -872 1882 c 0
 -872 1893.33 -871.667 1902 -871 1908 c 0
 -867 1971.33 -832 2030.67 -766 2086 c 0
 -728 2116.67 -688.333 2139.33 -647 2154 c 1
 -507 2036 l 1
 -365 2154 l 1
 -299.667 2132 -245.333 2096 -202 2046 c 0
 -168.667 2006.67 -152 1968.33 -152 1931 c 2
 -153 1918 l 1
EndSplineSet
Substitution: 0 65534 'loww' uni0E4A.low
MultipleSubs: 0 65534 'amtn' uni0E4D uni0E4A
EndChar
StartChar: uni0E4B
Encoding: 192 3659 194
Width: 0
Flags: W
HStem: 1793 174<-590 -459 -287 -164>
VStem: -459 172<1670 1793 1967 2096>
AnchorPoint: "AboveMark" -373 1640 mark 0
Fore
-164 1793 m 1
 -287 1793 l 1
 -287 1670 l 1
 -459 1670 l 1
 -459 1793 l 1
 -590 1793 l 1
 -590 1967 l 1
 -459 1967 l 1
 -459 2096 l 1
 -287 2096 l 1
 -287 1967 l 1
 -164 1967 l 1
 -164 1793 l 1
EndSplineSet
Substitution: 0 65534 'loww' uni0E4B.low
MultipleSubs: 0 65534 'amtn' uni0E4D uni0E4B
EndChar
StartChar: uni0E4C
Encoding: 193 3660 195
Width: 0
Flags: W
HStem: 1621 548<-390 52>
AnchorPoint: "AboveMark" -415 1740 mark 0
Fore
52 2169 m 1
 31.3333 2113 -10.6667 2059.67 -74 2009 c 0
 -120.667 1973 -170 1946.67 -222 1930 c 0
 -243.333 1922.67 -262.667 1918.67 -280 1918 c 1
 -246 1900.67 -223.333 1867 -212 1817 c 1
 -210 1789 l 2
 -211.333 1764.33 -221.333 1734.33 -240 1699 c 0
 -260 1661.67 -298.333 1637 -355 1625 c 0
 -362.333 1623.67 -374 1622.33 -390 1621 c 1
 -433 1624 l 2
 -490.333 1633.33 -533.667 1652 -563 1680 c 2
 -566 1683 l 2
 -596.667 1715.67 -614 1756.33 -618 1805 c 2
 -618 1831 l 2
 -613.333 1890.33 -592 1936.33 -554 1969 c 0
 -520 1998.33 -454.667 2023.33 -358 2044 c 0
 -324 2051.33 -298 2057.67 -280 2063 c 0
 -231.333 2079 -190.333 2102.33 -157 2133 c 0
 -143 2147 -133.333 2159 -128 2169 c 1
 52 2169 l 1
-412 1857 m 0
 -440 1857 -460.667 1846 -474 1824 c 0
 -479.333 1814.67 -482 1804.33 -482 1793 c 0
 -482 1777.67 -474 1763.33 -458 1750 c 0
 -443.333 1738.67 -426.667 1733 -408 1733 c 1
 -375.333 1738.33 -354.667 1752.33 -346 1775 c 0
 -343.333 1781 -342 1787.67 -342 1795 c 0
 -342 1823.67 -355.667 1842.67 -383 1852 c 0
 -393 1855.33 -402.667 1857 -412 1857 c 0
EndSplineSet
Substitution: 0 65534 'loww' uni0E4C.low
MultipleSubs: 0 65534 'amtn' uni0E4D uni0E4C
EndChar
StartChar: uni0E4D
Encoding: 194 3661 196
Width: 0
Flags: W
HStem: 1206 104<-290.413 -227.053> 1415 107<-294.947 -230.288>
VStem: -419 104<1328.55 1385> -207 102<1333.89 1395.06>
AnchorPoint: "AboveMark" -261 1740 basemark 0
AnchorPoint: "AboveBase" -105 1227 mark 0
Fore
-150 1476 m 0
 -120 1444 -105 1406 -105 1362 c 0
 -105 1319.33 -120 1282.67 -150 1252 c 0
 -180.667 1221.33 -217.667 1206 -261 1206 c 0
 -304.333 1206 -341.333 1221.33 -372 1252 c 0
 -403.333 1283.33 -419 1320 -419 1362 c 0
 -419 1405.33 -403.333 1443.33 -372 1476 c 0
 -341.333 1506.67 -304.333 1522 -261 1522 c 0
 -217.667 1522 -180.667 1506.67 -150 1476 c 0
-261 1310 m 0
 -238.333 1310 -222 1320 -212 1340 c 0
 -208.667 1348 -207 1355.33 -207 1362 c 0
 -207 1384 -217 1400 -237 1410 c 0
 -245 1413.33 -253 1415 -261 1415 c 0
 -283.667 1415 -300 1405 -310 1385 c 1
 -315 1366 l 1
 -315 1362 l 2
 -315 1339.33 -304.667 1323.67 -284 1315 c 0
 -276 1311.67 -268.333 1310 -261 1310 c 0
EndSplineSet
Substitution: 0 65534 'high' uni0E4D.high
EndChar
StartChar: uni0E4E
Encoding: 195 3662 197
Width: 0
Flags: W
HStem: 1444 122<-247.692 -135> 1675 129<-307.223 -168> 1909 127<-307 -166.81>
AnchorPoint: "AboveBase" -135 1227 mark 0
Fore
-102 1885 m 1
 -160.667 1900.33 -216.667 1908.33 -270 1909 c 2
 -307 1907 l 2
 -334.333 1901.67 -348 1888 -348 1866 c 0
 -348 1838.67 -329.333 1820 -292 1810 c 0
 -276 1806 -258 1804 -238 1804 c 2
 -168 1804 l 1
 -168 1675 l 1
 -233 1675 l 2
 -311 1675 -353.333 1659 -360 1627 c 0
 -360.667 1625 -361 1621.67 -361 1617 c 1
 -358 1605 l 1
 -345.333 1585 -306 1572.33 -240 1567 c 0
 -233.333 1566.33 -224.333 1566 -213 1566 c 2
 -135 1566 l 1
 -135 1444 l 1
 -219 1444 l 2
 -319 1444 -398 1461 -456 1495 c 0
 -514 1529 -543 1569.33 -543 1616 c 0
 -543 1656 -524 1691.33 -486 1722 c 0
 -474 1731.33 -462 1738.67 -450 1744 c 1
 -487.333 1769.33 -509.333 1804.67 -516 1850 c 2
 -518 1884 l 2
 -515.333 1928.67 -494.667 1964.33 -456 1991 c 0
 -413.333 2021 -354.333 2036 -279 2036 c 0
 -224.333 2036 -165.333 2028.33 -102 2013 c 1
 -102 1885 l 1
EndSplineSet
EndChar
StartChar: uni0E4F
Encoding: 196 3663 198
Width: 1250
Flags: W
HStem: -21 184<496.533 737.467> 258 148<571.9 664.3> 609 154<571.256 664.3> 852 188<496.533 737.467>
VStem: 97 183<385.667 630.067> 363 157<458.66 557.34> 716 154<460.811 555.189> 955 182<385.667 630.933>
Fore
380 751 m 0
 313.333 683 280 601.667 280 507 c 0
 280 413.667 313.333 332.667 380 264 c 0
 445.333 196.667 524.333 163 617 163 c 0
 709.667 163 789.667 196.667 857 264 c 0
 922.333 332.667 955 413.667 955 507 c 0
 955 602.333 922.333 683.667 857 751 c 0
 789.667 818.333 709.667 852 617 852 c 0
 524.333 852 445.333 818.333 380 751 c 0
617 406 m 0
 646.333 406 670 415.667 688 435 c 0
 706.667 455 716 479.333 716 508 c 0
 716 536.667 706.667 561 688 581 c 0
 670 599.667 646.333 609 617 609 c 0
 589 609 565.667 599.667 547 581 c 0
 529 561.667 520 537.333 520 508 c 0
 520 478.667 529 454.333 547 435 c 0
 566.333 415.667 589.667 406 617 406 c 0
616 1040 m 0
 760 1040 883 988 985 884 c 0
 1086.33 779.333 1137 654.333 1137 509 c 0
 1137 363.667 1086.33 238.667 985 134 c 0
 883.667 30.6667 760.667 -21 616 -21 c 0
 472.667 -21 350.667 30.6667 250 134 c 0
 148 238 97 363 97 509 c 0
 97 655 148 780 250 884 c 0
 351.333 988 473.333 1040 616 1040 c 0
616 258 m 0
 542.667 258 482 282 434 330 c 0
 386.667 377.333 363 437.667 363 511 c 0
 363 583 386.667 643.333 434 692 c 0
 482.667 739.333 543.333 763 616 763 c 0
 690 763 750.667 739.333 798 692 c 0
 846 644 870 583.667 870 511 c 0
 870 437 846 376.667 798 330 c 0
 751.333 282 690.667 258 616 258 c 0
EndSplineSet
EndChar
StartChar: uni0E50
Encoding: 197 3664 199
Width: 1250
Flags: W
HStem: -10 240<550.333 712.4> 686 238<569.753 698.533>
VStem: 150 253<390.117 528.08>
Fore
624 230 m 0
 692 230 748.667 255 794 305 c 0
 833.333 348.333 853 399.333 853 458 c 0
 853 528.667 826.667 586.333 774 631 c 0
 731.333 667.667 681.333 686 624 686 c 0
 556 684.667 500.667 659.333 458 610 c 2
 436 580 l 2
 414 542.667 403 502 403 458 c 0
 403 386 428.667 327.333 480 282 c 0
 519.333 247.333 567.333 230 624 230 c 0
622 -10 m 0
 498 -10 392.333 28.3333 305 105 c 0
 215.667 183 165 283 153 405 c 0
 151 421.667 150 439.333 150 458 c 0
 150 580.667 190 685.667 270 773 c 0
 351.333 860.333 455 910 581 922 c 0
 598.333 923.333 612 924 622 924 c 2
 687 921 l 2
 817.667 908.333 923 853.333 1003 756 c 0
 1070.33 674.667 1106.67 581.667 1112 477 c 2
 1112 458 l 2
 1112 343.333 1072.33 241.667 993 153 c 0
 915.667 67.6667 820.333 15.6667 707 -3 c 0
 681 -7.66667 652.667 -10 622 -10 c 0
EndSplineSet
EndChar
StartChar: uni0E51
Encoding: 198 3665 200
Width: 1300
Flags: W
HStem: -9 187<494.114 690.192> -4 182.49<572.175 739.742> 603 84<609.334 682.62> 722 203<542.381 777.8>
VStem: 489 96<518 574.413> 885 219<375.467 536.386>
Fore
878 524 m 0xbc
 850 656 768.333 722 633 722 c 2
 626 722 l 2
 538.667 720.667 482 685.333 456 616 c 0
 446.667 590 442 566 442 544 c 0
 442 519.333 447.333 496 458 474 c 0
 476 435.333 500 415.333 530 414 c 0
 539.333 414 548.667 416.667 558 422 c 1
 523.333 440 501.333 472 492 518 c 2
 489 550 l 2
 489.667 600 511 637.667 553 663 c 0
 563.667 669.667 574.333 674.333 585 677 c 0
 605 683.667 627.667 687 653 687 c 0
 681.667 687 707.333 683 730 675 c 0
 765.333 664.333 795.333 639 820 599 c 0
 828.667 585 835 569.667 839 553 c 0
 849 521 854 490.667 854 462 c 0
 854 428 846.333 394 831 360 c 0
 795 280.667 734.333 231 649 211 c 0
 623.667 205.667 598 203 572 203 c 0
 472.667 203 387 236 315 302 c 0
 293.667 322 275 343.667 259 367 c 0
 229.667 411.667 214.333 473.333 213 552 c 2
 217 609 l 2
 222.333 643.667 230.667 673 242 697 c 0
 307.333 829 413.667 903.667 561 921 c 0
 580.333 923.667 602.333 925 627 925 c 0
 743 923.667 844.333 892.667 931 832 c 0
 973 802 1006.33 769 1031 733 c 0
 1036.33 725 1040 719 1042 715 c 0
 1083.33 643.667 1104 559.667 1104 463 c 0
 1104 347 1075 250 1017 172 c 0
 1015.67 170 1013.67 167.5 1011 164.5 c 0
 1008.33 161.5 1007 159.667 1007 159 c 1
 932.333 66.3333 818.333 12 665 -4 c 0x7c
 630.333 -7.33333 600 -9 574 -9 c 0
 432.667 -8.33333 316.667 22.6667 226 84 c 0
 216 90 202.333 100.333 185 115 c 1
 282 292 l 1
 342 244 397.667 212.333 449 197 c 0
 485.667 187 522 180.667 558 178 c 2
 614 178 l 2
 699.333 183.333 764.667 214 810 270 c 0
 860 331.333 885 395.667 885 463 c 0
 885 484.333 882.667 504.667 878 524 c 0xbc
585 545 m 0
 585 520.333 596 502.667 618 492 c 0
 626.667 487.333 636.333 485 647 485 c 0
 678.333 485 698 499.667 706 529 c 0
 708 535 709 541.333 709 548 c 0
 709 569.333 698 585.333 676 596 c 0
 667.333 600.667 657 603 645 603 c 0
 618.333 602.333 600 590.667 590 568 c 0
 586.667 560 585 552.333 585 545 c 0
EndSplineSet
EndChar
StartChar: uni0E52
Encoding: 199 3666 201
Width: 1350
Flags: W
HStem: 0 216<534.703 1004> 343 118<624.767 688.401>
VStem: 208 221.307<243.138 611> 1004 210<217 576.472>
Fore
600 513 m 0
 600 489.667 610.333 473.667 631 465 c 0
 637 462.333 644.333 461 653 461 c 0
 679 461 696 472.667 704 496 c 0
 706 502 707 508.667 707 516 c 0
 707 537.333 696 551.667 674 559 c 0
 668 561.667 660.333 563 651 563 c 0
 626.333 562.333 610 551.333 602 530 c 1
 600.667 523.333 600 517.667 600 513 c 0
545 0 m 2
 427 7.33333 340.667 54.3333 286 141 c 0
 256.667 187 238.667 242.333 232 307 c 2
 208 611 l 2
 186.667 801.667 142.333 976 75 1134 c 1
 309 1134 l 1
 368.333 980 409.667 788.667 433 560 c 0
 443.667 438.667 451.667 363.333 457 334 c 0
 465 284.667 487.667 250.333 525 231 c 0
 533 226.333 543 223 555 221 c 0
 576.333 217.667 600.333 216 627 216 c 2
 1004 217 l 1
 1004 506 l 2
 1004 566.667 991.667 620.333 967 667 c 0
 958.333 683 948 694.667 936 702 c 1
 936 701.333 901.333 678 832 632 c 1
 718 702 l 1
 712 696 707 686.667 703 674 c 1
 730.333 668 756.667 651.333 782 624 c 0
 808 598 822.333 564.333 825 523 c 2
 826 511 l 2
 826 468.333 810.667 429.333 780 394 c 0
 750.667 360 710.333 343 659 343 c 0
 575.667 343 519 368.667 489 420 c 0
 467 458 456 513.333 456 586 c 0
 459.333 664.667 482.667 732.667 526 790 c 0
 548 819.333 585.667 851 639 885 c 0
 669 904.333 695.333 917.333 718 924 c 1
 718 922.667 756 891.667 832 831 c 1
 936 924 l 1
 996.667 908 1055.33 867 1112 801 c 0
 1146.67 760.333 1171.67 719.667 1187 679 c 0
 1205 631 1214 573.333 1214 506 c 2
 1214 0 l 1
 545 0 l 2
EndSplineSet
EndChar
StartChar: uni0E53
Encoding: 200 3667 202
Width: 1400
Flags: W
HStem: 0 21G<1000 1229>
VStem: 86 235<431.812 618.667> 428 123<119.595 184.701> 600 203<216 492.805> 1055 244<325.8 599.6>
Fore
321 138 m 1
 327.667 115.333 345.333 104 374 104 c 2
 388 105 l 1
 414.667 111.667 428 127 428 151 c 0
 428 176.333 416.333 191.667 393 197 c 1
 372 198 l 1
 368.667 197.333 364.333 196.333 359 195 c 0
 337 189.667 324.667 175.667 322 153 c 2
 321 138 l 1
191 108 m 0
 140.333 218.667 107.333 336 92 460 c 0
 88 494.667 86 528.333 86 561 c 0
 86 743 150.333 857 279 903 c 0
 316.333 916.333 357.667 923.333 403 924 c 2
 460 922 l 2
 543.333 913.333 612.667 884.333 668 835 c 0
 681.333 823.667 693.667 809.333 705 792 c 1
 735 849.333 787 888.333 861 909 c 0
 893.667 919 929 924 967 924 c 0
 1188.33 924 1299 778.333 1299 487 c 0
 1299.67 411.667 1291.33 321.667 1274 217 c 0
 1262.67 148.333 1247.67 76 1229 0 c 1
 1000 0 l 1
 1036.67 164.667 1055 303 1055 415 c 0
 1055 557 1023.33 628 960 628 c 0
 886 628 839 588.667 819 510 c 0
 808.333 471.333 803 410 803 326 c 2
 804 216 l 1
 600 216 l 1
 600 320 599.333 386 598 414 c 0
 589.333 530.667 555.333 601 496 625 c 0
 478 632.333 458 636 436 636 c 0
 360 636 321.667 592.667 321 506 c 0
 321 486 323 463.667 327 439 c 0
 332.333 408.333 342 371.333 356 328 c 1
 369.333 331.333 381.333 333 392 333 c 0
 410.667 333.667 429.667 329.667 449 321 c 0
 461 315.667 472.333 308.667 483 300 c 0
 528.333 262.667 551 217 551 163 c 0
 551 47.6667 481 -10 341 -10 c 0
 275.667 -2.66667 227.333 32.6667 196 96 c 1
 195.333 98.6667 193.667 102.667 191 108 c 0
EndSplineSet
EndChar
StartChar: uni0E54
Encoding: 201 3668 203
Width: 1550
Flags: W
HStem: -6 237<518.267 659.763> 557 135<999.298 1075.35> 704 220<512.667 1136.33>
VStem: 127 245<394.4 552.78> 1105 135<454.109 525.447>
Fore
1510 1262 m 1
 1507.33 1164 1474.67 1063.33 1412 960 c 0
 1380.67 906 1346.67 862.667 1310 830 c 0
 1216 746 1087.33 704 924 704 c 2
 664 704 l 2
 512.667 704 420.667 658.667 388 568 c 0
 377.333 540 372 504.667 372 462 c 0
 372 410 393.333 359.667 436 311 c 0
 484 259.667 533.667 233 585 231 c 0
 634.333 231 735 252.333 887 295 c 2
 909 301 l 1
 881.667 322.333 860.667 344.667 846 368 c 0
 824 402.667 813 433 813 459 c 0
 813 533 834 590.333 876 631 c 0
 918.667 671.667 972 692 1036 692 c 0
 1100 692 1148.67 675.333 1182 642 c 0
 1220 602 1239.33 554.667 1240 500 c 0
 1240 442 1222.33 394.333 1187 357 c 0
 1159.67 328.333 1126.67 313.667 1088 313 c 1
 1114.67 301.667 1146.67 293.667 1184 289 c 0
 1192.67 288.333 1201.33 286.667 1210 284 c 0
 1277.33 266.667 1344 229.667 1410 173 c 1
 1253 -2 l 1
 1227 22 1198 41 1166 55 c 0
 1135.33 69 1090 76 1030 76 c 0
 987.333 76 924.333 64 841 40 c 0
 736.333 9.33333 649.333 -6 580 -6 c 0
 454 -6 347 40 259 132 c 0
 171 224 127 336.333 127 469 c 0
 127 617.667 177 730.667 277 808 c 0
 377.667 885.333 509.333 924 672 924 c 2
 918 924 l 2
 1130 924 1250 1036.67 1278 1262 c 1
 1510 1262 l 1
1036 424 m 0
 1054 424 1070.33 430.667 1085 444 c 0
 1098.33 456 1105 471 1105 489 c 0
 1105 507 1098.33 523.333 1085 538 c 0
 1072.33 550.667 1056 557 1036 557 c 0
 1017.33 557 1001.33 550.333 988 537 c 0
 975.333 524.333 969 508.333 969 489 c 0
 969 471 975.333 456 988 444 c 0
 1001.33 430.667 1017.33 424 1036 424 c 0
EndSplineSet
EndChar
StartChar: uni0E55
Encoding: 202 3669 204
Width: 1550
Flags: W
HStem: -6 237<518.267 659.763> 557 135<999.298 1075.35> 704 233<664 826.268> 1057 129<757.395 827.537>
VStem: 127 245<394.4 552.78> 602 128<963.191 1031.01> 854 129<963.035 1031.24> 1105 135<454.109 525.447> 1278 232<1112.89 1290.41>
Fore
618 922 m 1
 607.333 947.333 602 972.333 602 997 c 0
 602 1048.33 620.667 1092.67 658 1130 c 0
 695.333 1167.33 740.333 1186 793 1186 c 0
 845 1186 889.667 1167.33 927 1130 c 0
 964.333 1092.67 983 1048.33 983 997 c 0
 983 971.667 978.333 948 969 926 c 1
 1149.67 944.667 1252.67 1056.67 1278 1262 c 1
 1510 1262 l 1
 1507.33 1164 1474.67 1063.33 1412 960 c 0
 1380.67 906 1346.67 862.667 1310 830 c 0
 1216 746 1087.33 704 924 704 c 2
 664 704 l 2
 512.667 704 420.667 658.667 388 568 c 0
 377.333 540 372 504.667 372 462 c 0
 372 410 393.333 359.667 436 311 c 0
 484 259.667 533.667 233 585 231 c 0
 634.333 231 735 252.333 887 295 c 2
 909 301 l 1
 881.667 322.333 860.667 344.667 846 368 c 0
 824 402.667 813 433 813 459 c 0
 813 533 834 590.333 876 631 c 0
 918.667 671.667 972 692 1036 692 c 0
 1100 692 1148.67 675.333 1182 642 c 0
 1220 602 1239.33 554.667 1240 500 c 0
 1240 442 1222.33 394.333 1187 357 c 0
 1159.67 328.333 1126.67 313.667 1088 313 c 1
 1114.67 301.667 1146.67 293.667 1184 289 c 0
 1192.67 288.333 1201.33 286.667 1210 284 c 0
 1277.33 266.667 1344 229.667 1410 173 c 1
 1253 -2 l 1
 1227 22 1198 41 1166 55 c 0
 1135.33 69 1090 76 1030 76 c 0
 987.333 76 924.333 64 841 40 c 0
 736.333 9.33333 649.333 -6 580 -6 c 0
 454 -6 347 40 259 132 c 0
 171 224 127 336.333 127 469 c 0
 127 617.667 177 730.667 277 808 c 0
 363.667 874.667 477.333 912.667 618 922 c 1
1036 424 m 0
 1054 424 1070.33 430.667 1085 444 c 0
 1098.33 456 1105 471 1105 489 c 0
 1105 507 1098.33 523.333 1085 538 c 0
 1072.33 550.667 1056 557 1036 557 c 0
 1017.33 557 1001.33 550.333 988 537 c 0
 975.333 524.333 969 508.333 969 489 c 0
 969 471 975.333 456 988 444 c 0
 1001.33 430.667 1017.33 424 1036 424 c 0
793 937 m 0
 808.333 937 822.667 943 836 955 c 0
 848 966.333 854 979.667 854 995 c 0
 854 1013 848 1027.67 836 1039 c 0
 824 1051 809.667 1057 793 1057 c 0
 775.667 1057 761 1051 749 1039 c 0
 736.333 1028.33 730 1013.67 730 995 c 0
 730 979 736.333 965.667 749 955 c 0
 761 943 775.667 937 793 937 c 0
EndSplineSet
EndChar
